SplineFontDB: 3.0
FontName: CJKai
FullName: CJKai
FamilyName: CJKai
Weight: Book
Copyright: (c) Copyright DynaLab Inc. 1992-1998
Version: 1.00 January 1, 2017, initial release
ItalicAngle: 0
UnderlinePosition: -85
UnderlineWidth: 50
Ascent: 820
Descent: 204
sfntRevision: 0x00010000
LayerCount: 2
Layer: 0 1 "Back"  1
Layer: 1 1 "Fore"  0
XUID: [1021 833 573998151 8879804]
FSType: 0
OS2Version: 3
OS2_WeightWidthSlopeOnly: 0
OS2_UseTypoMetrics: 1
CreationTime: 725788800
ModificationTime: 1485660492
PfmFamily: 65
TTFWeight: 400
TTFWidth: 5
LineGap: 204
VLineGap: 0
Panose: 3 0 5 9 0 0 0 0 0 0
OS2TypoAscent: 820
OS2TypoAOffset: 0
OS2TypoDescent: -204
OS2TypoDOffset: 0
OS2TypoLinegap: 204
OS2WinAscent: 820
OS2WinAOffset: 0
OS2WinDescent: 204
OS2WinDOffset: 0
HheadAscent: 820
HheadAOffset: 0
HheadDescent: -204
HheadDOffset: 0
OS2SubXSize: 512
OS2SubYSize: 512
OS2SubXOff: 0
OS2SubYOff: 0
OS2SupXSize: 512
OS2SupYSize: 512
OS2SupXOff: 0
OS2SupYOff: 512
OS2StrikeYSize: 51
OS2StrikeYPos: 260
OS2FamilyClass: 2567
OS2Vendor: 'DYNA'
OS2CodePages: 00000001.c0d40000
OS2UnicodeRanges: 80000083.080f1802.00000016.00000000
Lookup: 1 1 0 "'vert' Vertical Alternates (obs) in CJK Ideographic lookup 0"  {"'vert' Vertical Alternates (obs) in CJK Ideographic lookup 0 subtable"  } ['vert' ('hani' <'CHN ' 'dflt' > ) ]
DEI: 91125
TtTable: prep
PUSHB_3
 64
 77
 59
WS
MPPEM
GT
IF
PUSHW_1
 511
ELSE
PUSHW_1
 0
EIF
SCANCTRL
PUSHW_4
 63
 511
 1
 1
SCANTYPE
DIV
ADD
SCVTCI
PUSHB_2
 76
 6
WS
PUSHB_2
 77
 7
WS
PUSHB_2
 58
 44
WCVTF
PUSHB_4
 58
 59
 59
 58
RCVT
ROUND[Grey]
DUP
PUSHB_1
 0
EQ
IF
POP
PUSHB_1
 64
EIF
WCVTP
RCVT
ODD
IF
PUSHB_1
 1
ELSE
PUSHB_1
 0
EIF
WS
PUSHB_2
 51
 59
RCVT
PUSHB_1
 128
DIV
WCVTP
PUSHB_2
 11
 58
RS
WS
PUSHB_2
 58
 24
WCVTF
PUSHB_4
 59
 59
 59
 58
RCVT
ROUND[Grey]
DUP
PUSHB_1
 0
EQ
IF
POP
PUSHB_1
 64
EIF
WCVTP
RCVT
ODD
IF
PUSHB_1
 1
ELSE
PUSHB_1
 0
EIF
WS
PUSHB_2
 50
 59
RCVT
PUSHB_1
 128
DIV
WCVTP
PUSHB_2
 91
 59
RS
WS
EndTTInstrs
TtTable: fpgm
NPUSHB
 199
 198
 197
 196
 195

StartChar: uni3107
Encoding: 12551 12551 0
Width: 1024
GlyphClass: 2
Flags: W
LayerCount: 2
Fore
SplineSet
208 645 m 0,0,1
 224 645 224 645 249 630 c 0,2,3
 263 622 263 622 265 617 c 1,4,5
 303 619 303 619 324 622 c 1,6,7
 474 636 474 636 622 654 c 0,8,9
 688 663 688 663 730 676 c 0,10,11
 746 681 746 681 756 681 c 0,12,13
 768 681 768 681 803 666 c 1,14,15
 844 645 844 645 844 629 c 0,16,17
 844 623 844 623 841 616 c 1,18,19
 827 562 827 562 827 401 c 0,20,21
 827 369 827 369 839 182 c 0,22,23
 848 39 848 39 848 -11 c 0,24,25
 848 -36 848 -36 838 -78 c 1,26,27
 820 -116 820 -116 803 -119 c 1,28,29
 789 -118 789 -118 777 -97 c 1,30,31
 756 -46 756 -46 755 -18 c 1,32,33
 756 -11 756 -11 763 35 c 1,34,35
 771 107 771 107 771 340 c 0,36,37
 771 436 771 436 760 608 c 1,38,39
 760 624 760 624 735 624 c 0,40,41
 685 624 685 624 587 618 c 0,42,43
 443 608 443 608 260 582 c 1,44,45
 259 559 259 559 259 524 c 0,46,47
 256 172 256 172 248 -20 c 1,48,49
 246 -35 246 -35 236 -53 c 1,50,51
 223 -68 223 -68 215 -68 c 0,52,53
 197 -68 197 -68 186 -30 c 1,54,55
 175 1 175 1 175 16 c 1,56,57
 176 16 176 16 178 32 c 1,58,59
 198 129 198 129 202 185 c 0,60,61
 212 309 212 309 212 496 c 1,62,63
 206 597 206 597 189 624 c 1,64,65
 187 634 187 634 187 637 c 0,66,67
 187 645 187 645 208 645 c 0,0,1
EndSplineSet
Validated: 1
EndChar

StartChar: uni3111
Encoding: 12561 12561 1
Width: 1024
GlyphClass: 2
Flags: W
LayerCount: 2
Fore
SplineSet
641 590 m 0,1,2
 509 424 509 424 370 313 c 0,3,4
 355 302 355 302 352 297 c 1,5,6
 356 291 356 291 376 278 c 0,7,8
 630 110 630 110 650 -40 c 1,9,10
 649 -106 649 -106 627 -106 c 0,11,12
 596 -106 596 -106 580 -58 c 1,13,14
 554 4 554 4 479 109 c 1,15,16
 414 193 414 193 337 256 c 0,17,18
 310 278 310 278 306 290 c 1,19,20
 309 299 309 299 339 326 c 1,21,22
 409 384 409 384 491 490 c 1,23,24
 560 575 560 575 560 669 c 0,25,26
 560 677 560 677 559 680 c 0,27,28
 558 686 558 686 557 691 c 0,29,30
 553 704 553 704 567 704 c 0,31,32
 582 704 582 704 614 680 c 0,33,34
 660 644 660 644 660 625 c 0,35,0
 660 614 660 614 641 590 c 0,1,2
EndSplineSet
Validated: 1
EndChar

StartChar: uni3007
Encoding: 12295 12295 2
Width: 1024
GlyphClass: 2
Flags: W
LayerCount: 2
Fore
SplineSet
608 635 m 1,0,1
 598 624 598 624 539 638 c 1,2,3
 457 642 457 642 377 611 c 1,4,5
 293 568 293 568 238 473 c 1,6,7
 197 393 197 393 197 288 c 0,8,9
 197 221 197 221 242 154 c 0,10,11
 307 59 307 59 400 22 c 1,12,13
 438 8 438 8 481 0 c 1,14,15
 553 -8 553 -8 586 -8 c 0,16,17
 685 -8 685 -8 769 90 c 1,18,19
 827 171 827 171 827 303 c 0,20,21
 827 408 827 408 761 502 c 1,22,23
 680 597 680 597 608 635 c 1,0,1
609 646 m 1,24,25
 717 620 717 620 787 554 c 0,26,27
 892 453 892 453 892 300 c 0,28,29
 892 151 892 151 805 46 c 1,30,31
 719 -55 719 -55 560 -55 c 0,32,33
 433 -55 433 -55 342 -10 c 1,34,35
 240 43 240 43 189 127 c 1,36,37
 142 201 142 201 142 275 c 0,38,39
 142 407 142 407 209 519 c 1,40,41
 277 623 277 623 374 656 c 0,42,43
 583 726 583 726 609 647 c 1,44,-1
 609 646 l 1,24,25
EndSplineSet
Validated: 33
EndChar

StartChar: uni2E80
Encoding: 11904 11904 3
Width: 1024
GlyphClass: 2
Flags: W
LayerCount: 2
Fore
SplineSet
400 572 m 0,0,1
 417 572 417 572 442 565 c 0,2,3
 538 541 538 541 569 515 c 1,4,5
 594 491 594 491 594 446 c 0,6,7
 594 438 594 438 587 430 c 0,8,9
 580 423 580 423 573 423 c 0,10,11
 557 423 557 423 539 438 c 0,12,13
 504 465 504 465 404 556 c 1,14,15
 396 565 396 565 396 568 c 0,16,17
 396 572 396 572 400 572 c 0,0,1
347 277 m 0,18,19
 359 277 359 277 382 273 c 1,20,21
 462 253 462 253 508 232 c 1,22,23
 567 201 567 201 586 176 c 1,24,25
 603 138 603 138 603 112 c 0,26,27
 603 97 603 97 595 81 c 0,28,29
 589 68 589 68 576 68 c 0,30,31
 564 68 564 68 559 72 c 0,32,33
 538 86 538 86 501 119 c 1,34,35
 435 183 435 183 371 242 c 1,36,37
 343 264 343 264 343 274 c 0,38,39
 343 277 343 277 347 277 c 0,18,19
EndSplineSet
Validated: 1
EndChar

StartChar: uni2E81
Encoding: 11905 11905 4
Width: 1024
GlyphClass: 2
Flags: W
LayerCount: 2
Fore
SplineSet
620 692 m 0,0,1
 635 692 635 692 696 668 c 1,2,3
 743 645 743 645 743 629 c 0,4,5
 743 618 743 618 725 612 c 0,6,7
 655 592 655 592 633 588 c 0,8,9
 601 582 601 582 548 566 c 1,10,11
 404 526 404 526 354 522 c 1,12,13
 350 508 350 508 350 498 c 0,14,15
 346 423 346 423 340 364 c 0,16,17
 329 266 329 266 316 221 c 1,18,19
 287 111 287 111 243 45 c 1,20,21
 198 -13 198 -13 122 -56 c 1,22,23
 81 -76 81 -76 68 -76 c 0,24,25
 63 -76 63 -76 63 -72 c 1,26,27
 158 16 158 16 206 96 c 1,28,29
 251 168 251 168 268 268 c 1,30,31
 284 354 284 354 284 465 c 0,32,33
 284 502 284 502 258 561 c 0,34,35
 256 564 256 564 256 568 c 0,36,37
 256 576 256 576 275 576 c 0,38,39
 307 576 307 576 335 565 c 0,40,41
 355 558 355 558 358 544 c 1,42,43
 435 567 435 567 490 591 c 1,44,45
 545 613 545 613 578 644 c 1,46,47
 597 660 597 660 611 689 c 1,48,49
 611 692 611 692 620 692 c 0,0,1
EndSplineSet
Validated: 1
EndChar

StartChar: uni2E84
Encoding: 11908 11908 5
Width: 1024
GlyphClass: 2
Flags: W
LayerCount: 2
Fore
SplineSet
555 676 m 0,0,1
 579 676 579 676 614 658 c 0,2,3
 655 636 655 636 655 624 c 0,4,5
 655 617 655 617 628 601 c 1,6,7
 587 574 587 574 577 530 c 0,8,9
 559 450 559 450 559 355 c 1,10,11
 562 237 562 237 600 155 c 0,12,13
 640 71 640 71 716 30 c 0,14,15
 780 -4 780 -4 823 -4 c 0,16,17
 839 -4 839 -4 845 14 c 1,18,19
 845 14 845 14 869 126 c 0,20,21
 874 152 874 152 880 152 c 0,22,23
 891 152 891 152 897 100 c 1,24,25
 902 22 902 22 918 -33 c 1,26,27
 924 -50 924 -50 924 -60 c 0,28,29
 924 -88 924 -88 884 -88 c 0,30,31
 809 -88 809 -88 746 -67 c 0,32,33
 680 -44 680 -44 621 14 c 0,34,35
 574 60 574 60 538 159 c 1,36,37
 504 258 504 258 504 364 c 0,38,39
 504 472 504 472 523 584 c 1,40,41
 523 594 523 594 519 596 c 1,42,43
 267 545 267 545 234 538 c 1,44,45
 222 532 222 532 208 532 c 0,46,47
 187 532 187 532 154 554 c 1,48,49
 135 568 135 568 135 576 c 0,50,51
 135 590 135 590 160 591 c 0,52,53
 263 599 263 599 370 612 c 1,54,55
 473 627 473 627 524 662 c 1,56,57
 548 676 548 676 555 676 c 0,0,1
EndSplineSet
Validated: 1
EndChar

StartChar: uni2E88
Encoding: 11912 11912 6
Width: 1024
GlyphClass: 2
Flags: W
LayerCount: 2
Fore
SplineSet
164 116 m 0,0,1
 244 197 244 197 303 280 c 0,2,3
 353 349 353 349 378 402 c 1,4,5
 399 441 399 441 417 498 c 0,6,7
 428 533 428 533 423 549 c 1,8,-1
 418 562 l 1,9,10
 411 586 411 586 431 586 c 1,11,12
 451 588 451 588 467 573 c 1,13,14
 488 560 488 560 508 525 c 1,15,16
 519 509 519 509 509 494 c 2,17,-1
 469 428 l 1,18,-1
 429 364 l 1,19,20
 491 370 491 370 559 383 c 0,21,22
 603 392 603 392 633 407 c 1,23,24
 656 427 656 427 681 414 c 1,25,26
 759 389 759 389 763 377 c 1,27,28
 771 367 771 367 752 351 c 1,29,30
 712 314 712 314 689 276 c 1,31,-1
 635 195 l 1,32,33
 565 98 565 98 495 40 c 1,34,35
 466 36 466 36 475 62 c 1,36,37
 524 134 524 134 555 181 c 0,38,39
 591 237 591 237 612 293 c 1,40,41
 633 328 633 328 626 340 c 1,42,43
 615 354 615 354 582 344 c 1,44,-1
 485 328 l 2,45,46
 441 321 441 321 413 340 c 1,47,-1
 367 276 l 1,48,49
 327 224 327 224 280 179 c 0,50,51
 249 148 249 148 184 103 c 1,52,-1
 163 95 l 1,53,54
 156 94 156 94 156 101 c 0,55,56
 156 109 156 109 164 116 c 0,0,1
EndSplineSet
Validated: 33
EndChar

StartChar: uni2E8A
Encoding: 11914 11914 7
Width: 1024
GlyphClass: 2
Flags: W
LayerCount: 2
Fore
SplineSet
476 360 m 1,0,1
 594 390 594 390 642 407 c 1,2,3
 687 421 687 421 703 421 c 0,4,5
 783 418 783 418 783 381 c 0,6,7
 783 362 783 362 749 359 c 0,8,9
 707 355 707 355 640 347 c 0,10,11
 596 341 596 341 497 333 c 0,12,13
 485 333 485 333 475 334 c 1,14,-1
 475 -76 l 2,15,16
 475 -100 475 -100 460 -125 c 1,17,18
 451 -156 451 -156 435 -156 c 0,19,20
 415 -156 415 -156 400 -113 c 1,21,22
 387 -85 387 -85 387 -47 c 1,23,24
 404 22 404 22 416 99 c 1,25,26
 431 167 431 167 431 310 c 0,27,28
 431 604 431 604 420 646 c 1,29,30
 409 684 409 684 384 721 c 1,31,32
 384 733 384 733 395 733 c 0,33,34
 434 733 434 733 476 704 c 1,35,36
 515 682 515 682 515 652 c 0,37,38
 515 642 515 642 507 630 c 1,39,40
 493 542 493 542 482 449 c 1,41,42
 478 402 478 402 476 360 c 1,0,1
EndSplineSet
Validated: 1
EndChar

StartChar: uni2E97
Encoding: 11927 11927 8
Width: 1024
GlyphClass: 2
Flags: W
LayerCount: 2
Fore
SplineSet
482 648 m 0,0,1
 482 646 482 646 479 635 c 0,2,3
 466 578 466 578 466 526 c 2,4,-1
 466 345 l 2,5,6
 466 320 466 320 468 252 c 0,7,8
 470 151 470 151 470 100 c 0,9,10
 470 -14 470 -14 444 -64 c 256,11,12
 418 -114 418 -114 398 -114 c 0,13,14
 391 -114 391 -114 375 -83 c 0,15,16
 336 -8 336 -8 255 46 c 0,17,18
 245 52 245 52 245 56 c 256,19,20
 245 60 245 60 252 60 c 0,21,22
 256 60 256 60 261 58 c 0,23,24
 354 33 354 33 380 33 c 0,25,26
 411 33 411 33 411 188 c 2,27,-1
 411 430 l 2,28,29
 411 632 411 632 368 684 c 0,30,31
 361 693 361 693 361 699 c 0,32,33
 361 709 361 709 375 709 c 0,34,35
 397 709 397 709 439 688 c 0,36,37
 481 666 481 666 482 648 c 0,0,1
941 254 m 0,38,39
 941 206 941 206 913 206 c 0,40,41
 877 206 877 206 756 465 c 1,42,43
 941 391 941 391 941 254 c 0,38,39
124 126 m 0,44,45
 99 126 99 126 99 185 c 0,46,47
 99 225 99 225 124 255 c 1,48,49
 176 314 176 314 197 400 c 0,50,51
 203 422 203 422 209 436 c 1,52,53
 239 401 239 401 239 368 c 0,54,55
 239 308 239 308 202 217 c 256,56,57
 165 126 165 126 124 126 c 0,44,45
731 202 m 0,58,59
 731 148 731 148 705 148 c 0,60,61
 670 148 670 148 554 440 c 1,62,63
 731 356 731 356 731 202 c 0,58,59
EndSplineSet
Validated: 1
EndChar

StartChar: uni2EA4
Encoding: 11940 11940 9
Width: 1024
GlyphClass: 2
Flags: W
LayerCount: 2
Fore
SplineSet
550 655 m 1,0,1
 574 651 574 651 609 638 c 1,2,3
 660 622 660 622 660 600 c 0,4,5
 660 596 660 596 510 544 c 1,6,7
 360 495 360 495 343 494 c 0,8,9
 327 494 327 494 324 498 c 1,10,11
 324 504 324 504 352 514 c 1,12,13
 421 544 421 544 463 569 c 0,14,15
 526 607 526 607 531 639 c 1,16,17
 531 655 531 655 550 655 c 1,0,1
242 444 m 1,18,-1
 276 435 l 1,19,20
 312 417 312 417 323 395 c 0,21,22
 335 372 335 372 335 350 c 0,23,24
 335 315 335 315 312 315 c 0,25,26
 284 315 284 315 247 396 c 1,27,28
 226 437 226 437 226 444 c 1,29,-1
 242 444 l 1,18,-1
414 487 m 0,30,31
 424 487 424 487 469 463 c 1,32,33
 507 440 507 440 507 412 c 0,34,35
 507 354 507 354 476 354 c 0,36,37
 456 354 456 354 422 442 c 0,38,39
 410 474 410 474 410 479 c 0,40,41
 410 487 410 487 414 487 c 0,30,31
687 522 m 0,42,43
 701 522 701 522 732 506 c 0,44,45
 777 483 777 483 777 467 c 0,46,47
 777 462 777 462 761 453 c 1,48,49
 727 428 727 428 685 392 c 1,50,51
 630 347 630 347 558 323 c 1,52,53
 550 323 550 323 546 330 c 1,54,55
 553 341 553 341 577 361 c 1,56,57
 619 399 619 399 652 448 c 1,58,59
 675 484 675 484 675 502 c 0,60,61
 675 510 675 510 678 516 c 0,62,63
 682 522 682 522 687 522 c 0,42,43
EndSplineSet
Validated: 1
EndChar

StartChar: uni2EAE
Encoding: 11950 11950 10
Width: 1024
GlyphClass: 2
Flags: W
LayerCount: 2
Fore
SplineSet
311 681 m 0,0,1
 330 681 330 681 357 659 c 1,2,3
 380 642 380 642 380 624 c 0,4,5
 380 615 380 615 370 606 c 1,6,7
 359 599 359 599 356 590 c 1,8,9
 338 557 338 557 323 530 c 1,10,11
 361 539 361 539 392 548 c 0,12,13
 424 557 424 557 435 557 c 0,14,15
 504 555 504 555 504 521 c 0,16,17
 504 512 504 512 478 510 c 0,18,19
 449 508 449 508 401 504 c 0,20,21
 370 501 370 501 343 501 c 0,22,23
 319 501 319 501 306 503 c 1,24,25
 285 468 285 468 265 442 c 1,26,27
 209 375 209 375 163 344 c 1,28,29
 139 324 139 324 131 324 c 0,30,31
 128 324 128 324 128 333 c 1,32,33
 196 414 196 414 239 484 c 1,34,35
 270 541 270 541 290 600 c 1,36,37
 299 634 299 634 299 649 c 1,38,-1
 296 673 l 2,39,40
 296 681 296 681 311 681 c 0,0,1
303 421 m 0,41,42
 316 421 316 421 333 417 c 0,43,44
 374 406 374 406 394 393 c 0,45,46
 412 381 412 381 412 356 c 0,47,48
 412 343 412 343 401 330 c 0,49,50
 390 316 390 316 380 316 c 0,51,52
 369 316 369 316 359 327 c 1,53,54
 338 345 338 345 300 403 c 0,55,56
 296 409 296 409 296 412 c 0,57,58
 297 421 297 421 303 421 c 0,41,42
620 717 m 0,59,60
 640 717 640 717 671 694 c 0,61,62
 695 675 695 675 695 656 c 0,63,64
 695 647 695 647 686 638 c 1,65,66
 677 631 677 631 675 620 c 1,67,68
 658 586 658 586 643 556 c 1,69,70
 696 567 696 567 739 581 c 1,71,72
 780 593 780 593 796 593 c 0,73,74
 863 591 863 591 863 557 c 0,75,76
 863 541 863 541 831 539 c 0,77,78
 793 536 793 536 732 529 c 0,79,80
 692 524 692 524 659 524 c 0,81,82
 640 524 640 524 627 526 c 1,83,84
 609 493 609 493 594 469 c 1,85,86
 544 400 544 400 504 368 c 1,87,88
 482 349 482 349 475 349 c 0,89,90
 471 349 471 349 471 356 c 1,91,92
 525 441 525 441 559 515 c 0,93,94
 585 573 585 573 600 634 c 1,95,96
 607 669 607 669 607 685 c 1,97,-1
 603 708 l 1,98,99
 603 717 603 717 620 717 c 0,59,60
636 436 m 0,100,101
 651 436 651 436 673 433 c 1,102,103
 724 422 724 422 750 407 c 0,104,105
 771 394 771 394 771 368 c 0,106,107
 771 354 771 354 762 341 c 1,108,109
 751 328 751 328 739 328 c 0,110,111
 725 328 725 328 712 340 c 1,112,113
 683 358 683 358 635 420 c 1,114,115
 628 426 628 426 628 429 c 0,116,117
 629 436 629 436 636 436 c 0,100,101
EndSplineSet
Validated: 1
EndChar

StartChar: uni2EC0
Encoding: 11968 11968 11
Width: 1024
GlyphClass: 2
Flags: W
LayerCount: 2
Fore
SplineSet
334 700 m 0,0,1
 382 700 382 700 392 689 c 1,2,3
 418 681 418 681 418 668 c 0,4,5
 418 635 418 635 442 515 c 1,6,7
 455 433 455 433 469 356 c 1,8,9
 469 336 469 336 461 336 c 0,10,11
 433 336 433 336 429 359 c 0,12,13
 414 430 414 430 399 480 c 1,14,15
 284 459 284 459 223 439 c 0,16,17
 216 437 216 437 212 437 c 0,18,19
 197 437 197 437 162 462 c 0,20,21
 139 479 139 479 139 488 c 0,22,23
 139 496 139 496 147 496 c 256,24,25
 155 496 155 496 171 492 c 1,26,27
 184 492 184 492 245 496 c 0,28,29
 301 500 301 500 389 510 c 1,30,31
 349 642 349 642 323 670 c 0,32,33
 314 679 314 679 314 683 c 0,34,35
 314 700 314 700 334 700 c 0,0,1
659 736 m 1,36,37
 679 734 679 734 706 717 c 1,38,39
 733 703 733 703 733 686 c 0,40,41
 733 676 733 676 723 653 c 1,42,43
 700 608 700 608 693 584 c 0,44,45
 687 564 687 564 683 546 c 1,46,47
 724 551 724 551 735 553 c 1,48,49
 748 557 748 557 786 567 c 1,50,51
 809 572 809 572 827 572 c 0,52,53
 853 572 853 572 884 564 c 1,54,55
 920 550 920 550 920 536 c 0,56,57
 920 530 920 530 910 522 c 1,58,59
 902 513 902 513 892 513 c 0,60,61
 830 518 830 518 763 515 c 0,62,63
 733 514 733 514 672 508 c 1,64,65
 645 419 645 419 604 339 c 1,66,67
 590 328 590 328 577 328 c 0,68,69
 574 328 574 328 574 336 c 1,70,71
 599 416 599 416 621 491 c 1,72,73
 636 551 636 551 642 602 c 1,74,75
 651 656 651 656 651 688 c 0,76,77
 651 695 651 695 636 724 c 1,78,79
 636 736 636 736 659 736 c 1,36,37
EndSplineSet
Validated: 33
EndChar

StartChar: uni2F2C
Encoding: 12076 12076 13
Width: 1024
GlyphClass: 2
Flags: W
LayerCount: 2
Fore
SplineSet
467 232 m 1,0,1
 417 221 417 221 386 211 c 1,2,3
 325 195 325 195 252 148 c 1,4,5
 231 148 231 148 221 166 c 1,6,7
 200 195 200 195 200 213 c 0,8,9
 200 219 200 219 210 222 c 1,10,11
 229 230 229 230 232 236 c 1,12,13
 248 253 248 253 248 293 c 0,14,15
 248 341 248 341 234 413 c 1,16,17
 230 446 230 446 204 472 c 1,18,19
 200 479 200 479 200 484 c 0,20,21
 200 501 200 501 215 501 c 0,22,23
 234 501 234 501 270 485 c 1,24,25
 303 472 303 472 303 456 c 2,26,-1
 300 252 l 1,27,28
 369 264 369 264 474 279 c 1,29,30
 486 371 486 371 489 492 c 1,31,32
 502 613 502 613 459 701 c 0,33,34
 450 719 450 719 450 725 c 0,35,36
 450 736 450 736 469 736 c 0,37,38
 499 736 499 736 539 716 c 0,39,40
 580 696 580 696 579 679 c 1,41,-1
 579 678 l 1,42,43
 570 646 570 646 564 492 c 1,44,45
 558 380 558 380 543 290 c 1,46,47
 616 300 616 300 706 312 c 0,48,49
 725 314 725 314 737 315 c 1,50,51
 743 365 743 365 743 480 c 0,52,53
 743 511 743 511 724 522 c 0,54,55
 716 527 716 527 716 540 c 0,56,57
 716 549 716 549 735 549 c 0,58,59
 762 549 762 549 801 526 c 1,60,61
 827 516 827 516 827 501 c 0,62,63
 827 494 827 494 822 484 c 1,64,65
 809 473 809 473 808 456 c 0,66,67
 787 256 787 256 779 219 c 0,68,69
 772 189 772 189 764 177 c 1,70,71
 753 165 753 165 743 165 c 256,72,73
 733 165 733 165 725 184 c 1,74,75
 716 194 716 194 716 217 c 1,76,-1
 719 229 l 1,77,78
 728 260 728 260 732 283 c 1,79,80
 726 281 726 281 720 280 c 0,81,82
 615 263 615 263 542 249 c 1,83,-1
 535 248 l 1,84,85
 503 92 503 92 439 7 c 0,86,87
 330 -136 330 -136 269 -136 c 0,88,89
 264 -136 264 -136 264 -134 c 0,90,91
 264 -128 264 -128 277 -118 c 0,92,93
 364 -50 364 -50 423 74 c 0,94,95
 451 134 451 134 467 232 c 1,0,1
EndSplineSet
Validated: 33
EndChar

StartChar: uni65E5
Encoding: 26085 26085 14
Width: 1024
GlyphClass: 2
Flags: W
LayerCount: 2
Fore
SplineSet
630 637 m 1,0,1
 630 637 630 637 631 637 c 0,2,3
 653 637 653 637 700 611 c 1,4,5
 748 586 748 586 748 566 c 0,6,7
 748 565 748 565 745 555 c 1,8,9
 725 438 725 438 725 422 c 2,10,-1
 725 258 l 2,11,12
 725 230 725 230 730 184 c 0,13,14
 735 134 735 134 736 97 c 0,15,16
 736 96 736 96 736 94 c 0,17,18
 736 27 736 27 710 -31 c 0,19,20
 683 -89 683 -89 663 -89 c 0,21,22
 658 -89 658 -89 637 -25 c 0,23,24
 610 58 610 58 573 58 c 0,25,26
 569 58 569 58 566 57 c 0,27,28
 406 36 406 36 379 36 c 0,29,30
 365 36 365 36 341 38 c 1,31,32
 341 35 341 35 341 32 c 0,33,34
 341 -42 341 -42 313 -42 c 0,35,36
 303 -42 303 -42 288 -5 c 0,37,38
 272 32 272 32 272 60 c 0,39,40
 272 67 272 67 273 74 c 0,41,42
 297 167 297 167 297 239 c 2,43,-1
 297 365 l 2,44,45
 297 518 297 518 261 568 c 0,46,47
 259 571 259 571 259 573 c 0,48,49
 259 583 259 583 272 583 c 0,50,51
 278 583 278 583 303 577 c 0,52,53
 338 570 338 570 361 570 c 0,54,55
 471 570 471 570 589 623 c 0,56,57
 618 636 618 636 630 637 c 1,0,1
345 528 m 1,58,59
 350 475 350 475 350 369 c 0,60,61
 350 339 350 339 349 320 c 1,62,63
 436 332 436 332 502 356 c 0,64,65
 521 363 521 363 531 363 c 0,66,67
 553 363 553 363 577 351 c 0,68,69
 600 339 600 339 600 326 c 0,70,71
 600 314 600 314 531 306 c 0,72,73
 524 305 524 305 511 303 c 0,74,75
 414 292 414 292 404 291 c 0,76,77
 380 289 380 289 370 289 c 0,78,79
 356 289 356 289 348 292 c 1,80,81
 348 138 348 138 342 68 c 1,82,83
 370 74 370 74 440 86 c 0,84,85
 512 98 512 98 550 105 c 0,86,87
 555 106 555 106 560 106 c 0,88,89
 612 106 612 106 647 56 c 1,90,91
 665 80 665 80 665 263 c 2,92,-1
 665 388 l 2,93,94
 665 475 665 475 655 520 c 0,95,96
 646 565 646 565 612 565 c 0,97,98
 581 565 581 565 458 542 c 1,99,100
 370 527 370 527 352 527 c 0,101,102
 347 527 347 527 345 528 c 1,58,59
EndSplineSet
Validated: 1
EndChar

StartChar: uni66F0
Encoding: 26352 26352 15
Width: 1024
GlyphClass: 2
Flags: W
LayerCount: 2
Fore
SplineSet
719 594 m 0,0,1
 741 594 741 594 799 562 c 0,2,3
 856 530 856 530 856 514 c 0,4,5
 856 510 856 510 847 493 c 0,6,7
 816 438 816 438 810 306 c 0,8,9
 801 76 801 76 765 6 c 256,10,11
 729 -64 729 -64 697 -64 c 0,12,13
 682 -64 682 -64 672 -7 c 0,14,15
 654 89 654 89 602 89 c 0,16,17
 528 89 528 89 404 67 c 0,18,19
 344 57 344 57 326 57 c 0,20,21
 315 57 315 57 309 59 c 1,22,-1
 309 43 l 2,23,24
 309 -11 309 -11 292 -11 c 1,25,26
 245 -8 245 -8 245 139 c 0,27,28
 245 148 245 148 246 158 c 0,29,30
 247 184 247 184 247 206 c 0,31,32
 247 425 247 425 196 497 c 0,33,34
 188 509 188 509 188 512 c 0,35,36
 188 527 188 527 201 527 c 0,37,38
 207 527 207 527 230 524 c 0,39,40
 270 519 270 519 309 519 c 0,41,42
 349 519 349 519 474 538 c 0,43,44
 599 558 599 558 685 584 c 1,45,46
 713 594 713 594 719 594 c 0,0,1
309 89 m 1,48,49
 324 91 324 91 389 103 c 0,50,51
 587 138 587 138 605 138 c 0,52,53
 655 138 655 138 698 85 c 1,54,55
 734 103 734 103 749 424 c 1,56,-1
 749 440 l 2,57,58
 749 520 749 520 693 520 c 0,59,60
 643 520 643 520 408 490 c 0,61,62
 304 477 304 477 271 476 c 1,63,64
 291 425 291 425 300 316 c 128,-1,47
 309 207 309 207 309 89 c 1,48,49
663 310 m 0,65,66
 614 301 614 301 570 295 c 128,-1,67
 526 289 526 289 471 283 c 0,68,69
 444 280 444 280 420 280 c 2,70,-1
 409 280 l 1,71,72
 389 281 389 281 362 285 c 1,73,74
 340 290 340 290 340 298 c 2,75,-1
 340 300 l 1,76,77
 343 309 343 309 367 311 c 0,78,79
 401 314 401 314 439.5 321 c 128,-1,80
 478 328 478 328 529 340 c 0,81,82
 589 354 589 354 618 357 c 0,83,84
 630 358 630 358 641 358 c 0,85,86
 655 358 655 358 667 356 c 0,87,88
 679 353 679 353 686 346.5 c 128,-1,89
 693 340 693 340 693 333 c 0,90,91
 693 325 693 325 686 319 c 128,-1,92
 679 313 679 313 663 310 c 0,65,66
EndSplineSet
Validated: 1
EndChar

StartChar: uni6708
Encoding: 26376 26376 16
Width: 1024
GlyphClass: 2
Flags: W
LayerCount: 2
Fore
SplineSet
649 709 m 1,0,1
 665 709 665 709 707 686 c 0,2,3
 749 662 749 662 749 649 c 0,4,5
 749 643 749 643 742 631 c 1,6,7
 724 591 724 591 724 530 c 0,8,9
 724 525 724 525 724 520 c 2,10,-1
 727 394 l 1,11,12
 737 167 737 167 748 25 c 0,13,14
 748 19 748 19 748 13 c 0,15,16
 748 -41 748 -41 718 -94 c 0,17,18
 688 -148 688 -148 669 -148 c 0,19,20
 662 -148 662 -148 647 -120 c 1,21,22
 608 -40 608 -40 527 13 c 0,23,24
 515 21 515 21 515 25 c 0,25,26
 515 28 515 28 521 28 c 0,27,28
 525 28 525 28 551 22 c 0,29,30
 627 6 627 6 645 6 c 0,31,32
 673 6 673 6 673 107 c 1,33,-1
 668 380 l 2,34,35
 667 468 667 468 656 551 c 0,36,37
 646 634 646 634 614 634 c 0,38,39
 611 634 611 634 594 632 c 0,40,41
 432 614 432 614 401 614 c 0,42,43
 397 614 397 614 395 615 c 1,44,45
 400 584 400 584 400 482 c 0,46,47
 400 454 400 454 399 445 c 1,48,49
 401 445 401 445 407 445 c 0,50,51
 466 445 466 445 528 470 c 0,52,53
 549 478 549 478 557 478 c 0,54,55
 574 478 574 478 596 465 c 1,56,57
 617 451 617 451 617 437 c 0,58,59
 617 411 617 411 417 411 c 0,60,61
 401 411 401 411 396 412 c 1,62,63
 396 355 396 355 386 267 c 1,64,65
 457 269 457 269 526 295 c 0,66,67
 557 306 557 306 566 306 c 0,68,69
 582 306 582 306 603 293 c 0,70,71
 625 279 625 279 625 265 c 0,72,73
 625 247 625 247 451 233 c 0,74,75
 446 233 446 233 444 233 c 0,76,77
 426 231 426 231 411 231 c 0,78,79
 387 231 387 231 380 235 c 1,80,81
 346 75 346 75 253 -40 c 256,82,83
 160 -155 160 -155 97 -155 c 0,84,85
 94 -155 94 -155 94 -154 c 0,86,87
 94 -149 94 -149 114 -133 c 0,88,89
 338 50 338 50 338 434 c 0,90,91
 338 458 338 458 337 502 c 0,92,93
 337 507 337 507 337 509 c 0,94,95
 336 593 336 593 303 652 c 0,96,97
 301 655 301 655 301 658 c 0,98,99
 301 668 301 668 314 668 c 0,100,101
 317 668 317 668 347 662 c 0,102,103
 403 652 403 652 414 652 c 0,104,105
 506 652 506 652 612 698 c 0,106,107
 642 711 642 711 649 709 c 1,0,1
EndSplineSet
Validated: 33
EndChar

StartChar: uni5182
Encoding: 20866 20866 17
Width: 1024
GlyphClass: 2
Flags: W
LayerCount: 2
Fore
SplineSet
737 659 m 0,0,1
 762 669 762 669 766 669 c 0,2,3
 777 669 777 669 824 637 c 0,4,5
 871 604 871 604 871 588 c 0,6,7
 871 586 871 586 864 574 c 0,8,9
 841 535 841 535 841 499 c 0,10,11
 841 494 841 494 842 490 c 0,12,13
 845 441 845 441 848 327 c 0,14,15
 852 176 852 176 858 112 c 0,16,17
 860 88 860 88 860 67 c 0,18,19
 860 -7 860 -7 829 -64 c 0,20,21
 799 -120 799 -120 774 -120 c 0,22,23
 766 -120 766 -120 748 -86 c 1,24,25
 717 -33 717 -33 638 12 c 0,26,27
 630 16 630 16 630 21 c 256,28,29
 630 26 630 26 639 26 c 0,30,31
 641 26 641 26 643 26 c 0,32,33
 719 17 719 17 751 17 c 0,34,35
 785 17 785 17 785 126 c 2,36,-1
 785 217 l 2,37,38
 785 392 785 392 777 505 c 0,39,40
 770 595 770 595 726 595 c 0,41,42
 712 595 712 595 620 583 c 1,43,44
 409 559 409 559 263 558 c 1,45,46
 256 547 256 547 256 515 c 2,47,-1
 256 233 l 2,48,49
 256 118 256 118 241 15 c 1,50,51
 225 -87 225 -87 202 -87 c 0,52,53
 190 -87 190 -87 176 -59 c 0,54,55
 162 -30 162 -30 162 -8 c 0,56,57
 162 -4 162 -4 163 -1 c 0,58,59
 202 155 202 155 202 254 c 2,60,-1
 202 446 l 2,61,62
 202 521 202 521 183 577 c 0,63,64
 179 591 179 591 179 594 c 0,65,66
 179 606 179 606 193 606 c 0,67,68
 196 606 196 606 198 605 c 0,69,70
 236 591 236 591 261 591 c 1,71,72
 616 607 616 607 737 659 c 0,0,1
EndSplineSet
Validated: 1
EndChar

StartChar: uni5196
Encoding: 20886 20886 18
Width: 1024
GlyphClass: 2
Flags: W
LayerCount: 2
Fore
SplineSet
766 585 m 1,0,1
 789 585 789 585 855 537 c 0,2,3
 920 489 920 489 920 468 c 0,4,5
 920 460 920 460 893 455 c 0,6,7
 831 445 831 445 701 336 c 1,8,9
 693 331 693 331 690 331 c 0,10,11
 686 331 686 331 686 334 c 0,12,13
 686 338 686 338 692 348 c 0,14,15
 766 478 766 478 766 499 c 0,16,17
 766 515 766 515 721 515 c 0,18,19
 714 515 714 515 709 515 c 0,20,21
 273 471 273 471 271 471 c 256,22,23
 269 471 269 471 269 471 c 2,24,25
 254 471 254 471 232 482 c 1,26,27
 232 481 232 481 232 479 c 0,28,29
 232 433 232 433 201 374 c 1,30,31
 171 314 171 314 133 314 c 0,32,33
 132 314 132 314 132 314 c 2,34,35
 109 314 109 314 109 365 c 1,36,37
 110 388 110 388 146 441 c 0,38,39
 175 483 175 483 191 538 c 0,40,41
 198 560 198 560 203 560 c 0,42,43
 232 560 232 560 235 507 c 1,44,45
 264 507 264 507 483 529 c 1,46,47
 663 552 663 552 736 576 c 0,48,49
 757 583 757 583 766 585 c 1,0,1
EndSplineSet
Validated: 1
EndChar

StartChar: uni91D1
Encoding: 37329 37329 19
Width: 1024
GlyphClass: 2
Flags: W
LayerCount: 2
Fore
SplineSet
544 706 m 0,0,1
 544 700 544 700 534 690 c 0,2,3
 522 679 522 679 518 670 c 1,4,5
 518 647 518 647 647 529 c 256,6,7
 776 411 776 411 958 368 c 0,8,9
 989 361 989 361 989 355 c 0,10,11
 989 348 989 348 905 335 c 0,12,13
 821 321 821 321 799 321 c 0,14,15
 760 321 760 321 708 380 c 1,16,17
 655 438 655 438 539 595 c 0,18,19
 510 634 510 634 503 643 c 1,20,21
 492 607 492 607 391 489 c 0,22,23
 291 371 291 371 182 298 c 1,24,25
 74 224 74 224 39 224 c 0,26,27
 36 224 36 224 36 226 c 0,28,29
 36 229 36 229 52 240 c 0,30,31
 189 331 189 331 316 484 c 0,32,33
 443 638 443 638 443 721 c 0,34,35
 443 727 443 727 443 738 c 1,36,37
 442 745 442 745 442 748 c 0,38,39
 442 763 442 763 452 763 c 0,40,41
 466 763 466 763 506 741 c 0,42,43
 546 720 546 720 544 706 c 0,0,1
579 431 m 1,44,45
 601 431 601 431 630 416 c 1,46,47
 658 400 658 400 658 386 c 0,48,49
 658 375 658 375 610 374 c 1,50,51
 531 370 531 370 475 359 c 1,52,53
 480 357 480 357 492 354 c 0,54,55
 523 345 523 345 523 325 c 0,56,57
 523 318 523 318 520 308 c 0,58,59
 509 263 509 263 508 249 c 1,60,61
 541 255 541 255 581 266 c 0,62,63
 618 276 618 276 640 276 c 256,64,65
 662 276 662 276 690 259 c 0,66,67
 719 241 719 241 719 227 c 0,68,69
 719 216 719 216 689 216 c 0,70,71
 683 216 683 216 667 216 c 0,72,73
 646 217 646 217 635 217 c 0,74,75
 570 217 570 217 507 206 c 1,76,-1
 507 -31 l 1,77,78
 598 -23 598 -23 691 -5 c 1,79,80
 740 3 740 3 759 3 c 0,81,82
 798 3 798 3 836 -20 c 0,83,84
 873 -42 873 -42 873 -62 c 0,85,86
 873 -74 873 -74 848 -74 c 0,87,88
 836 -74 836 -74 802 -72 c 0,89,90
 721 -66 721 -66 662 -66 c 0,91,92
 437 -66 437 -66 187 -114 c 0,93,94
 186 -114 186 -114 185 -114 c 0,95,96
 173 -114 173 -114 153 -94 c 1,97,98
 132 -75 132 -75 132 -64 c 0,99,100
 132 -59 132 -59 139 -59 c 0,101,102
 142 -59 142 -59 146 -59 c 0,103,104
 278 -59 278 -59 453 -36 c 1,105,-1
 452 198 l 1,106,107
 406 191 406 191 318 169 c 0,108,109
 316 168 316 168 314 168 c 0,110,111
 301 168 301 168 283 186 c 0,112,113
 264 205 264 205 264 215 c 0,114,115
 264 218 264 218 267 218 c 0,116,117
 358 221 358 221 453 238 c 1,118,119
 451 334 451 334 441 351 c 1,120,121
 433 350 433 350 412 345 c 0,122,123
 383 338 383 338 376 338 c 0,124,125
 361 338 361 338 341 355 c 0,126,127
 321 373 321 373 321 381 c 0,128,129
 321 384 321 384 324 384 c 0,130,131
 462 394 462 394 543 422 c 0,132,133
 565 430 565 430 579 431 c 1,44,45
753 115 m 0,134,135
 753 110 753 110 727 100 c 0,136,137
 691 86 691 86 633 55 c 0,138,139
 562 18 562 18 555 18 c 0,140,141
 554 18 554 18 554 19 c 0,142,143
 554 21 554 21 563 30 c 0,144,145
 652 113 652 113 658 157 c 0,146,147
 659 167 659 167 667 167 c 0,148,149
 684 167 684 167 718 148 c 0,150,151
 752 130 752 130 753 115 c 0,134,135
352 11 m 0,152,153
 334 11 334 11 269 128 c 1,154,155
 271 128 271 128 274 128 c 0,156,157
 311 128 311 128 345 106 c 0,158,159
 379 85 379 85 379 53 c 0,160,161
 379 11 379 11 352 11 c 0,152,153
EndSplineSet
Validated: 33
EndChar

StartChar: uni516B
Encoding: 20843 20843 21
Width: 1024
GlyphClass: 2
Flags: W
LayerCount: 2
Fore
SplineSet
609 509 m 0,0,1
 731 210 731 210 786 132 c 256,2,3
 841 54 841 54 955 9 c 0,4,5
 979 0 979 0 979 -6 c 0,6,7
 979 -21 979 -21 884 -21 c 2,8,-1
 872 -21 l 1,9,10
 791 -20 791 -20 767 -5 c 1,11,12
 742 9 742 9 708 82 c 1,13,14
 668 175 668 175 625 304 c 0,15,16
 590 410 590 410 552 491 c 1,17,18
 516 582 516 582 471 609 c 1,19,20
 449 616 449 616 449 631 c 2,21,-1
 449 632 l 2,22,23
 449 651 449 651 479 651 c 0,24,25
 551 651 551 651 609 509 c 0,0,1
394 511 m 0,26,27
 394 500 394 500 383 483 c 1,28,29
 365 439 365 439 328 342 c 1,30,31
 272 180 272 180 212 99 c 1,32,33
 154 18 154 18 54 -49 c 0,34,35
 53 -50 53 -50 52 -50 c 0,36,37
 46 -56 46 -56 42 -56 c 256,38,39
 38 -56 38 -56 38 -52 c 0,40,41
 38 -47 38 -47 46 -40 c 1,42,43
 180 110 180 110 237 265 c 0,44,45
 293 419 293 419 293 527 c 0,46,47
 293 567 293 567 302 567 c 0,48,49
 318 567 318 567 352 548 c 1,50,51
 395 528 395 528 394 511 c 0,26,27
EndSplineSet
Validated: 33
EndChar

StartChar: uni4E37
Encoding: 20023 20023 22
Width: 1024
GlyphClass: 2
Flags: W
LayerCount: 2
Fore
SplineSet
741 600 m 0,0,1
 760 600 760 600 787 590 c 1,2,3
 832 566 832 566 832 549 c 0,4,5
 832 543 832 543 818 536 c 0,6,7
 795 525 795 525 752 447 c 1,8,9
 693 344 693 344 612 281 c 1,10,11
 558 242 558 242 546 242 c 0,12,13
 541 242 541 242 541 246 c 1,14,15
 625 352 625 352 678 467 c 1,16,17
 720 555 720 555 720 583 c 0,18,19
 720 600 720 600 741 600 c 0,0,1
203 536 m 0,20,21
 222 536 222 536 279 492 c 1,22,23
 387 411 387 411 387 345 c 0,24,25
 387 308 387 308 359 308 c 0,26,27
 311 308 311 308 228 464 c 0,28,29
 197 523 197 523 197 531 c 0,30,31
 197 536 197 536 203 536 c 0,20,21
EndSplineSet
Validated: 1
EndChar

StartChar: uni6728
Encoding: 26408 26408 23
Width: 1024
GlyphClass: 2
Flags: W
LayerCount: 2
Fore
SplineSet
501 720 m 0,0,1
 501 718 501 718 501 717 c 0,2,3
 487 659 487 659 485 484 c 1,4,5
 563 494 563 494 656 520 c 0,6,7
 702 532 702 532 715 532 c 0,8,9
 741 532 741 532 778 513 c 0,10,11
 815 493 815 493 815 473 c 0,12,13
 815 460 815 460 764 460 c 0,14,15
 758 460 758 460 742 460 c 256,16,17
 726 460 726 460 718 460 c 0,18,19
 697 460 697 460 682 459 c 256,20,21
 667 458 667 458 634 455 c 0,22,23
 490 446 490 446 485 445 c 1,24,25
 508 404 508 404 599 304 c 256,26,27
 690 204 690 204 757 157 c 0,28,29
 823 111 823 111 965 63 c 0,30,31
 981 57 981 57 981 53 c 0,32,33
 981 37 981 37 802 37 c 1,34,35
 751 38 751 38 718 75 c 0,36,37
 685 111 685 111 593 238 c 256,38,39
 501 365 501 365 482 401 c 1,40,41
 482 389 482 389 484 290 c 0,42,43
 486 157 486 157 490 89 c 0,44,45
 495 15 495 15 495 -40 c 0,46,47
 495 -82 495 -82 484 -124 c 0,48,49
 474 -166 474 -166 462 -166 c 0,50,51
 452 -166 452 -166 439 -127 c 0,52,53
 427 -88 427 -88 427 -54 c 0,54,55
 427 -49 427 -49 427 -45 c 0,56,57
 435 66 435 66 435 134 c 2,58,-1
 435 406 l 1,59,60
 402 303 402 303 328 204 c 0,61,62
 253 104 253 104 158 37 c 0,63,64
 62 -31 62 -31 31 -31 c 0,65,66
 27 -31 27 -31 27 -28 c 0,67,68
 27 -22 27 -22 43 -11 c 0,69,70
 290 143 290 143 384 435 c 1,71,72
 211 406 211 406 172 397 c 0,73,74
 171 397 171 397 170 397 c 0,75,76
 158 397 158 397 135 418 c 0,77,78
 113 438 113 438 113 448 c 0,79,80
 113 453 113 453 120 453 c 0,81,82
 201 453 201 453 304 465 c 0,83,84
 324 467 324 467 361 471 c 0,85,86
 421 476 421 476 431 479 c 1,87,88
 426 702 426 702 387 746 c 0,89,90
 383 750 383 750 383 757 c 0,91,92
 383 769 383 769 396 769 c 0,93,94
 420 769 420 769 460 753 c 0,95,96
 500 738 500 738 501 720 c 0,0,1
EndSplineSet
Validated: 1
EndChar

StartChar: uni6C34
Encoding: 27700 27700 24
Width: 1024
GlyphClass: 2
Flags: W
LayerCount: 2
Fore
SplineSet
518 682 m 0,0,1
 518 677 518 677 514 662 c 0,2,3
 500 607 500 607 497 467 c 0,4,5
 497 437 497 437 496 429 c 1,6,7
 535 378 535 378 540 373 c 1,8,9
 573 392 573 392 629 460 c 0,10,11
 684 527 684 527 684 570 c 0,12,13
 684 576 684 576 683 588 c 0,14,15
 682 595 682 595 682 598 c 0,16,17
 682 611 682 611 692 611 c 0,18,19
 708 611 708 611 755 581 c 0,20,21
 802 552 802 552 802 539 c 0,22,23
 802 530 802 530 780 518 c 0,24,25
 761 507 761 507 750 497 c 1,26,27
 626 401 626 401 551 359 c 1,28,29
 666 229 666 229 751 165 c 0,30,31
 836 100 836 100 952 80 c 0,32,33
 980 75 980 75 980 67 c 256,34,35
 980 59 980 59 911 48 c 0,36,37
 843 37 843 37 809 37 c 0,38,39
 759 37 759 37 638 190 c 0,40,41
 517 344 517 344 495 383 c 1,42,43
 497 349 497 349 497 279 c 0,44,45
 498 205 498 205 503 130 c 0,46,47
 508 39 508 39 508 -13 c 0,48,49
 508 -57 508 -57 478 -100 c 0,50,51
 449 -143 449 -143 428 -143 c 0,52,53
 422 -143 422 -143 412 -119 c 1,54,55
 386 -63 386 -63 311 -15 c 1,56,57
 298 -5 298 -5 298 -1 c 0,58,59
 298 2 298 2 305 2 c 256,60,61
 312 2 312 2 350 -4 c 1,62,63
 403 -14 403 -14 419 -14 c 0,64,65
 444 -14 444 -14 444 139 c 2,66,-1
 445 475 l 2,67,68
 445 611 445 611 438 646 c 256,69,70
 431 681 431 681 406 727 c 0,71,72
 403 731 403 731 403 734 c 0,73,74
 403 745 403 745 417 745 c 0,75,76
 436 745 436 745 477 723 c 0,77,78
 518 700 518 700 518 682 c 0,0,1
319 477 m 0,79,80
 331 477 331 477 365 454 c 0,81,82
 398 432 398 432 398 422 c 0,83,84
 398 413 398 413 384 402 c 0,85,86
 364 385 364 385 358 369 c 0,87,88
 295 188 295 188 245 128 c 0,89,90
 195 67 195 67 130 23 c 0,91,92
 66 -21 66 -21 44 -21 c 0,93,94
 41 -21 41 -21 41 -19 c 0,95,96
 41 -15 41 -15 52 -5 c 1,97,98
 166 85 166 85 221 176 c 256,99,100
 276 267 276 267 293 412 c 1,101,102
 198 384 198 384 141 364 c 0,103,104
 139 363 139 363 136 363 c 0,105,106
 121 363 121 363 100 380 c 0,107,108
 80 396 80 396 80 406 c 0,109,110
 80 410 80 410 85 410 c 0,111,112
 223 417 223 417 288 462 c 0,113,114
 310 477 310 477 319 477 c 0,79,80
EndSplineSet
Validated: 1
EndChar

StartChar: uni6C35
Encoding: 27701 27701 25
Width: 1024
GlyphClass: 2
Flags: W
LayerCount: 2
Fore
SplineSet
428 692 m 0,0,1
 444 692 444 692 465 685 c 0,2,3
 518 666 518 666 545 641 c 1,4,5
 568 617 568 617 568 572 c 0,6,7
 568 559 568 559 558 545 c 1,8,9
 546 532 546 532 535 532 c 0,10,11
 521 532 521 532 507 550 c 1,12,13
 478 578 478 578 427 671 c 1,14,15
 419 680 419 680 419 685 c 1,16,17
 421 692 421 692 428 692 c 0,0,1
651 459 m 1,18,19
 655 456 655 456 655 448 c 0,20,21
 655 433 655 433 634 394 c 0,22,23
 507 162 507 162 476 98 c 1,24,25
 461 61 461 61 447 18 c 0,26,27
 426 -48 426 -48 395 -48 c 0,28,29
 382 -48 382 -48 360 -2 c 1,30,31
 340 36 340 36 340 57 c 0,32,33
 340 76 340 76 347 83 c 1,34,35
 401 114 401 114 427 144 c 1,36,37
 484 204 484 204 647 454 c 1,38,39
 648 458 648 458 651 459 c 1,18,19
287 478 m 0,40,41
 303 478 303 478 324 472 c 1,42,43
 377 454 377 454 404 431 c 1,44,45
 427 409 427 409 427 368 c 0,46,47
 427 356 427 356 417 343 c 1,48,49
 405 331 405 331 394 331 c 0,50,51
 380 331 380 331 366 348 c 1,52,53
 337 373 337 373 286 459 c 1,54,55
 278 467 278 467 278 472 c 1,56,57
 280 478 280 478 287 478 c 0,40,41
EndSplineSet
Validated: 1
EndChar

StartChar: uni6C3A
Encoding: 27706 27706 26
Width: 1024
GlyphClass: 2
Flags: W
LayerCount: 2
Fore
SplineSet
537 461 m 2,0,1
 537 389 537 389 538 298 c 0,2,3
 539 160 539 160 542 106 c 1,4,5
 549 22 549 22 549 -4 c 0,6,7
 549 -57 549 -57 532 -107 c 1,8,9
 515 -149 515 -149 487 -149 c 0,10,11
 477 -149 477 -149 467 -134 c 0,12,13
 405 -50 405 -50 383 -33 c 0,14,15
 374 -26 374 -26 373 -20 c 1,16,17
 373 -12 373 -12 377 -12 c 0,18,19
 388 -12 388 -12 428 -27 c 1,20,21
 463 -36 463 -36 463 -39 c 1,22,23
 483 -36 483 -36 483 4 c 2,24,-1
 483 601 l 2,25,26
 483 679 483 679 457 715 c 0,27,28
 447 729 447 729 447 734 c 0,29,30
 447 746 447 746 459 746 c 0,31,32
 482 746 482 746 515 726 c 0,33,34
 557 701 557 701 557 679 c 1,35,36
 555 675 555 675 549 649 c 1,37,38
 537 605 537 605 537 548 c 2,39,-1
 537 461 l 2,0,1
425 311 m 0,40,41
 433 311 433 311 433 303 c 256,42,43
 433 295 433 295 407 269 c 0,44,45
 258 118 258 118 217 64 c 1,46,47
 198 35 198 35 187 35 c 0,48,49
 173 35 173 35 136 76 c 1,50,51
 109 108 109 108 109 119 c 0,52,53
 109 129 109 129 136 133 c 1,54,55
 177 144 177 144 270 205 c 1,56,57
 420 311 420 311 425 311 c 0,40,41
174 534 m 0,58,59
 182 534 182 534 201 529 c 0,60,61
 239 517 239 517 276 500 c 1,62,63
 324 476 324 476 339 456 c 1,64,65
 351 437 351 437 351 416 c 0,66,67
 351 401 351 401 343 384 c 1,68,69
 334 369 334 369 321 369 c 0,70,71
 315 369 315 369 301 378 c 0,72,73
 281 392 281 392 249 435 c 0,74,75
 208 490 208 490 186 509 c 0,76,77
 169 523 169 523 169 530 c 0,78,79
 169 534 169 534 174 534 c 0,58,59
764 582 m 0,80,81
 780 582 780 582 813 565 c 0,82,83
 862 541 862 541 862 524 c 0,84,85
 862 518 862 518 844 510 c 1,86,87
 805 486 805 486 757 450 c 1,88,89
 694 407 694 407 612 383 c 1,90,91
 601 383 601 383 596 391 c 1,92,93
 604 401 604 401 634 421 c 1,94,95
 684 460 684 460 724 508 c 1,96,97
 752 545 752 545 752 563 c 0,98,99
 752 570 752 570 755 576 c 0,100,101
 759 582 759 582 764 582 c 0,80,81
586 316 m 0,102,103
 645 303 645 303 724 272 c 1,104,105
 823 221 823 221 872 167 c 1,106,107
 922 122 922 122 922 74 c 0,108,109
 922 43 922 43 905 43 c 0,110,111
 845 43 845 43 768 123 c 1,112,113
 726 171 726 171 676 223 c 1,114,115
 582 309 582 309 582 312 c 0,116,117
 582 316 582 316 586 316 c 0,102,103
EndSplineSet
Validated: 1
EndChar

StartChar: uni53C8
Encoding: 21448 21448 27
Width: 1024
GlyphClass: 2
Flags: W
LayerCount: 2
Fore
SplineSet
583 676 m 1,0,1
 596 676 596 676 642 651 c 256,2,3
 688 626 688 626 688 614 c 0,4,5
 688 606 688 606 674 591 c 0,6,7
 640 553 640 553 624 499 c 1,8,9
 568 327 568 327 512 234 c 1,10,11
 594 135 594 135 668 81 c 1,12,13
 741 26 741 26 910 -18 c 0,14,15
 933 -24 933 -24 933 -30 c 0,16,17
 933 -51 933 -51 730 -51 c 0,18,19
 673 -51 673 -51 545 113 c 0,20,21
 497 175 497 175 479 193 c 1,22,23
 382 87 382 87 252 29 c 0,24,25
 122 -28 122 -28 57 -28 c 0,26,27
 49 -28 49 -28 49 -25 c 0,28,29
 49 -21 49 -21 61 -16 c 0,30,31
 339 101 339 101 444 238 c 1,32,33
 328 400 328 400 237 419 c 0,34,35
 193 428 193 428 193 442 c 0,36,37
 193 463 193 463 251 463 c 0,38,39
 303 463 303 463 355 416 c 0,40,41
 408 368 408 368 473 282 c 1,42,43
 499 330 499 330 514 375 c 256,44,45
 529 420 529 420 570 614 c 1,46,47
 493 614 493 614 256 549 c 0,48,49
 254 548 254 548 251 548 c 0,50,51
 236 548 236 548 212 566 c 256,52,53
 188 584 188 584 188 596 c 0,54,55
 188 603 188 603 201 603 c 0,56,57
 398 603 398 603 560 673 c 0,58,59
 577 680 577 680 583 676 c 1,0,1
EndSplineSet
Validated: 1
EndChar

StartChar: uni706B
Encoding: 28779 28779 28
Width: 1024
GlyphClass: 2
Flags: W
LayerCount: 2
Fore
SplineSet
506 673 m 0,0,1
 506 670 506 670 506 668 c 0,2,3
 503 657 503 657 465 304 c 1,4,5
 486 261 486 261 624 123 c 1,6,7
 761 -16 761 -16 954 -78 c 0,8,9
 971 -84 971 -84 971 -89 c 0,10,11
 971 -105 971 -105 788 -105 c 0,12,13
 730 -105 730 -105 676 -34 c 0,14,15
 531 154 531 154 518 175 c 1,16,17
 506 192 506 192 482 221 c 1,18,19
 462 247 462 247 455 259 c 1,20,21
 437 147 437 147 380 62 c 256,22,23
 323 -23 323 -23 222 -68 c 0,24,25
 122 -113 122 -113 69 -113 c 0,26,27
 56 -113 56 -113 56 -110 c 0,28,29
 56 -106 56 -106 74 -100 c 0,30,31
 227 -44 227 -44 319 71 c 0,32,33
 412 187 412 187 417 441 c 1,34,-1
 419 598 l 2,35,36
 419 599 419 599 419 601 c 0,37,38
 419 646 419 646 392 705 c 0,39,40
 385 722 385 722 385 725 c 0,41,42
 385 735 385 735 399 735 c 0,43,44
 422 735 422 735 464 715 c 0,45,46
 506 694 506 694 506 673 c 0,0,1
719 555 m 0,47,48
 734 555 734 555 773 517 c 256,49,50
 812 479 812 479 812 466 c 0,51,52
 812 459 812 459 775 443 c 1,53,54
 749 433 749 433 736 426 c 0,55,56
 575 344 575 344 550 344 c 0,57,58
 547 344 547 344 547 345 c 0,59,60
 547 350 547 350 583 381 c 0,61,62
 696 480 696 480 707 536 c 0,63,64
 711 555 711 555 719 555 c 0,47,48
157 252 m 0,65,66
 134 252 134 252 134 304 c 0,67,68
 134 339 134 339 157 366 c 0,69,70
 203 418 203 418 222 493 c 0,71,72
 228 513 228 513 233 525 c 1,73,74
 260 494 260 494 260 465 c 0,75,76
 260 412 260 412 227 332 c 0,77,78
 193 252 193 252 157 252 c 0,65,66
EndSplineSet
Validated: 1
EndChar

StartChar: uni706C
Encoding: 28780 28780 29
Width: 1024
GlyphClass: 2
Flags: W
LayerCount: 2
Fore
SplineSet
214 83 m 0,0,1
 214 30 214 30 187 -31 c 1,2,3
 161 -93 161 -93 135 -93 c 1,4,5
 104 -91 104 -91 104 -28 c 0,6,7
 104 4 104 4 127 34 c 0,8,9
 158 75 158 75 184 130 c 0,10,11
 193 148 193 148 200 155 c 1,12,13
 214 125 214 125 214 83 c 0,0,1
720 147 m 1,14,15
 921 102 921 102 921 -13 c 0,16,17
 921 -61 921 -61 890 -61 c 0,18,19
 866 -61 866 -61 798 26 c 0,20,21
 798 27 798 27 798 27 c 1,22,23
 756 80 756 80 720 147 c 1,14,15
643 29 m 0,24,25
 643 -23 643 -23 611 -23 c 0,26,27
 587 -23 587 -23 555 32 c 256,28,29
 523 87 523 87 522 136 c 1,30,31
 559 129 559 129 601 98 c 0,32,33
 643 66 643 66 643 29 c 0,24,25
441 21 m 0,34,35
 441 18 441 18 441 16 c 0,36,37
 441 -34 441 -34 407 -34 c 1,38,39
 384 -33 384 -33 359 15 c 0,40,41
 335 63 335 63 335 126 c 1,42,43
 368 121 368 121 404 86 c 1,44,45
 441 52 441 52 441 21 c 0,34,35
EndSplineSet
Validated: 1
EndChar

StartChar: uni5C0F
Encoding: 23567 23567 30
Width: 1024
GlyphClass: 2
Flags: W
LayerCount: 2
Fore
SplineSet
552 648 m 0,0,1
 552 646 552 646 549 635 c 0,2,3
 536 578 536 578 536 526 c 2,4,-1
 536 345 l 2,5,6
 536 320 536 320 538 252 c 0,7,8
 540 151 540 151 540 100 c 0,9,10
 540 -14 540 -14 514 -64 c 256,11,12
 488 -114 488 -114 468 -114 c 0,13,14
 461 -114 461 -114 445 -83 c 0,15,16
 406 -8 406 -8 325 46 c 0,17,18
 315 52 315 52 315 56 c 256,19,20
 315 60 315 60 322 60 c 0,21,22
 326 60 326 60 331 58 c 0,23,24
 424 33 424 33 450 33 c 0,25,26
 481 33 481 33 481 188 c 2,27,-1
 481 430 l 2,28,29
 481 632 481 632 438 684 c 0,30,31
 431 693 431 693 431 699 c 0,32,33
 431 709 431 709 445 709 c 0,34,35
 467 709 467 709 509 688 c 0,36,37
 551 666 551 666 552 648 c 0,0,1
921 227 m 0,38,39
 921 179 921 179 887 179 c 0,40,41
 842 179 842 179 694 440 c 1,42,43
 921 365 921 365 921 227 c 0,38,39
144 126 m 0,44,45
 119 126 119 126 119 185 c 0,46,47
 119 225 119 225 144 255 c 1,48,49
 196 314 196 314 217 400 c 0,50,51
 223 422 223 422 229 436 c 1,52,53
 259 401 259 401 259 368 c 0,54,55
 259 308 259 308 222 217 c 256,56,57
 185 126 185 126 144 126 c 0,44,45
EndSplineSet
Validated: 1
EndChar

StartChar: uni571F
Encoding: 22303 22303 31
Width: 1024
GlyphClass: 2
Flags: W
LayerCount: 2
Fore
SplineSet
534 655 m 0,0,1
 534 649 534 649 527 630 c 1,2,3
 513 579 513 579 509 380 c 1,4,5
 597 392 597 392 667 412 c 0,6,7
 693 420 693 420 705 420 c 0,8,9
 732 420 732 420 767 401 c 0,10,11
 802 383 802 383 802 364 c 0,12,13
 802 350 802 350 749 350 c 0,14,15
 741 350 741 350 727 350 c 0,16,17
 710 350 710 350 699 350 c 0,18,19
 508 350 508 350 508 331 c 0,20,21
 507 62 507 62 506 25 c 1,22,23
 657 34 657 34 771 56 c 0,24,25
 805 63 805 63 817 63 c 0,26,27
 847 63 847 63 891 41 c 0,28,29
 935 18 935 18 935 -2 c 0,30,31
 935 -18 935 -18 910 -18 c 0,32,33
 901 -18 901 -18 873 -16 c 0,34,35
 799 -9 799 -9 731 -9 c 0,36,37
 434 -9 434 -9 123 -64 c 0,38,39
 122 -64 122 -64 121 -64 c 0,40,41
 105 -64 105 -64 81 -41 c 1,42,43
 56 -19 56 -19 56 -5 c 0,44,45
 56 0 56 0 63 0 c 0,46,47
 65 0 65 0 65 0 c 2,48,49
 81 0 81 0 100 0 c 0,50,51
 279 0 279 0 445 19 c 1,52,53
 449 102 449 102 449 326 c 1,54,55
 306 310 306 310 249 296 c 0,56,57
 247 296 247 296 245 296 c 0,58,59
 228 296 228 296 205 316 c 0,60,61
 181 337 181 337 181 348 c 0,62,63
 181 353 181 353 187 353 c 0,64,65
 188 353 188 353 188 353 c 2,66,67
 202 353 202 353 216 353 c 0,68,69
 344 353 344 353 451 370 c 1,70,71
 451 416 451 416 449 530 c 1,72,73
 449 646 449 646 417 687 c 0,74,75
 409 697 409 697 409 703 c 0,76,77
 409 714 409 714 422 714 c 0,78,79
 444 714 444 714 489 693 c 1,80,81
 535 673 535 673 534 655 c 0,0,1
EndSplineSet
Validated: 33
EndChar

StartChar: uni58EB
Encoding: 22763 22763 32
Width: 1024
GlyphClass: 2
Flags: W
LayerCount: 2
Fore
SplineSet
553 667 m 0,0,1
 553 666 553 666 553 665 c 0,2,3
 553 658 553 658 548 634 c 0,4,5
 534 569 534 569 529 364 c 1,6,7
 687 376 687 376 793 400 c 0,8,9
 821 407 821 407 833 407 c 0,10,11
 855 407 855 407 895 387 c 0,12,13
 935 366 935 366 935 348 c 0,14,15
 935 334 935 334 906 334 c 0,16,17
 899 334 899 334 879 335 c 0,18,19
 840 337 840 337 812 337 c 0,20,21
 769 337 769 337 647 331 c 1,22,23
 594 327 594 327 560 325 c 256,24,25
 526 323 526 323 526 316 c 256,26,27
 526 309 526 309 526 300 c 256,28,29
 526 291 526 291 526 280 c 0,30,31
 526 237 526 237 525 198 c 0,32,33
 524 58 524 58 524 33 c 1,34,35
 626 43 626 43 700 59 c 0,36,37
 727 64 727 64 738 64 c 0,38,39
 768 64 768 64 808 44 c 0,40,41
 848 23 848 23 848 3 c 0,42,43
 848 -14 848 -14 816 -14 c 0,44,45
 805 -14 805 -14 775 -11 c 0,46,47
 717 -7 717 -7 677 -7 c 0,48,49
 487 -7 487 -7 258 -48 c 0,50,51
 257 -48 257 -48 256 -48 c 0,52,53
 241 -48 241 -48 217 -27 c 1,54,55
 194 -5 194 -5 194 7 c 0,56,57
 194 12 194 12 201 12 c 0,58,59
 368 12 368 12 465 25 c 1,60,61
 468 274 468 274 468 317 c 1,62,63
 260 303 260 303 136 282 c 0,64,65
 135 282 135 282 133 282 c 0,66,67
 119 282 119 282 96 303 c 0,68,69
 74 323 74 323 74 335 c 0,70,71
 74 340 74 340 80 340 c 0,72,73
 87 339 87 339 96 339 c 0,74,75
 338 339 338 339 470 361 c 1,76,77
 470 406 470 406 468 545 c 0,78,79
 466 653 466 653 438 691 c 0,80,81
 431 700 431 700 431 709 c 0,82,83
 431 721 431 721 443 721 c 0,84,85
 467 721 467 721 510 702 c 0,86,87
 553 684 553 684 553 667 c 0,0,1
EndSplineSet
Validated: 1
EndChar

StartChar: uni7AF9
Encoding: 31481 31481 33
Width: 1024
GlyphClass: 2
Flags: W
LayerCount: 2
Fore
SplineSet
404 637 m 0,0,1
 404 632 404 632 401 626 c 0,2,3
 370 578 370 578 327 506 c 0,4,5
 260 395 260 395 245 371 c 1,6,7
 297 380 297 380 373 410 c 0,8,9
 416 428 416 428 429 429 c 0,10,11
 430 429 430 429 430 429 c 2,12,13
 453 429 453 429 482 413 c 1,14,15
 512 398 512 398 512 386 c 256,16,17
 512 374 512 374 465 370 c 1,18,19
 409 367 409 367 319 350 c 1,20,21
 324 346 324 346 333 340 c 0,22,23
 358 322 358 322 358 305 c 0,24,25
 358 302 358 302 358 299 c 0,26,27
 353 267 353 267 349 110 c 0,28,29
 345 -80 345 -80 302 -80 c 0,30,31
 279 -80 279 -80 279 -6 c 0,32,33
 279 9 279 9 282 22 c 0,34,35
 303 107 303 107 303 230 c 0,36,37
 303 325 303 325 286 346 c 1,38,39
 269 344 269 344 258 344 c 0,40,41
 245 344 245 344 227 348 c 1,42,43
 101 197 101 197 53 197 c 0,44,45
 50 197 50 197 50 199 c 0,46,47
 50 203 50 203 55 209 c 0,48,49
 156 310 156 310 231 455 c 0,50,51
 307 601 307 601 307 661 c 0,52,53
 307 665 307 665 302 685 c 0,54,55
 300 694 300 694 300 696 c 0,56,57
 300 704 300 704 310 704 c 0,58,59
 327 704 327 704 365 680 c 1,60,61
 402 655 402 655 404 637 c 0,0,1
662 386 m 1,62,63
 647 384 647 384 637 384 c 0,64,65
 621 384 621 384 604 390 c 1,66,67
 565 333 565 333 523 294 c 256,68,69
 481 255 481 255 470 255 c 0,70,71
 466 255 466 255 466 258 c 256,72,73
 466 261 466 261 469 264 c 0,74,75
 545 366 545 366 600 492 c 256,76,77
 655 618 655 618 655 683 c 0,78,79
 655 705 655 705 646 724 c 0,80,81
 642 731 642 731 642 735 c 0,82,83
 642 747 642 747 656 747 c 0,84,85
 671 747 671 747 716 725 c 0,86,87
 761 702 761 702 761 683 c 0,88,89
 761 679 761 679 759 675 c 0,90,91
 636 447 636 447 618 414 c 1,92,93
 680 427 680 427 768 460 c 0,94,95
 829 482 829 482 849 482 c 0,96,97
 878 482 878 482 914 464 c 0,98,99
 951 445 951 445 951 431 c 0,100,101
 951 414 951 414 893 414 c 0,102,103
 891 414 891 414 886 414 c 0,104,105
 880 414 880 414 877 414 c 0,106,107
 812 414 812 414 694 394 c 1,108,109
 766 359 766 359 766 342 c 0,110,111
 766 341 766 341 766 340 c 0,112,113
 754 297 754 297 754 119 c 0,114,115
 754 61 754 61 757 1 c 0,116,117
 757 -5 757 -5 757 -13 c 0,118,119
 757 -61 757 -61 744 -100 c 0,120,121
 732 -138 732 -138 720 -138 c 0,122,123
 711 -138 711 -138 695 -105 c 1,124,125
 680 -71 680 -71 680 -42 c 0,126,127
 680 -32 680 -32 682 -24 c 0,128,129
 701 48 701 48 701 164 c 0,130,131
 701 334 701 334 662 386 c 1,62,63
EndSplineSet
Validated: 1
EndChar

StartChar: uni6208
Encoding: 25096 25096 34
Width: 1024
GlyphClass: 2
Flags: W
LayerCount: 2
Fore
SplineSet
282 718 m 1,0,1
 310 718 310 718 345 706 c 0,2,3
 380 695 380 695 382 654 c 0,4,5
 386 588 386 588 429 445 c 1,6,7
 543 480 543 480 633 523 c 0,8,9
 666 539 666 539 680 539 c 0,10,11
 710 539 710 539 739 527 c 0,12,13
 769 515 769 515 769 497 c 0,14,15
 769 494 769 494 657 468 c 0,16,17
 608 456 608 456 441 406 c 1,18,19
 480 275 480 275 532 197 c 1,20,21
 634 309 634 309 634 379 c 0,22,23
 634 386 634 386 632 397 c 0,24,25
 631 404 631 404 631 407 c 0,26,27
 631 418 631 418 644 418 c 0,28,29
 659 418 659 418 697 391 c 256,30,31
 735 364 735 364 735 357 c 0,32,33
 735 351 735 351 717 330 c 0,34,35
 702 313 702 313 651 250 c 1,36,37
 567 149 567 149 564 146 c 1,38,39
 612 77 612 77 692 26 c 0,40,41
 772 -24 772 -24 810 -24 c 0,42,43
 828 -24 828 -24 863 153 c 0,44,45
 866 169 866 169 871 169 c 0,46,47
 879 169 879 169 881 104 c 0,48,49
 886 -16 886 -16 919 -68 c 0,50,51
 929 -84 929 -84 929 -92 c 0,52,53
 929 -114 929 -114 873 -114 c 0,54,55
 777 -114 777 -114 678 -47 c 0,56,57
 579 19 579 19 521 109 c 1,58,59
 444 40 444 40 316 -20 c 0,60,61
 188 -79 188 -79 148 -79 c 0,62,63
 138 -79 138 -79 138 -74 c 0,64,65
 138 -70 138 -70 147 -66 c 0,66,67
 406 46 406 46 494 155 c 1,68,69
 441 235 441 235 391 390 c 1,70,71
 381 387 381 387 359 380 c 0,72,73
 296 360 296 360 158 312 c 0,74,75
 156 312 156 312 154 312 c 0,76,77
 139 312 139 312 115 330 c 1,78,79
 90 347 90 347 90 356 c 0,80,81
 90 359 90 359 94 360 c 0,82,83
 300 401 300 401 379 431 c 1,84,85
 372 453 372 453 358 494 c 1,86,87
 310 650 310 650 270 690 c 0,88,89
 257 703 257 703 257 710 c 0,90,91
 257 720 257 720 282 718 c 1,0,1
603 700 m 1,92,93
 698 700 698 700 698 618 c 0,94,95
 698 591 698 591 679 591 c 0,96,97
 654 591 654 591 592 630 c 1,98,99
 529 668 529 668 517 691 c 1,100,101
 549 699 549 699 603 700 c 1,92,93
EndSplineSet
Validated: 1
EndChar

StartChar: uni4E36
Encoding: 20022 20022 35
Width: 1024
GlyphClass: 2
Flags: W
LayerCount: 2
Fore
SplineSet
331 413 m 0,0,1
 343 413 343 413 366 409 c 1,2,3
 471 375 471 375 537 334 c 1,4,5
 596 303 596 303 615 278 c 1,6,7
 632 240 632 240 632 214 c 0,8,9
 632 199 632 199 624 183 c 0,10,11
 618 170 618 170 605 170 c 0,12,13
 593 170 593 170 588 174 c 0,14,15
 567 188 567 188 530 221 c 1,16,17
 444 305 444 305 355 378 c 0,18,19
 327 400 327 400 327 410 c 0,20,21
 327 413 327 413 331 413 c 0,0,1
EndSplineSet
Validated: 1
EndChar

StartChar: uni5E7F
Encoding: 24191 24191 36
Width: 1024
GlyphClass: 2
Flags: W
LayerCount: 2
Fore
SplineSet
522 552 m 1,0,-1
 522 583 l 2,1,2
 522 598 522 598 519 634 c 256,3,4
 516 670 516 670 506 693 c 0,5,6
 496 715 496 715 486 736 c 1,7,8
 486 752 486 752 506 747 c 1,9,10
 526 747 526 747 565 729 c 1,11,12
 605 712 605 712 605 698 c 1,13,14
 598 678 598 678 591 645 c 0,15,16
 585 616 585 616 584 567 c 1,17,18
 643 582 643 582 710 604 c 0,19,20
 744 615 744 615 754 613 c 1,21,22
 778 613 778 613 812 596 c 0,23,24
 846 578 846 578 846 563 c 256,25,26
 846 548 846 548 774 545 c 0,27,28
 715 542 715 542 581 520 c 0,29,30
 417 492 417 492 369 492 c 0,31,32
 360 492 360 492 340 493 c 1,33,34
 332 333 332 333 296 202 c 0,35,36
 260 70 260 70 180 -33 c 256,37,38
 100 -136 100 -136 67 -136 c 0,39,40
 65 -136 65 -136 65 -134 c 0,41,42
 65 -131 65 -131 72 -122 c 0,43,44
 270 124 270 124 270 456 c 0,45,46
 270 506 270 506 254 545 c 0,47,48
 251 551 251 551 251 555 c 0,49,50
 251 560 251 560 258 560 c 0,51,52
 263 560 263 560 292 550 c 0,53,54
 326 538 326 538 349 532 c 1,55,-1
 353 532 l 2,56,57
 427 532 427 532 522 552 c 1,0,-1
EndSplineSet
Validated: 33
EndChar

StartChar: uni53B6
Encoding: 21430 21430 37
Width: 1024
GlyphClass: 2
Flags: W
LayerCount: 2
Fore
SplineSet
863 11 m 0,1,2
 846 11 846 11 816 42 c 1,3,4
 802 58 802 58 756 116 c 1,5,6
 273 32 273 32 220 8 c 1,7,8
 186 -9 186 -9 169 -9 c 0,9,10
 146 -9 146 -9 143 31 c 0,11,12
 142 40 142 40 142 55 c 0,13,14
 142 85 142 85 169 97 c 0,15,16
 218 117 218 117 297 221 c 0,17,18
 389 341 389 341 445 485 c 0,19,20
 470 550 470 550 470 583 c 0,21,22
 470 590 470 590 469 592 c 0,23,24
 466 605 466 605 466 613 c 0,25,26
 466 629 466 629 479 629 c 0,27,28
 495 629 495 629 526 611 c 0,29,30
 573 582 573 582 573 560 c 0,31,32
 573 546 573 546 556 527 c 0,33,34
 521 486 521 486 492 439 c 1,35,36
 401 280 401 280 233 77 c 1,37,38
 347 94 347 94 504 115 c 0,39,40
 649 134 649 134 734 144 c 1,41,42
 667 234 667 234 620 305 c 0,43,44
 607 323 607 323 607 332 c 0,45,46
 607 338 607 338 614 338 c 0,47,48
 626 338 626 338 653 323 c 1,49,50
 748 275 748 275 812 204 c 0,51,52
 870 140 870 140 879 87 c 1,53,0
 889 11 889 11 863 11 c 0,1,2
EndSplineSet
Validated: 33
EndChar

StartChar: uni5341
Encoding: 21313 21313 38
Width: 1024
GlyphClass: 2
Flags: W
LayerCount: 2
Fore
SplineSet
462 754 m 1,0,1
 485 754 485 754 527 735 c 256,2,3
 569 716 569 716 569 699 c 0,4,5
 569 695 569 695 565 674 c 0,6,7
 547 576 547 576 547 439 c 1,8,9
 695 458 695 458 791 484 c 0,10,11
 829 494 829 494 844 494 c 0,12,13
 870 494 870 494 910 473 c 0,14,15
 950 451 950 451 950 434 c 0,16,17
 950 418 950 418 890 418 c 0,18,19
 888 418 888 418 883 418 c 256,20,21
 878 418 878 418 874 418 c 0,22,23
 770 418 770 418 545 393 c 1,24,25
 545 205 545 205 540 110 c 0,26,27
 540 108 540 108 540 105 c 0,28,29
 526 -154 526 -154 506 -154 c 0,30,31
 482 -153 482 -153 482 111 c 0,32,33
 482 170 482 170 484 292 c 0,34,35
 485 363 485 363 485 384 c 1,36,37
 233 353 233 353 160 335 c 0,38,39
 159 334 159 334 157 334 c 0,40,41
 141 334 141 334 116 356 c 0,42,43
 90 379 90 379 90 391 c 0,44,45
 90 397 90 397 98 397 c 0,46,47
 271 399 271 399 484 428 c 1,48,49
 484 434 484 434 484 452 c 0,50,51
 484 478 484 478 484 491 c 0,52,53
 484 645 484 645 474 669 c 0,54,55
 472 676 472 676 465 691 c 256,56,57
 458 706 458 706 445 731 c 0,58,59
 443 736 443 736 443 740 c 0,60,61
 443 753 443 753 462 754 c 1,0,1
EndSplineSet
Validated: 1
EndChar

StartChar: uni5B80
Encoding: 23424 23424 39
Width: 1024
GlyphClass: 2
Flags: W
LayerCount: 2
Fore
SplineSet
480 526 m 1,0,-1
 480 557 l 2,1,2
 480 572 480 572 477 608 c 256,3,4
 474 644 474 644 464 667 c 0,5,6
 454 689 454 689 444 710 c 1,7,8
 444 726 444 726 464 721 c 1,9,10
 484 721 484 721 523 703 c 1,11,12
 563 686 563 686 563 672 c 1,13,14
 556 652 556 652 549 619 c 0,15,16
 542 588 542 588 542 535 c 1,17,18
 661 554 661 554 746 575 c 0,19,20
 774 582 774 582 783 582 c 0,21,22
 808 582 808 582 864 539 c 256,23,24
 920 496 920 496 920 471 c 0,25,26
 920 457 920 457 881 450 c 1,27,28
 843 433 843 433 699 338 c 0,29,30
 696 337 696 337 694 337 c 0,31,32
 690 337 690 337 690 341 c 0,33,34
 690 343 690 343 692 345 c 0,35,36
 780 495 780 495 780 508 c 0,37,38
 780 520 780 520 730 520 c 0,39,40
 661 520 661 520 262 468 c 0,41,42
 258 468 258 468 235 474 c 1,43,44
 224 415 224 415 195 362 c 0,45,46
 167 309 167 309 139 309 c 0,47,48
 112 309 112 309 112 358 c 0,49,50
 112 390 112 390 142 421 c 0,51,52
 174 455 174 455 196 522 c 0,53,54
 200 536 200 536 204 541 c 1,55,56
 224 537 224 537 237 497 c 1,57,58
 373 511 373 511 480 526 c 1,0,-1
EndSplineSet
Validated: 1
EndChar

StartChar: uni5927
Encoding: 22823 22823 40
Width: 1024
GlyphClass: 2
Flags: W
LayerCount: 2
Fore
SplineSet
514 674 m 0,0,1
 514 668 514 668 511 656 c 0,2,3
 500 613 500 613 497 550 c 0,4,5
 492 435 492 435 490 413 c 1,6,7
 626 432 626 432 716 456 c 1,8,9
 742 465 742 465 753 465 c 0,10,11
 779 465 779 465 816 445 c 0,12,13
 853 426 853 426 853 409 c 0,14,15
 853 393 853 393 792 393 c 0,16,17
 784 393 784 393 768 393 c 0,18,19
 751 393 751 393 741 393 c 0,20,21
 622 393 622 393 487 370 c 1,22,23
 486 363 486 363 485 348 c 0,24,25
 483 311 483 311 480 297 c 1,26,27
 535 216 535 216 654 95 c 0,28,29
 774 -26 774 -26 943 -61 c 0,30,31
 965 -66 965 -66 965 -72 c 0,32,33
 965 -94 965 -94 767 -94 c 0,34,35
 734 -94 734 -94 694 -49 c 256,36,37
 654 -4 654 -4 555 133 c 0,38,39
 494 217 494 217 471 248 c 1,40,41
 429 70 429 70 294 -18 c 256,42,43
 159 -106 159 -106 65 -106 c 0,44,45
 57 -106 57 -106 57 -104 c 0,46,47
 57 -99 57 -99 77 -91 c 0,48,49
 409 40 409 40 429 362 c 1,50,51
 415 360 415 360 366 353 c 0,52,53
 214 331 214 331 169 319 c 0,54,55
 167 318 167 318 166 318 c 0,56,57
 151 318 151 318 129 339 c 0,58,59
 108 359 108 359 108 369 c 0,60,61
 108 374 108 374 113 374 c 0,62,63
 310 376 310 376 431 402 c 1,64,65
 432 438 432 438 432 475 c 0,66,67
 432 639 432 639 400 697 c 0,68,69
 394 709 394 709 394 715 c 0,70,71
 394 726 394 726 408 726 c 0,72,73
 427 726 427 726 471 708 c 0,74,75
 515 691 515 691 514 674 c 0,0,1
EndSplineSet
Validated: 33
EndChar

StartChar: uni4E42
Encoding: 20034 20034 41
Width: 1024
GlyphClass: 2
Flags: W
LayerCount: 2
Fore
SplineSet
608 656 m 0,0,1
 636 656 636 656 662 637 c 1,2,3
 712 607 712 607 712 588 c 0,4,5
 712 576 712 576 706 567 c 1,6,7
 678 542 678 542 672 520 c 0,8,9
 620 351 620 351 570 273 c 0,10,11
 561 259 561 259 551 246 c 1,12,13
 578 214 578 214 601 190 c 0,14,15
 659 129 659 129 717 90 c 1,16,17
 750 71 750 71 932 1 c 1,18,19
 976 -14 976 -14 976 -21 c 0,20,21
 976 -26 976 -26 966 -28 c 1,22,-1
 780 -28 l 2,23,24
 692 -28 692 -28 668 0 c 0,25,26
 626 47 626 47 517 205 c 1,27,28
 473 157 473 157 415 115 c 1,29,30
 323 52 323 52 226 25 c 1,31,32
 172 12 172 12 136 12 c 0,33,34
 124 12 124 12 124 16 c 1,35,36
 198 44 198 44 260 77 c 1,37,38
 400 155 400 155 464 226 c 0,39,40
 475 237 475 237 485 250 c 1,41,42
 450 302 450 302 408 364 c 0,43,44
 360 436 360 436 313 463 c 1,45,46
 280 486 280 486 236 495 c 1,47,48
 220 495 220 495 220 516 c 0,49,50
 220 524 220 524 232 524 c 0,51,52
 252 524 252 524 279 520 c 0,53,54
 310 515 310 515 334 505 c 1,55,56
 383 481 383 481 415 433 c 0,57,58
 469 350 469 350 516 290 c 1,59,60
 545 333 545 333 566 386 c 1,61,62
 608 478 608 478 608 575 c 0,63,64
 608 606 608 606 584 640 c 1,65,66
 584 656 584 656 608 656 c 0,0,1
EndSplineSet
Validated: 1
EndChar

StartChar: uni7592
Encoding: 30098 30098 42
Width: 1024
GlyphClass: 2
Flags: W
LayerCount: 2
Fore
SplineSet
217 345 m 2,0,-1
 216 345 l 1,1,2
 196 346 196 346 174 394 c 0,3,4
 153 442 153 442 147 499 c 1,5,6
 183 492 183 492 219 460 c 0,7,8
 255 427 255 427 255 391 c 0,9,10
 255 345 255 345 217 345 c 2,0,-1
631 556 m 1,11,12
 675 567 675 567 726 581 c 0,13,14
 784 597 784 597 796 597 c 0,15,16
 824 597 824 597 863 578 c 0,17,18
 902 558 902 558 902 539 c 0,19,20
 902 527 902 527 838 527 c 1,21,22
 770 525 770 525 730 519 c 0,23,24
 480 483 480 483 453 483 c 0,25,26
 429 483 429 483 390 486 c 1,27,28
 390 483 390 483 389 468 c 0,29,30
 370 228 370 228 322 114 c 1,31,32
 273 1 273 1 190 -75 c 0,33,34
 108 -151 108 -151 80 -151 c 0,35,36
 78 -151 78 -151 78 -150 c 0,37,38
 78 -148 78 -148 86 -139 c 1,39,40
 180 -50 180 -50 241 60 c 1,41,42
 301 171 301 171 304 239 c 1,43,44
 304 237 304 237 174 137 c 0,45,46
 151 120 151 120 132 100 c 0,47,48
 121 89 121 89 116 89 c 0,49,50
 103 89 103 89 82 122 c 1,51,52
 60 154 60 154 60 167 c 0,53,54
 60 174 60 174 75 174 c 2,55,-1
 81 174 l 1,56,57
 86 173 86 173 89 173 c 0,58,59
 154 173 154 173 308 263 c 1,60,61
 324 309 324 309 324 462 c 0,62,63
 324 505 324 505 312 532 c 0,64,65
 311 534 311 534 311 536 c 0,66,67
 311 546 311 546 325 546 c 0,68,69
 328 546 328 546 331 544 c 0,70,71
 378 519 378 519 409 519 c 0,72,73
 465 519 465 519 573 543 c 1,74,75
 572 603 572 603 569 634 c 0,76,77
 566 670 566 670 556 693 c 0,78,79
 546 715 546 715 536 736 c 1,80,81
 536 752 536 752 556 747 c 1,82,83
 576 747 576 747 615 729 c 1,84,85
 655 712 655 712 655 698 c 1,86,87
 648 678 648 678 641 645 c 0,88,89
 636 621 636 621 631 556 c 1,11,12
EndSplineSet
Validated: 1
EndChar

StartChar: uni4E2D
Encoding: 20013 20013 43
Width: 1024
GlyphClass: 2
Flags: W
LayerCount: 2
Fore
SplineSet
441 779 m 1,0,1
 464 779 464 779 510 760 c 0,2,3
 556 740 556 740 556 720 c 0,4,5
 556 716 556 716 553 703 c 0,6,7
 538 650 538 650 534 537 c 1,8,9
 636 550 636 550 725 576 c 0,10,11
 764 588 764 588 772 588 c 0,12,13
 785 588 785 588 839 556 c 0,14,15
 892 524 892 524 892 511 c 0,16,17
 892 504 892 504 873 484 c 0,18,19
 826 435 826 435 800 356 c 0,20,21
 795 339 795 339 791 331 c 1,22,23
 791 331 791 331 791 330 c 0,24,25
 791 327 791 327 802 321 c 0,26,27
 829 307 829 307 829 293 c 0,28,29
 829 271 829 271 685 268 c 0,30,31
 570 266 570 266 527 263 c 1,32,33
 527 -176 527 -176 488 -176 c 0,34,35
 465 -176 465 -176 465 -30 c 0,36,37
 465 -22 465 -22 465 -13 c 0,38,39
 468 154 468 154 468 219 c 0,40,41
 468 241 468 241 468 260 c 1,42,43
 440 257 440 257 339 252 c 0,44,45
 289 250 289 250 271 249 c 1,46,47
 271 182 271 182 253 182 c 0,48,49
 224 182 224 182 212 291 c 0,50,51
 196 430 196 430 157 484 c 0,52,53
 144 501 144 501 144 507 c 0,54,55
 144 521 144 521 164 521 c 0,56,57
 172 521 172 521 202 515 c 0,58,59
 240 508 240 508 259 508 c 0,60,61
 267 508 267 508 274 509 c 0,62,63
 298 511 298 511 351 516 c 0,64,65
 449 526 449 526 469 529 c 1,66,67
 465 711 465 711 432 758 c 0,68,69
 427 765 427 765 427 771 c 0,70,71
 427 781 427 781 441 779 c 1,0,1
534 495 m 1,72,73
 534 491 534 491 534 484 c 0,74,75
 534 461 534 461 531 385 c 0,76,77
 529 319 529 319 529 303 c 1,78,79
 555 307 555 307 640 313 c 0,80,81
 712 319 712 319 733 322 c 1,82,83
 756 365 756 365 762 486 c 0,84,85
 762 487 762 487 762 488 c 0,86,87
 762 515 762 515 735 515 c 0,88,89
 726 515 726 515 632 506 c 1,90,91
 559 497 559 497 534 495 c 1,72,73
469 489 m 1,92,93
 385 477 385 477 250 471 c 1,94,95
 269 344 269 344 269 284 c 0,96,97
 269 282 269 282 269 281 c 1,98,99
 318 285 318 285 468 299 c 1,100,-1
 469 489 l 1,92,93
EndSplineSet
Validated: 1
EndChar

StartChar: uni4E28
Encoding: 20008 20008 44
Width: 1024
GlyphClass: 2
Flags: W
LayerCount: 2
Fore
SplineSet
441 779 m 1,0,1
 464 779 464 779 510 760 c 0,2,3
 556 740 556 740 556 720 c 0,4,5
 556 716 556 716 553 703 c 0,6,7
 538 650 538 650 534 537 c 1,8,-1
 527 263 l 1,9,10
 527 -176 527 -176 488 -176 c 0,11,12
 465 -176 465 -176 465 -30 c 1,13,14
 468 154 468 154 468 219 c 0,15,16
 468 241 468 241 469 529 c 1,17,18
 465 711 465 711 432 758 c 0,19,20
 427 765 427 765 427 771 c 0,21,22
 427 781 427 781 441 779 c 1,0,1
EndSplineSet
Validated: 1
EndChar

StartChar: uni4E3F
Encoding: 20031 20031 45
Width: 1024
GlyphClass: 2
Flags: W
LayerCount: 2
Fore
SplineSet
581 684 m 1,0,1
 572 653 572 653 566 501 c 1,2,3
 549 164 549 164 440 23 c 1,4,5
 330 -117 330 -117 269 -117 c 0,6,7
 264 -117 264 -117 264 -115 c 0,8,9
 264 -109 264 -109 277 -100 c 0,10,11
 365 -32 365 -32 424 90 c 0,12,13
 483 213 483 213 491 502 c 1,14,15
 504 620 504 620 460 707 c 0,16,17
 451 725 451 725 451 730 c 0,18,19
 451 742 451 742 470 742 c 0,20,21
 500 742 500 742 540 722 c 1,22,23
 582 703 582 703 581 685 c 0,24,25
 581 684 581 684 581 684 c 1,0,1
EndSplineSet
Validated: 33
EndChar

StartChar: uni8864
Encoding: 34916 34916 46
Width: 1024
GlyphClass: 2
Flags: W
LayerCount: 2
Fore
SplineSet
541 520 m 1,0,1
 592 539 592 539 613 556 c 1,2,3
 632 570 632 570 639 570 c 0,4,5
 652 570 652 570 679 548 c 0,6,7
 705 527 705 527 703 519 c 1,8,9
 703 512 703 512 697 506 c 1,10,11
 680 494 680 494 542 340 c 1,12,13
 559 329 559 329 564 291 c 1,14,15
 568 289 568 289 577 286 c 0,16,17
 589 282 589 282 594 280 c 1,18,19
 668 351 668 351 668 379 c 2,20,-1
 668 383 l 2,21,22
 668 397 668 397 676 397 c 0,23,24
 686 397 686 397 716 380 c 0,25,26
 746 364 746 364 746 356 c 0,27,28
 746 339 746 339 615 273 c 1,29,30
 729 211 729 211 729 168 c 0,31,32
 729 135 729 135 706 135 c 0,33,34
 696 135 696 135 675 159 c 0,35,36
 634 206 634 206 563 270 c 1,37,38
 564 24 564 24 564 -5 c 0,39,40
 564 -136 564 -136 535 -136 c 0,41,42
 525 -136 525 -136 512 -108 c 0,43,44
 498 -79 498 -79 498 -54 c 0,45,46
 498 -42 498 -42 509 14 c 1,47,48
 524 105 524 105 524 236 c 0,49,50
 524 295 524 295 523 313 c 1,51,52
 466 234 466 234 368 153 c 0,53,54
 271 72 271 72 243 72 c 0,55,56
 240 72 240 72 240 74 c 0,57,58
 240 77 240 77 249 82 c 1,59,60
 328 145 328 145 426 263 c 1,61,62
 523 382 523 382 595 498 c 1,63,64
 396 438 396 438 336 411 c 1,65,-1
 332 411 l 2,66,67
 319 411 319 411 297 430 c 1,68,69
 274 448 274 448 274 458 c 0,70,71
 274 462 274 462 279 462 c 0,72,73
 354 463 354 463 445 489 c 0,74,75
 472 497 472 497 495 504 c 1,76,77
 508 713 508 713 477 758 c 0,78,79
 472 765 472 765 472 771 c 0,80,81
 472 781 472 781 486 779 c 1,82,83
 509 779 509 779 555 760 c 0,84,85
 581 750 581 750 581 730 c 0,86,87
 581 726 581 726 578 713 c 0,88,89
 564 663 564 663 541 520 c 1,0,1
EndSplineSet
Validated: 33
EndChar

StartChar: uni8080
Encoding: 32896 32896 47
Width: 1024
GlyphClass: 2
Flags: W
LayerCount: 2
Fore
SplineSet
703 401 m 1,0,1
 715 448 715 448 723 488 c 1,2,3
 725 517 725 517 712 525 c 0,4,5
 696 534 696 534 651 530 c 0,6,7
 595 526 595 526 540 520 c 1,8,-1
 539 520 l 1,9,10
 537 481 537 481 537 439 c 0,11,12
 537 408 537 408 536 381 c 1,13,14
 620 389 620 389 703 401 c 1,0,1
536 341 m 1,15,16
 535 256 535 256 534 219 c 1,17,18
 586 223 586 223 653 229 c 1,19,20
 668 277 668 277 689 350 c 1,21,22
 621 347 621 347 536 341 c 1,15,16
753 351 m 1,23,24
 726 276 726 276 711 225 c 1,25,26
 749 208 749 208 745 195 c 0,27,28
 744 190 744 190 723 188 c 1,29,30
 618 186 618 186 533 180 c 1,31,32
 532 140 532 140 530 110 c 0,33,34
 516 -154 516 -154 496 -154 c 0,35,36
 472 -153 472 -153 472 111 c 2,37,-1
 472 174 l 1,38,39
 413 167 413 167 333 153 c 0,40,41
 307 148 307 148 284 153 c 1,42,43
 258 162 258 162 237 176 c 1,44,45
 221 190 221 190 226 199 c 0,46,47
 231 206 231 206 246 206 c 2,48,-1
 349 207 l 2,49,50
 379 207 379 207 473 214 c 1,51,52
 473 239 473 239 474 336 c 1,53,54
 468 335 468 335 462 335 c 0,55,56
 230 319 230 319 155 306 c 1,57,-1
 152 306 l 2,58,59
 134 306 134 306 109 326 c 0,60,61
 83 346 83 346 83 357 c 0,62,63
 83 362 83 362 89 362 c 2,64,-1
 90 362 l 1,65,66
 108 361 108 361 129 361 c 0,67,68
 305 361 305 361 474 375 c 1,69,-1
 474 513 l 1,70,71
 399 506 399 506 325 495 c 1,72,73
 300 487 300 487 268 496 c 0,74,75
 243 502 243 502 225 516 c 1,76,77
 212 532 212 532 244 533 c 0,78,79
 364 540 364 540 474 549 c 1,80,81
 472 650 472 650 464 669 c 0,82,83
 462 676 462 676 455 691 c 256,84,85
 448 706 448 706 435 731 c 0,86,87
 433 736 433 736 433 740 c 0,88,89
 433 753 433 753 452 754 c 1,90,91
 475 754 475 754 517 735 c 256,92,93
 559 716 559 716 559 699 c 0,94,95
 559 695 559 695 555 674 c 0,96,97
 545 621 545 621 541 556 c 1,98,-1
 544 556 l 1,99,100
 634 565 634 565 717 576 c 1,101,102
 734 581 734 581 755 571 c 1,103,104
 829 543 829 543 836 525 c 1,105,106
 841 515 841 515 827 503 c 1,107,108
 802 470 802 470 776 412 c 1,109,110
 816 418 816 418 831 418 c 0,111,112
 865 418 865 418 908 398 c 256,113,114
 951 378 951 378 951 361 c 0,115,116
 951 347 951 347 909 347 c 0,117,118
 895 347 895 347 861 349 c 0,119,120
 804 351 804 351 753 351 c 1,23,24
EndSplineSet
Validated: 33
EndChar

StartChar: uni4E00
Encoding: 19968 19968 48
Width: 1024
GlyphClass: 2
Flags: W
LayerCount: 2
Fore
SplineSet
924 317 m 0,0,1
 924 300 924 300 882 300 c 0,2,3
 868 300 868 300 834 302 c 0,4,5
 777 305 777 305 742 305 c 0,6,7
 628 305 628 305 435 285 c 0,8,9
 243 266 243 266 168 250 c 0,10,11
 166 250 166 250 165 250 c 0,12,13
 147 250 147 250 122 274 c 0,14,15
 96 299 96 299 96 312 c 0,16,17
 96 318 96 318 102 318 c 0,18,19
 103 318 103 318 103 318 c 1,20,21
 121 317 121 317 142 317 c 0,22,23
 434 317 434 317 741 378 c 0,24,25
 787 387 787 387 804 387 c 0,26,27
 838 387 838 387 881 362 c 0,28,29
 924 338 924 338 924 317 c 0,0,1
EndSplineSet
Validated: 1
EndChar

StartChar: uni5382
Encoding: 21378 21378 49
Width: 1024
GlyphClass: 2
Flags: W
LayerCount: 2
Fore
SplineSet
765 698 m 0,0,1
 766 698 766 698 766 698 c 2,2,3
 792 698 792 698 825 681 c 0,4,5
 859 663 859 663 859 647 c 256,6,7
 859 631 859 631 784 629 c 0,8,9
 684 626 684 626 518 609 c 0,10,11
 409 597 409 597 364 597 c 0,12,13
 349 597 349 597 338 598 c 1,14,15
 338 371 338 371 306 225 c 256,16,17
 274 79 274 79 190 -35 c 256,18,19
 106 -149 106 -149 62 -149 c 0,20,21
 59 -149 59 -149 59 -146 c 0,22,23
 59 -142 59 -142 67 -134 c 0,24,25
 267 54 267 54 267 481 c 0,26,27
 267 591 267 591 245 646 c 0,28,29
 243 649 243 649 243 652 c 0,30,31
 243 665 243 665 257 665 c 0,32,33
 260 665 260 665 264 664 c 0,34,35
 325 640 325 640 354 640 c 0,36,37
 537 640 537 640 721 691 c 0,38,39
 753 699 753 699 765 698 c 0,0,1
EndSplineSet
Validated: 33
EndChar

StartChar: uni4E06
Encoding: 19974 19974 50
Width: 1024
GlyphClass: 2
Flags: W
LayerCount: 2
Fore
SplineSet
488 574 m 1,0,1
 541 534 541 534 541 526 c 0,2,3
 541 512 541 512 450 311 c 0,4,5
 358 110 358 110 229 11 c 256,6,7
 100 -88 100 -88 49 -88 c 0,8,9
 45 -88 45 -88 45 -85 c 0,10,11
 45 -80 45 -80 56 -73 c 0,12,13
 253 50 253 50 353 249 c 1,14,15
 454 447 454 447 454 568 c 2,16,-1
 454 570 l 1,17,18
 446 569 446 569 437 568 c 0,19,20
 234 544 234 544 169 530 c 0,21,22
 168 529 168 529 167 529 c 0,23,24
 153 529 153 529 128 551 c 0,25,26
 103 572 103 572 103 584 c 0,27,28
 103 589 103 589 111 589 c 0,29,30
 451 589 451 589 702 652 c 0,31,32
 746 663 746 663 766 662 c 1,33,-1
 767 662 l 2,34,35
 790 662 790 662 830 642 c 0,36,37
 871 621 871 621 871 602 c 0,38,39
 871 588 871 588 843 588 c 0,40,41
 835 588 835 588 810 589 c 0,42,43
 764 592 764 592 733 592 c 0,44,45
 652 592 652 592 488 574 c 1,0,1
EndSplineSet
Validated: 33
EndChar

StartChar: uni5DE5
Encoding: 24037 24037 51
Width: 1024
GlyphClass: 2
Flags: W
LayerCount: 2
Fore
SplineSet
695 581 m 0,0,1
 722 581 722 581 759 563 c 256,2,3
 796 545 796 545 796 526 c 0,4,5
 796 514 796 514 664 512 c 0,6,7
 552 510 552 510 486 501 c 1,8,9
 540 478 540 478 540 459 c 0,10,11
 540 458 540 458 540 455 c 0,12,13
 526 367 526 367 525 294 c 0,14,15
 521 131 521 131 520 67 c 1,16,17
 645 78 645 78 769 99 c 0,18,19
 814 106 814 106 826 106 c 0,20,21
 857 106 857 106 900 85 c 0,22,23
 943 63 943 63 943 43 c 0,24,25
 943 26 943 26 911 26 c 0,26,27
 901 26 901 26 871 28 c 0,28,29
 802 32 802 32 746 32 c 0,30,31
 407 32 407 32 143 -23 c 0,32,33
 141 -23 141 -23 140 -23 c 0,34,35
 124 -23 124 -23 102 -1 c 0,36,37
 81 20 81 20 81 33 c 0,38,39
 81 39 81 39 87 39 c 0,40,41
 94 39 94 39 102 39 c 0,42,43
 298 39 298 39 461 61 c 1,44,45
 465 122 465 122 465 294 c 0,46,47
 465 311 465 311 465 326 c 0,48,49
 465 423 465 423 450 494 c 1,50,51
 312 475 312 475 261 462 c 0,52,53
 259 462 259 462 257 462 c 0,54,55
 243 462 243 462 221 481 c 1,56,57
 200 501 200 501 200 512 c 0,58,59
 200 517 200 517 206 517 c 0,60,61
 213 517 213 517 221 517 c 0,62,63
 427 517 427 517 649 573 c 0,64,65
 683 581 683 581 695 581 c 0,0,1
EndSplineSet
Validated: 1
EndChar

StartChar: uni5F13
Encoding: 24339 24339 52
Width: 1024
GlyphClass: 2
Flags: W
LayerCount: 2
Fore
SplineSet
652 723 m 0,0,1
 667 723 667 723 712 697 c 0,2,3
 757 672 757 672 757 657 c 0,4,5
 757 651 757 651 736 639 c 0,6,7
 692 613 692 613 667 571 c 0,8,9
 641 529 641 529 641 506 c 0,10,11
 641 502 641 502 655 497 c 0,12,13
 678 490 678 490 678 479 c 0,14,15
 678 464 678 464 592 452 c 0,16,17
 515 442 515 442 397 425 c 0,18,19
 342 417 342 417 330 416 c 1,20,21
 330 313 330 313 313 271 c 1,22,23
 330 274 330 274 374 280 c 0,24,25
 553 306 553 306 625 331 c 0,26,27
 660 343 660 343 670 343 c 0,28,29
 688 343 688 343 729 311 c 256,30,31
 770 279 770 279 770 263 c 0,32,33
 770 256 770 256 758 242 c 0,34,35
 737 219 737 219 735 195 c 0,36,37
 712 -16 712 -16 657 -85 c 1,38,39
 603 -155 603 -155 558 -155 c 0,40,41
 552 -155 552 -155 544 -135 c 0,42,43
 521 -77 521 -77 434 -19 c 1,44,45
 422 -9 422 -9 422 -5 c 0,46,47
 422 -2 422 -2 427 -2 c 0,48,49
 430 -2 430 -2 436 -4 c 0,50,51
 538 -30 538 -30 581 -30 c 0,52,53
 620 -30 620 -30 647 41 c 1,54,55
 675 111 675 111 675 206 c 0,56,57
 675 275 675 275 614 275 c 0,58,59
 573 275 573 275 446 253 c 0,60,61
 319 230 319 230 284 197 c 0,62,63
 265 180 265 180 254 180 c 0,64,65
 245 180 245 180 234 198 c 1,66,67
 224 217 224 217 224 227 c 0,68,69
 224 236 224 236 255 273 c 0,70,71
 274 297 274 297 276 386 c 0,72,73
 276 387 276 387 276 387 c 2,74,75
 276 406 276 406 259 454 c 0,76,77
 257 459 257 459 257 462 c 0,78,79
 257 471 257 471 269 471 c 0,80,81
 275 471 275 471 294 467 c 0,82,83
 326 459 326 459 347 459 c 0,84,85
 399 459 399 459 586 496 c 1,86,87
 623 593 623 593 623 644 c 0,88,89
 623 656 623 656 606 656 c 0,90,91
 501 656 501 656 312 610 c 0,92,93
 310 610 310 610 308 610 c 0,94,95
 293 610 293 610 270 629 c 0,96,97
 248 647 248 647 248 658 c 0,98,99
 248 663 248 663 255 663 c 0,100,101
 256 663 256 663 256 663 c 1,102,103
 273 662 273 662 290 662 c 0,104,105
 500 662 500 662 623 714 c 0,106,107
 644 723 644 723 652 723 c 0,0,1
EndSplineSet
Validated: 1
EndChar

StartChar: uni4E85
Encoding: 20101 20101 53
Width: 1024
GlyphClass: 2
Flags: W
LayerCount: 2
Fore
SplineSet
462 766 m 0,0,1
 489 766 489 766 529 749 c 0,2,3
 568 733 568 733 568 718 c 0,4,5
 568 712 568 712 565 697 c 0,6,7
 557 654 557 654 557 595 c 2,8,-1
 557 358 l 1,9,10
 559 222 559 222 567 40 c 0,11,12
 567 34 567 34 567 27 c 0,13,14
 567 -42 567 -42 534 -92 c 0,15,16
 500 -143 500 -143 479 -143 c 0,17,18
 470 -143 470 -143 453 -110 c 0,19,20
 413 -37 413 -37 340 4 c 0,21,22
 327 12 327 12 327 17 c 0,23,24
 327 21 327 21 335 21 c 0,25,26
 339 21 339 21 348 19 c 0,27,28
 460 -6 460 -6 473 -6 c 0,29,30
 502 -6 502 -6 504 167 c 0,31,32
 504 209 504 209 504 260 c 0,33,34
 504 366 504 366 503 493 c 1,35,36
 500 597 500 597 492 650 c 256,37,38
 484 703 484 703 449 748 c 0,39,40
 447 750 447 750 447 752 c 0,41,42
 447 766 447 766 462 766 c 0,0,1
EndSplineSet
Validated: 1
EndChar

StartChar: uni4E5B
Encoding: 20059 20059 54
Width: 1024
GlyphClass: 2
Flags: W
LayerCount: 2
Fore
SplineSet
743 492 m 0,0,1
 759 492 759 492 803 459 c 0,2,3
 848 425 848 425 848 408 c 0,4,5
 848 403 848 403 822 396 c 1,6,7
 773 386 773 386 715 349 c 1,8,9
 606 289 606 289 599 289 c 128,-1,10
 592 289 592 289 592 297 c 0,11,12
 592 302 592 302 672 373 c 1,13,14
 724 422 724 422 724 429 c 128,-1,15
 724 436 724 436 712 436 c 0,16,17
 701 436 701 436 602 418 c 1,18,19
 427 383 427 383 314 355 c 1,20,21
 286 345 286 345 275 345 c 0,22,23
 250 345 250 345 213 366 c 0,24,25
 179 386 179 386 179 400 c 0,26,27
 179 412 179 412 191 412 c 0,28,29
 211 412 211 412 237 408 c 0,30,31
 267 404 267 404 275 404 c 0,32,33
 341 404 341 404 453 421 c 0,34,35
 604 445 604 445 688 476 c 0,36,37
 734 492 734 492 743 492 c 0,0,1
EndSplineSet
Validated: 1
EndChar

StartChar: uni4E59
Encoding: 20057 20057 55
Width: 1024
GlyphClass: 2
Flags: W
LayerCount: 2
Fore
SplineSet
528 662 m 0,0,1
 529 662 529 662 530 662 c 0,2,3
 546 662 546 662 594 633 c 0,4,5
 642 603 642 603 642 589 c 0,6,7
 642 578 642 578 615 569 c 0,8,9
 516 535 516 535 387 371 c 0,10,11
 258 208 258 208 258 106 c 0,12,13
 258 11 258 11 524 11 c 0,14,15
 612 11 612 11 685 28 c 0,16,17
 758 46 758 46 790 75 c 0,18,19
 821 103 821 103 855 283 c 0,20,21
 856 293 856 293 863 293 c 0,22,23
 869 293 869 293 869 281 c 0,24,25
 869 131 869 131 898 81 c 0,26,27
 910 60 910 60 910 49 c 0,28,29
 910 15 910 15 798 -21 c 0,30,31
 685 -57 685 -57 525 -57 c 0,32,33
 198 -57 198 -57 198 98 c 0,34,35
 198 196 198 196 292 331 c 0,36,37
 386 465 386 465 488 561 c 0,38,39
 518 590 518 590 526 600 c 1,40,41
 401 571 401 571 381 565 c 0,42,43
 380 565 380 565 377 564 c 0,44,45
 257 529 257 529 242 523 c 0,46,47
 239 522 239 522 236 522 c 0,48,49
 219 522 219 522 195 544 c 1,50,51
 170 565 170 565 170 577 c 0,52,53
 170 582 170 582 176 582 c 0,54,55
 404 594 404 594 528 662 c 0,0,1
EndSplineSet
Validated: 1
EndChar

StartChar: uni4EBA
Encoding: 20154 20154 56
Width: 1024
GlyphClass: 2
Flags: W
LayerCount: 2
Fore
SplineSet
564 606 m 1,0,1
 564 597 564 597 486 384 c 1,2,3
 607 215 607 215 713 125 c 0,4,5
 818 35 818 35 959 1 c 0,6,7
 972 -2 972 -2 972 -9 c 0,8,9
 972 -30 972 -30 797 -30 c 0,10,11
 766 -30 766 -30 742 -14 c 1,12,13
 719 3 719 3 641 107 c 0,14,15
 563 212 563 212 500 304 c 0,16,17
 478 335 478 335 469 347 c 1,18,19
 368 138 368 138 240 34 c 0,20,21
 112 -71 112 -71 62 -71 c 0,22,23
 58 -71 58 -71 58 -68 c 0,24,25
 58 -62 58 -62 74 -51 c 0,26,27
 266 75 266 75 365 263 c 0,28,29
 463 451 463 451 463 592 c 0,30,31
 463 613 463 613 453 643 c 1,32,33
 445 663 445 663 445 670 c 0,34,35
 445 682 445 682 456 682 c 0,36,37
 472 682 472 682 517 651 c 256,38,39
 562 620 562 620 564 606 c 1,0,1
EndSplineSet
Validated: 1
EndChar

StartChar: uni5165
Encoding: 20837 20837 57
Width: 1024
GlyphClass: 2
Flags: W
LayerCount: 2
Fore
SplineSet
343 675 m 0,0,1
 395 675 395 675 433 642 c 256,2,3
 471 609 471 609 537 472 c 1,4,5
 657 216 657 216 748 123 c 1,6,7
 838 29 838 29 967 -4 c 0,8,9
 975 -6 975 -6 975 -13 c 0,10,11
 975 -25 975 -25 883 -25 c 0,12,13
 857 -25 857 -25 814 -24 c 0,14,15
 762 -23 762 -23 715 30 c 0,16,17
 676 75 676 75 565 307 c 1,18,19
 504 437 504 437 494 456 c 1,20,21
 445 305 445 305 373 200 c 1,22,23
 300 96 300 96 194 16 c 0,24,25
 87 -64 87 -64 54 -64 c 0,26,27
 49 -64 49 -64 49 -60 c 0,28,29
 49 -53 49 -53 59 -46 c 0,30,31
 196 42 196 42 304 198 c 0,32,33
 413 355 413 355 449 529 c 1,34,35
 442 557 442 557 406 594 c 0,36,37
 369 631 369 631 313 642 c 1,38,39
 289 648 289 648 289 656 c 0,40,41
 289 676 289 676 343 675 c 0,0,1
EndSplineSet
Validated: 33
EndChar

StartChar: uni4EBB
Encoding: 20155 20155 58
Width: 1024
GlyphClass: 2
Flags: W
LayerCount: 2
Fore
SplineSet
530 390 m 1,0,1
 575 360 575 360 575 337 c 2,2,-1
 575 332 l 1,3,4
 565 231 565 231 565 125 c 0,5,6
 565 -148 565 -148 530 -148 c 0,7,8
 522 -148 522 -148 502 -114 c 0,9,10
 483 -80 483 -80 483 -59 c 0,11,12
 483 -56 483 -56 484 -53 c 0,13,14
 518 145 518 145 518 228 c 0,15,16
 518 330 518 330 507 362 c 1,17,18
 435 277 435 277 339 213 c 0,19,20
 224 136 224 136 193 136 c 0,21,22
 190 136 190 136 190 138 c 0,23,24
 190 142 190 142 210 155 c 1,25,26
 376 285 376 285 496 439 c 1,27,28
 616 624 616 624 622 698 c 0,29,30
 623 712 623 712 632 712 c 0,31,32
 642 712 642 712 682 681 c 0,33,34
 722 649 722 649 722 639 c 0,35,36
 722 634 722 634 704 619 c 1,37,38
 643 546 643 546 530 390 c 1,0,1
EndSplineSet
Validated: 1
EndChar

StartChar: uni5FC3
Encoding: 24515 24515 59
Width: 1024
GlyphClass: 2
Flags: W
LayerCount: 2
Fore
SplineSet
513 384 m 0,0,1
 483 384 483 384 436 453 c 0,2,3
 389 523 389 523 380 560 c 1,4,5
 544 525 544 525 544 434 c 0,6,7
 544 384 544 384 513 384 c 0,0,1
925 374 m 0,8,9
 925 373 925 373 925 371 c 0,10,11
 925 341 925 341 898 341 c 0,12,13
 897 341 897 341 896 341 c 0,14,15
 864 342 864 342 793 419 c 1,16,17
 721 495 721 495 711 511 c 1,18,19
 795 502 795 502 859 465 c 0,20,21
 924 428 924 428 925 374 c 0,8,9
138 110 m 0,22,23
 101 110 101 110 101 178 c 0,24,25
 101 193 101 193 116 222 c 0,26,27
 156 299 156 299 171 388 c 1,28,29
 210 365 210 365 210 289 c 0,30,31
 210 235 210 235 187 173 c 1,32,33
 165 110 165 110 138 110 c 0,22,23
599 84 m 0,34,35
 731 84 731 84 731 127 c 0,36,37
 731 169 731 169 668 288 c 0,38,39
 662 300 662 300 662 307 c 0,40,41
 662 311 662 311 665 311 c 0,42,43
 671 311 671 311 686 291 c 0,44,45
 768 184 768 184 828 158 c 1,46,47
 870 141 870 141 870 129 c 0,48,49
 870 90 870 90 796 53 c 0,50,51
 721 16 721 16 617 16 c 0,52,53
 480 16 480 16 403 92 c 0,54,55
 327 168 327 168 291 357 c 1,56,57
 313 353 313 353 330 343 c 0,58,59
 346 333 346 333 361 276 c 0,60,61
 394 157 394 157 452 121 c 1,62,63
 509 84 509 84 599 84 c 0,34,35
EndSplineSet
Validated: 1
EndChar

StartChar: uni5FC4
Encoding: 24516 24516 60
Width: 1024
GlyphClass: 2
Flags: W
LayerCount: 2
Fore
SplineSet
507 683 m 0,0,1
 507 680 507 680 506 676 c 0,2,3
 484 620 484 620 484 467 c 1,4,5
 483 402 483 402 483 335 c 0,6,7
 483 275 483 275 484 235 c 0,8,9
 485 173 485 173 493 39 c 0,10,11
 494 23 494 23 494 6 c 0,12,13
 494 -158 494 -158 459 -158 c 1,14,15
 444 -157 444 -157 426 -116 c 256,16,17
 408 -75 408 -75 408 -45 c 0,18,19
 408 -40 408 -40 409 -36 c 0,20,21
 430 95 430 95 430 238 c 0,22,23
 430 357 430 357 426 519 c 0,24,25
 424 635 424 635 388 704 c 0,26,27
 379 723 379 723 379 732 c 0,28,29
 379 745 379 745 392 745 c 0,30,31
 412 745 412 745 459 725 c 0,32,33
 506 704 506 704 507 683 c 0,0,1
194 176 m 0,34,35
 169 176 169 176 169 235 c 0,36,37
 169 275 169 275 194 305 c 1,38,39
 246 364 246 364 267 450 c 0,40,41
 273 472 273 472 279 486 c 1,42,43
 309 451 309 451 309 418 c 0,44,45
 309 358 309 358 272 267 c 256,46,47
 235 176 235 176 194 176 c 0,34,35
539 479 m 1,48,49
 638 479 638 479 686 452 c 0,50,51
 735 425 735 425 735 375 c 0,52,53
 735 357 735 357 729 349 c 0,54,55
 722 339 722 339 705 339 c 0,56,57
 667 339 667 339 539 479 c 1,48,49
EndSplineSet
Validated: 1
EndChar

StartChar: uni5315
Encoding: 21269 21269 61
Width: 1024
GlyphClass: 2
Flags: W
LayerCount: 2
Fore
SplineSet
329 598 m 0,0,1
 329 597 329 597 329 596 c 0,2,3
 302 469 302 469 295 279 c 1,4,5
 411 330 411 330 514 407 c 0,6,7
 617 485 617 485 620 551 c 0,8,9
 621 565 621 565 632 565 c 0,10,11
 649 565 649 565 694 536 c 0,12,13
 739 508 739 508 739 493 c 0,14,15
 739 485 739 485 605 403 c 256,16,17
 471 321 471 321 293 241 c 1,18,19
 293 101 293 101 314 65 c 0,20,21
 336 29 336 29 382 12 c 256,22,23
 428 -5 428 -5 505 -5 c 0,24,25
 584 -5 584 -5 640 7 c 256,26,27
 696 19 696 19 728 45 c 0,28,29
 760 70 760 70 785 248 c 0,30,31
 786 260 786 260 794 260 c 0,32,33
 800 260 800 260 801 249 c 0,34,35
 811 109 811 109 848 56 c 0,36,37
 865 30 865 30 865 22 c 0,38,39
 865 -6 865 -6 766 -41 c 256,40,41
 667 -76 667 -76 535 -76 c 0,42,43
 378 -76 378 -76 310 -26 c 0,44,45
 243 24 243 24 243 164 c 0,46,47
 243 189 243 189 244 222 c 0,48,49
 248 301 248 301 248 419 c 0,50,51
 248 480 248 480 247 525 c 0,52,53
 247 570 247 570 219 622 c 0,54,55
 211 637 211 637 211 641 c 0,56,57
 211 657 211 657 224 657 c 0,58,59
 244 657 244 657 287 636 c 0,60,61
 330 614 330 614 329 598 c 0,0,1
EndSplineSet
Validated: 33
EndChar

StartChar: uni4E03
Encoding: 19971 19971 62
Width: 1024
GlyphClass: 2
Flags: W
LayerCount: 2
Fore
SplineSet
419 300 m 1,1,2
 216 256 216 256 133 226 c 0,3,4
 131 225 131 225 129 225 c 0,5,6
 116 225 116 225 91 245 c 0,7,8
 67 264 67 264 67 275 c 0,9,10
 67 279 67 279 73 280 c 0,11,12
 164 290 164 290 270 312 c 0,13,14
 395 338 395 338 419 345 c 1,15,-1
 419 362 l 2,16,17
 419 601 419 601 383 669 c 0,18,19
 370 694 370 694 370 700 c 0,20,21
 370 711 370 711 383 711 c 0,22,23
 409 711 409 711 452 691 c 0,24,25
 495 670 495 670 495 648 c 0,26,27
 495 642 495 642 489 622 c 1,28,29
 476 564 476 564 476 515 c 2,30,-1
 477 359 l 1,31,32
 650 395 650 395 766 443 c 0,33,34
 810 461 810 461 825 461 c 0,35,36
 859 461 859 461 899 446 c 0,37,38
 939 432 939 432 939 413 c 0,39,40
 939 398 939 398 867 391 c 0,41,42
 785 383 785 383 475 313 c 1,43,-1
 475 291 l 2,44,45
 475 236 475 236 478 179 c 1,46,47
 479 128 479 128 490 94 c 1,48,49
 506 55 506 55 536 38 c 1,50,51
 572 22 572 22 638 22 c 0,52,53
 728 22 728 22 782 45 c 0,54,55
 829 64 829 64 842 126 c 1,56,57
 868 235 868 235 876 235 c 0,58,59
 885 235 885 235 888 200 c 0,60,61
 894 122 894 122 912 79 c 0,62,63
 920 58 920 58 920 47 c 0,64,65
 920 22 920 22 874 -2 c 0,66,67
 781 -49 781 -49 657 -49 c 0,68,69
 563 -49 563 -49 507 -22 c 1,70,71
 456 5 456 5 437 60 c 0,72,73
 420 108 420 108 420 179 c 1,74,0
 419 239 419 239 419 300 c 1,1,2
EndSplineSet
Validated: 1
EndChar

StartChar: uni52F9
Encoding: 21241 21241 63
Width: 1024
GlyphClass: 2
Flags: W
LayerCount: 2
Fore
SplineSet
493 665 m 0,0,1
 493 660 493 660 489 657 c 0,2,3
 472 642 472 642 436 588 c 1,4,5
 400 532 400 532 378 506 c 1,6,7
 389 504 389 504 406 504 c 0,8,9
 519 504 519 504 696 565 c 0,10,11
 728 576 728 576 730 576 c 256,12,13
 732 576 732 576 732 576 c 2,14,15
 748 576 748 576 802 546 c 0,16,17
 856 515 856 515 856 499 c 0,18,19
 856 490 856 490 846 477 c 0,20,21
 818 441 818 441 808 270 c 0,22,23
 798 96 798 96 773 19 c 0,24,25
 749 -58 749 -58 702 -101 c 0,26,27
 656 -144 656 -144 633 -144 c 0,28,29
 627 -144 627 -144 616 -119 c 0,30,31
 596 -72 596 -72 507 0 c 0,32,33
 498 7 498 7 498 11 c 0,34,35
 498 13 498 13 503 13 c 0,36,37
 507 13 507 13 512 12 c 0,38,39
 604 -15 604 -15 658 -15 c 0,40,41
 679 -15 679 -15 707 40 c 0,42,43
 734 94 734 94 746 216 c 0,44,45
 759 338 759 338 759 423 c 0,46,47
 759 503 759 503 729 503 c 0,48,49
 726 503 726 503 723 503 c 0,50,51
 659 503 659 503 552 483 c 0,52,53
 468 468 468 468 443 468 c 0,54,55
 412 468 412 468 358 483 c 1,56,57
 308 421 308 421 214 346 c 256,58,59
 120 271 120 271 87 271 c 0,60,61
 84 271 84 271 84 273 c 0,62,63
 84 277 84 277 93 284 c 0,64,65
 204 366 204 366 296 490 c 256,66,67
 388 614 388 614 388 681 c 0,68,69
 388 690 388 690 386 707 c 0,70,71
 384 720 384 720 384 725 c 0,72,73
 384 738 384 738 395 738 c 0,74,75
 411 738 411 738 452 710 c 0,76,77
 493 683 493 683 493 665 c 0,0,1
EndSplineSet
Validated: 1
EndChar

StartChar: uni624B
Encoding: 25163 25163 64
Width: 1024
GlyphClass: 2
Flags: W
LayerCount: 2
Fore
SplineSet
607 741 m 1,0,1
 626 741 626 741 673 720 c 0,2,3
 720 698 720 698 720 682 c 0,4,5
 720 670 720 670 550 624 c 0,6,7
 493 609 493 609 475 604 c 1,8,9
 515 599 515 599 528 590 c 0,10,11
 542 580 542 580 545 539 c 0,12,13
 545 532 545 532 547 508 c 0,14,15
 549 491 549 491 549 489 c 1,16,17
 597 497 597 497 646 520 c 1,18,19
 672 530 672 530 682 531 c 1,20,21
 682 531 682 531 683 531 c 0,22,23
 705 531 705 531 735 518 c 0,24,25
 766 505 766 505 766 489 c 0,26,27
 766 478 766 478 656 468 c 0,28,29
 609 464 609 464 554 453 c 1,30,31
 569 392 569 392 569 314 c 1,32,33
 667 319 667 319 809 358 c 0,34,35
 835 365 835 365 844 365 c 0,36,37
 867 365 867 365 906 348 c 256,38,39
 945 331 945 331 945 312 c 0,40,41
 945 299 945 299 887 298 c 0,42,43
 733 297 733 297 572 274 c 1,44,45
 580 228 580 228 580 129 c 0,46,47
 580 117 580 117 580 103 c 0,48,49
 578 -43 578 -43 538 -100 c 0,50,51
 498 -156 498 -156 467 -156 c 0,52,53
 459 -156 459 -156 449 -133 c 1,54,55
 424 -84 424 -84 330 -22 c 0,56,57
 311 -9 311 -9 311 -4 c 0,58,59
 311 -1 311 -1 319 -1 c 0,60,61
 324 -1 324 -1 332 -2 c 0,62,63
 434 -23 434 -23 465 -23 c 0,64,65
 522 -23 522 -23 522 156 c 0,66,67
 522 194 522 194 519 265 c 1,68,69
 511 264 511 264 486 260 c 0,70,71
 286 229 286 229 150 198 c 0,72,73
 148 198 148 198 147 198 c 0,74,75
 133 198 133 198 109 218 c 1,76,77
 84 237 84 237 84 249 c 0,78,79
 84 256 84 256 95 257 c 0,80,81
 230 262 230 262 517 307 c 1,82,83
 511 410 511 410 503 442 c 1,84,85
 411 427 411 427 335 405 c 0,86,87
 333 404 333 404 331 404 c 0,88,89
 316 404 316 404 294 422 c 1,90,91
 271 439 271 439 271 449 c 0,92,93
 271 454 271 454 283 455 c 0,94,95
 431 465 431 465 498 481 c 1,96,97
 481 552 481 552 445 600 c 1,98,99
 373 577 373 577 291 577 c 0,100,101
 266 577 266 577 266 581 c 0,102,103
 266 584 266 584 284 590 c 1,104,105
 525 649 525 649 586 729 c 0,106,107
 597 744 597 744 607 741 c 1,0,1
EndSplineSet
Validated: 1
EndChar

StartChar: uni624C
Encoding: 25164 25164 65
Width: 1024
GlyphClass: 2
Flags: W
LayerCount: 2
Fore
SplineSet
474 725 m 1,0,1
 493 725 493 725 535 703 c 0,2,3
 577 682 577 682 577 665 c 0,4,5
 577 662 577 662 576 660 c 0,6,7
 559 626 559 626 550 475 c 1,8,9
 562 479 562 479 587 492 c 1,10,11
 611 506 611 506 621 506 c 0,12,13
 638 506 638 506 662 491 c 0,14,15
 685 477 685 477 685 462 c 0,16,17
 685 452 685 452 644 446 c 0,18,19
 590 437 590 437 549 426 c 1,20,-1
 547 251 l 1,21,22
 713 335 713 335 725 335 c 0,23,24
 730 335 730 335 730 331 c 0,25,26
 730 324 730 324 674 289 c 1,27,28
 599 234 599 234 548 207 c 1,29,30
 548 147 548 147 555 -1 c 0,31,32
 555 -5 555 -5 555 -10 c 0,33,34
 555 -64 555 -64 525 -104 c 0,35,36
 496 -144 496 -144 475 -144 c 0,37,38
 469 -144 469 -144 458 -116 c 0,39,40
 433 -58 433 -58 375 -21 c 0,41,42
 365 -15 365 -15 365 -9 c 0,43,44
 365 -6 365 -6 373 -6 c 0,45,46
 377 -6 377 -6 383 -7 c 0,47,48
 440 -19 440 -19 476 -19 c 0,49,50
 495 -19 495 -19 497 41 c 0,51,52
 499 100 499 100 499 176 c 1,53,54
 408 126 408 126 327 72 c 1,55,56
 293 48 293 48 278 47 c 0,57,58
 267 47 267 47 241 79 c 1,59,60
 214 110 214 110 214 123 c 0,61,62
 214 132 214 132 230 132 c 1,63,64
 242 131 242 131 249 131 c 0,65,66
 304 132 304 132 500 228 c 1,67,-1
 500 410 l 1,68,69
 430 390 430 390 367 360 c 0,70,71
 365 360 365 360 363 360 c 0,72,73
 348 360 348 360 327 379 c 1,74,75
 305 397 305 397 305 407 c 0,76,77
 305 412 305 412 311 413 c 0,78,79
 418 432 418 432 502 456 c 1,80,81
 502 490 502 490 499 537 c 0,82,83
 499 538 499 538 499 540 c 0,84,85
 492 659 492 659 463 701 c 0,86,87
 461 704 461 704 461 708 c 0,88,89
 461 723 461 723 474 725 c 1,0,1
EndSplineSet
Validated: 1
EndChar

StartChar: uni53E3
Encoding: 21475 21475 66
Width: 1024
GlyphClass: 2
Flags: W
LayerCount: 2
Fore
SplineSet
679 564 m 0,0,1
 697 564 697 564 748 533 c 0,2,3
 798 503 798 503 799 485 c 0,4,5
 799 484 799 484 799 484 c 2,6,7
 799 477 799 477 786 460 c 1,8,9
 751 405 751 405 723 286 c 0,10,11
 695 168 695 168 695 150 c 0,12,13
 695 148 695 148 706 145 c 0,14,15
 742 133 742 133 742 115 c 0,16,17
 742 91 742 91 618 88 c 0,18,19
 569 87 569 87 478 82 c 1,20,21
 364 77 364 77 349 77 c 256,22,23
 334 77 334 77 304 85 c 1,24,25
 304 6 304 6 287 6 c 0,26,27
 261 6 261 6 244 185 c 0,28,29
 222 414 222 414 173 491 c 0,30,31
 171 494 171 494 171 498 c 0,32,33
 171 510 171 510 186 510 c 0,34,35
 189 510 189 510 191 510 c 0,36,37
 241 497 241 497 272 497 c 0,38,39
 441 497 441 497 633 553 c 0,40,41
 672 564 672 564 679 564 c 0,0,1
270 464 m 1,42,43
 303 319 303 319 303 114 c 1,44,45
 590 142 590 142 634 146 c 1,46,47
 641 166 641 166 653 297 c 0,48,49
 666 428 666 428 666 455 c 0,50,51
 666 490 666 490 640 490 c 0,52,53
 627 490 627 490 504 478 c 0,54,55
 357 463 357 463 304 463 c 0,56,57
 285 463 285 463 270 464 c 1,42,43
EndSplineSet
Validated: 1
EndChar

StartChar: uni5C38
Encoding: 23608 23608 67
Width: 1024
GlyphClass: 2
Flags: W
LayerCount: 2
Fore
SplineSet
729 692 m 1,0,1
 751 692 751 692 797 667 c 0,2,3
 843 643 843 643 843 625 c 0,4,5
 843 616 843 616 821 597 c 1,6,7
 753 532 753 532 735 433 c 1,8,9
 794 428 794 428 794 404 c 0,10,11
 794 384 794 384 707 375 c 0,12,13
 706 375 706 375 706 375 c 1,14,15
 688 373 688 373 631 367 c 1,16,17
 560 361 560 361 526 357 c 0,18,19
 431 348 431 348 389 348 c 0,20,21
 364 348 364 348 355 351 c 1,22,23
 355 253 355 253 318 139 c 0,24,25
 282 25 282 25 198 -64 c 256,26,27
 114 -153 114 -153 70 -153 c 0,28,29
 67 -153 67 -153 67 -151 c 0,30,31
 67 -146 67 -146 81 -134 c 0,32,33
 297 37 297 37 297 411 c 0,34,35
 297 572 297 572 270 619 c 0,36,37
 267 624 267 624 267 630 c 0,38,39
 267 644 267 644 282 644 c 0,40,41
 285 644 285 644 304 639 c 0,42,43
 388 620 388 620 389 620 c 0,44,45
 532 620 532 620 694 682 c 0,46,47
 724 693 724 693 729 692 c 1,0,1
634 611 m 0,48,49
 472 581 472 581 386 581 c 0,50,51
 375 581 375 581 365 581 c 1,52,53
 366 548 366 548 366 529 c 0,54,55
 366 476 366 476 360 386 c 1,56,57
 527 399 527 399 624 413 c 1,58,59
 652 419 652 419 666 422 c 0,60,61
 679 425 679 425 686 446 c 0,62,63
 693 468 693 468 700 498 c 0,64,65
 717 575 717 575 717 605 c 0,66,67
 717 622 717 622 703 622 c 0,68,69
 698 622 698 622 634 611 c 0,48,49
EndSplineSet
Validated: 33
EndChar

StartChar: uni531A
Encoding: 21274 21274 68
Width: 1024
GlyphClass: 2
Flags: W
LayerCount: 2
Fore
SplineSet
543 0 m 1,0,1
 630 7 630 7 728 25 c 1,2,3
 778 36 778 36 796 36 c 0,4,5
 829 36 829 36 868 11 c 256,6,7
 907 -14 907 -14 907 -35 c 0,8,9
 907 -48 907 -48 868 -48 c 0,10,11
 851 -48 851 -48 806 -45 c 0,12,13
 742 -41 742 -41 710 -41 c 0,14,15
 574 -41 574 -41 415 -59 c 1,16,17
 255 -76 255 -76 211 -102 c 0,18,19
 210 -102 210 -102 210 -102 c 2,20,21
 202 -102 202 -102 182 -73 c 0,22,23
 163 -44 163 -44 163 -31 c 0,24,25
 163 -27 163 -27 166 -25 c 0,26,27
 217 2 217 2 217 315 c 0,28,29
 217 366 217 366 216 476 c 0,30,31
 215 577 215 577 191 644 c 0,32,33
 190 646 190 646 190 648 c 0,34,35
 190 662 190 662 205 662 c 0,36,37
 209 662 209 662 213 661 c 0,38,39
 266 637 266 637 311 637 c 0,40,41
 471 637 471 637 678 692 c 0,42,43
 714 701 714 701 726 701 c 0,44,45
 751 701 751 701 790 680 c 1,46,47
 828 658 828 658 828 638 c 0,48,49
 828 626 828 626 686 624 c 0,50,51
 632 623 632 623 431 603 c 0,52,53
 327 593 327 593 318 593 c 0,54,55
 310 593 310 593 280 598 c 1,56,57
 280 239 280 239 258 -23 c 1,58,59
 510 -1 510 -1 543 0 c 1,0,1
EndSplineSet
Validated: 1
EndChar

StartChar: uni5EFF
Encoding: 24319 24319 69
Width: 1024
GlyphClass: 2
Flags: W
LayerCount: 2
Fore
SplineSet
721 676 m 0,0,1
 721 674 721 674 720 673 c 0,2,3
 698 610 698 610 698 401 c 1,4,5
 754 407 754 407 827 426 c 0,6,7
 870 437 870 437 885 437 c 0,8,9
 912 437 912 437 948 417 c 0,10,11
 984 398 984 398 984 376 c 0,12,13
 984 361 984 361 921 361 c 0,14,15
 879 361 879 361 867 361 c 0,16,17
 801 361 801 361 742 357 c 0,18,19
 719 355 719 355 698 354 c 1,20,21
 696 291 696 291 696 220 c 0,22,23
 696 197 696 197 696 169 c 0,24,25
 696 34 696 34 676 -48 c 0,26,27
 655 -130 655 -130 617 -130 c 0,28,29
 609 -130 609 -130 602 -86 c 0,30,31
 593 -33 593 -33 583 -16 c 0,32,33
 572 2 572 2 538 2 c 0,34,35
 506 2 506 2 431 -7 c 0,36,37
 379 -14 379 -14 364 -14 c 0,38,39
 360 -14 360 -14 358 -14 c 1,40,41
 356 -100 356 -100 336 -100 c 0,42,43
 324 -100 324 -100 313 -70 c 0,44,45
 303 -40 303 -40 303 -11 c 0,46,47
 303 -8 303 -8 303 -5 c 0,48,49
 308 90 308 90 308 180 c 0,50,51
 308 264 308 264 306 314 c 1,52,53
 178 299 178 299 101 282 c 0,54,55
 99 281 99 281 97 281 c 0,56,57
 82 281 82 281 61 303 c 0,58,59
 41 324 41 324 41 338 c 0,60,61
 41 344 41 344 48 344 c 0,62,63
 69 344 69 344 92 344 c 0,64,65
 219 344 219 344 304 355 c 1,66,67
 297 559 297 559 269 608 c 1,68,69
 256 634 256 634 256 642 c 0,70,71
 256 656 256 656 267 656 c 0,72,73
 287 656 287 656 332 638 c 0,74,75
 377 619 377 619 377 602 c 0,76,77
 377 601 377 601 377 601 c 1,78,79
 364 484 364 484 364 367 c 0,80,81
 364 364 364 364 364 362 c 1,82,83
 607 387 607 387 641 392 c 1,84,85
 640 397 640 397 640 419 c 0,86,87
 637 641 637 641 609 699 c 0,88,89
 595 729 595 729 595 734 c 0,90,91
 595 749 595 749 609 749 c 0,92,93
 624 749 624 749 674 722 c 0,94,95
 724 694 724 694 721 676 c 0,0,1
360 319 m 1,96,97
 360 302 360 302 360 205 c 0,98,99
 360 78 360 78 358 17 c 1,100,101
 456 48 456 48 547 48 c 0,102,103
 589 48 589 48 608 -4 c 1,104,105
 636 23 636 23 636 349 c 1,106,107
 487 337 487 337 360 319 c 1,96,97
EndSplineSet
Validated: 33
EndChar

StartChar: uni8279
Encoding: 33401 33401 70
Width: 1024
GlyphClass: 2
Flags: W
LayerCount: 2
Fore
SplineSet
322 357 m 1,0,1
 307 411 307 411 271 461 c 1,2,3
 253 480 253 480 274 491 c 0,4,5
 287 497 287 497 308 492 c 0,6,7
 323 489 323 489 343 481 c 1,8,9
 361 475 361 475 363 451 c 1,10,11
 364 414 364 414 371 364 c 1,12,13
 428 371 428 371 470 378 c 1,14,15
 485 379 485 379 488 370 c 1,16,17
 489 361 489 361 482 355 c 1,18,19
 463 346 463 346 444 339 c 1,20,-1
 375 320 l 1,21,22
 378 287 378 287 384 249 c 1,23,24
 387 222 387 222 382 202 c 0,25,26
 379 190 379 190 363 201 c 1,27,28
 345 216 345 216 341 239 c 1,29,30
 338 272 338 272 331 308 c 1,31,-1
 209 272 l 1,32,33
 190 268 190 268 167 276 c 0,34,35
 134 288 134 288 117 308 c 1,36,37
 108 317 108 317 111 328 c 0,38,39
 112 332 112 332 127 333 c 1,40,41
 151 333 151 333 198 340 c 2,42,-1
 322 357 l 1,0,1
705 361 m 1,43,44
 683 307 683 307 658 260 c 1,45,46
 640 229 640 229 624 217 c 128,-1,47
 608 205 608 205 606 220 c 1,48,49
 606 235 606 235 615 259 c 2,50,-1
 652 351 l 1,51,52
 643 348 643 348 636 345 c 1,53,54
 596 335 596 335 576 338 c 1,55,56
 558 342 558 342 534 357 c 0,57,58
 513 369 513 369 542 376 c 1,59,60
 611 388 611 388 672 403 c 1,61,62
 684 439 684 439 693 471 c 1,63,64
 702 508 702 508 693 543 c 0,65,66
 689 555 689 555 697 560 c 0,67,68
 715 569 715 569 733 558 c 0,69,70
 767 537 767 537 782 519 c 1,71,72
 789 509 789 509 774 491 c 0,73,74
 743 451 743 451 727 415 c 1,75,76
 766 424 766 424 802 434 c 1,77,78
 829 440 829 440 852 436 c 1,79,80
 883 429 883 429 902 412 c 1,81,82
 917 400 917 400 913 387 c 0,83,84
 910 377 910 377 893 377 c 0,85,86
 862 378 862 378 816 374 c 0,87,88
 756 368 756 368 706 361 c 1,89,-1
 705 361 l 1,43,44
EndSplineSet
EndChar

StartChar: uni4491
Encoding: 17553 17553 71
Width: 1024
GlyphClass: 2
Flags: W
LayerCount: 2
Fore
SplineSet
792 616 m 0,0,1
 792 603 792 603 779 582 c 1,2,3
 755 539 755 539 738 494 c 1,4,5
 663 277 663 277 597 146 c 1,6,7
 656 151 656 151 752 170 c 1,8,9
 807 182 807 182 828 182 c 0,10,11
 868 182 868 182 907 160 c 0,12,13
 946 139 946 139 946 114 c 0,14,15
 946 100 946 100 911 100 c 0,16,17
 896 100 896 100 851 103 c 0,18,19
 772 109 772 109 719 109 c 0,20,21
 425 109 425 109 152 58 c 0,22,23
 151 57 151 57 148 57 c 0,24,25
 132 57 132 57 103 79 c 1,26,27
 75 102 75 102 75 113 c 0,28,29
 75 117 75 117 81 117 c 2,30,31
 81 117 81 117 82 117 c 0,32,33
 108 116 108 116 142 116 c 0,34,35
 330 116 330 116 564 142 c 1,36,37
 689 491 689 491 689 616 c 0,38,39
 689 633 689 633 679 657 c 0,40,41
 675 666 675 666 675 669 c 0,42,43
 675 683 675 683 688 683 c 0,44,45
 706 683 706 683 749 657 c 0,46,47
 792 632 792 632 792 616 c 0,0,1
392 215 m 0,48,49
 372 215 372 215 321 343 c 0,50,51
 250 519 250 519 206 634 c 1,52,53
 280 593 280 593 382 417 c 1,54,55
 420 333 420 333 420 273 c 0,56,57
 420 215 420 215 392 215 c 0,48,49
EndSplineSet
Validated: 1
EndChar

StartChar: uni4E31
Encoding: 20017 20017 72
Width: 1024
GlyphClass: 2
Flags: W
LayerCount: 2
Fore
SplineSet
180 588 m 0,0,1
 199 588 199 588 232 574 c 1,2,3
 264 562 264 562 264 548 c 2,4,-1
 267 263 l 1,5,6
 319 268 319 268 401 274 c 0,7,8
 406 275 406 275 409 275 c 1,9,10
 416 361 416 361 416 485 c 0,11,12
 416 553 416 553 408 603 c 1,13,14
 406 640 406 640 381 672 c 0,15,16
 376 677 376 677 376 684 c 0,17,18
 376 696 376 696 404 696 c 0,19,20
 438 696 438 696 467 678 c 1,21,22
 484 669 484 669 484 656 c 0,23,24
 484 647 484 647 477 632 c 1,25,26
 467 605 467 605 467 584 c 0,27,28
 463 399 463 399 454 276 c 1,29,30
 441 154 441 154 415 80 c 1,31,32
 378 -19 378 -19 311 -72 c 1,33,34
 269 -108 269 -108 252 -108 c 2,35,-1
 248 -108 l 1,36,37
 287 -69 287 -69 318 -16 c 0,38,39
 367 68 367 68 388 151 c 0,40,41
 398 189 398 189 406 248 c 1,42,43
 396 246 396 246 384 243 c 0,44,45
 299 222 299 222 267 206 c 1,46,47
 246 197 246 197 220 172 c 1,48,49
 202 172 202 172 193 188 c 1,50,51
 172 216 172 216 172 232 c 0,52,53
 172 241 172 241 180 247 c 0,54,55
 198 261 198 261 200 271 c 1,56,57
 212 298 212 298 212 362 c 0,58,59
 212 414 212 414 201 493 c 0,60,61
 197 528 197 528 172 556 c 1,62,63
 168 564 168 564 168 572 c 0,64,65
 168 588 168 588 180 588 c 0,0,1
824 604 m 0,66,67
 853 604 853 604 877 589 c 1,68,69
 916 567 916 567 916 548 c 0,70,71
 916 546 916 546 907 539 c 1,72,73
 898 526 898 526 895 510 c 1,74,75
 879 463 879 463 865 404 c 0,76,77
 854 358 854 358 840 312 c 1,78,79
 846 309 846 309 852 304 c 0,80,81
 876 281 876 281 876 272 c 1,82,83
 874 268 874 268 869 268 c 0,84,85
 799 268 799 268 730 260 c 1,86,87
 670 252 670 252 656 252 c 0,88,89
 653 252 653 252 650 253 c 1,90,91
 649 148 649 148 647 98 c 0,92,93
 644 -23 644 -23 631 -95 c 0,94,95
 617 -168 617 -168 604 -168 c 0,96,97
 595 -168 595 -168 593 -95 c 1,98,99
 588 -67 588 -67 588 644 c 0,100,101
 588 706 588 706 564 744 c 1,102,103
 564 751 564 751 577 751 c 0,104,105
 601 751 601 751 624 743 c 1,106,107
 664 725 664 725 664 707 c 0,108,109
 664 697 664 697 662 685 c 1,110,111
 652 664 652 664 652 608 c 0,112,113
 652 418 652 418 651 293 c 1,114,115
 675 296 675 296 709 301 c 0,116,117
 759 308 759 308 788 317 c 1,118,-1
 790 317 l 1,119,120
 820 465 820 465 820 508 c 0,121,122
 820 537 820 537 806 578 c 1,123,124
 800 589 800 589 800 596 c 0,125,126
 800 604 800 604 824 604 c 0,66,67
EndSplineSet
Validated: 1
EndChar

StartChar: uni5C71
Encoding: 23665 23665 73
Width: 1024
GlyphClass: 2
Flags: W
LayerCount: 2
Fore
SplineSet
441 711 m 0,0,1
 457 711 457 711 503 691 c 0,2,3
 549 670 549 670 549 653 c 0,4,5
 549 652 549 652 549 650 c 0,6,7
 530 593 530 593 529 399 c 0,8,9
 528 226 528 226 523 94 c 1,10,11
 534 96 534 96 653 102 c 0,12,13
 656 102 656 102 658 102 c 0,14,15
 677 103 677 103 790 103 c 1,16,17
 796 212 796 212 796 293 c 0,18,19
 796 378 796 378 766 440 c 0,20,21
 764 444 764 444 764 447 c 0,22,23
 764 462 764 462 778 462 c 0,24,25
 794 462 794 462 838 436 c 256,26,27
 882 410 882 410 882 392 c 0,28,29
 882 388 882 388 878 375 c 0,30,31
 859 317 859 317 842 127 c 1,32,33
 821 -89 821 -89 796 -89 c 0,34,35
 780 -89 780 -89 780 -20 c 0,36,37
 780 -7 780 -7 781 6 c 1,38,39
 781 6 781 6 781 7 c 0,40,41
 782 44 782 44 785 66 c 1,42,43
 323 52 323 52 238 -23 c 0,44,45
 214 -44 214 -44 202 -44 c 0,46,47
 191 -44 191 -44 175 -20 c 0,48,49
 159 5 159 5 159 17 c 0,50,51
 159 24 159 24 171 40 c 1,52,53
 183 54 183 54 189 68 c 0,54,55
 196 83 196 83 197 182 c 0,56,57
 197 194 197 194 197 197 c 256,58,59
 197 200 197 200 197 204 c 0,60,61
 197 286 197 286 152 346 c 0,62,63
 139 362 139 362 139 368 c 0,64,65
 139 381 139 381 152 381 c 256,66,67
 165 381 165 381 209 365 c 1,68,69
 245 353 245 353 249 340 c 0,70,71
 253 326 253 326 253 300 c 0,72,73
 253 288 253 288 250 245 c 1,74,75
 244 106 244 106 244 72 c 0,76,77
 244 66 244 66 244 62 c 1,78,79
 259 65 259 65 300 70 c 0,80,81
 338 75 338 75 359 78 c 0,82,83
 387 82 387 82 433 87 c 0,84,85
 458 89 458 89 466 90 c 1,86,87
 467 172 467 172 468 388 c 1,88,89
 468 617 468 617 434 673 c 0,90,91
 423 691 423 691 423 702 c 0,92,93
 423 712 423 712 441 711 c 0,0,1
EndSplineSet
Validated: 1
EndChar

StartChar: uni51F5
Encoding: 20981 20981 74
Width: 1024
GlyphClass: 2
Flags: W
LayerCount: 2
Fore
SplineSet
152 556 m 0,0,1
 172 556 172 556 211 540 c 0,2,3
 248 525 248 525 248 508 c 2,4,-1
 251 65 l 1,5,6
 413 85 413 85 750 117 c 0,7,8
 775 119 775 119 791 120 c 1,9,10
 792 130 792 130 793 138 c 0,11,12
 800 306 800 306 800 585 c 0,13,14
 800 617 800 617 777 629 c 1,15,16
 768 635 768 635 768 648 c 256,17,18
 768 661 768 661 792 661 c 0,19,20
 821 661 821 661 865 635 c 1,21,22
 896 622 896 622 896 604 c 0,23,24
 896 597 896 597 891 587 c 1,25,26
 877 575 877 575 876 556 c 0,27,28
 854 72 854 72 845 19 c 1,29,30
 837 -22 837 -22 827 -39 c 1,31,32
 816 -51 816 -51 808 -51 c 0,33,34
 797 -51 797 -51 786 -29 c 1,35,36
 775 -17 775 -17 775 9 c 1,37,38
 776 9 776 9 778 26 c 0,39,40
 783 58 783 58 786 84 c 1,41,42
 779 83 779 83 771 81 c 0,43,44
 470 43 470 43 362 15 c 1,45,46
 286 1 286 1 196 -43 c 1,47,48
 175 -43 175 -43 165 -25 c 1,49,50
 143 6 143 6 143 24 c 0,51,52
 143 32 143 32 154 36 c 1,53,54
 173 47 173 47 176 53 c 1,55,56
 191 74 191 74 191 122 c 0,57,58
 191 277 191 277 176 459 c 1,59,60
 171 497 171 497 140 525 c 1,61,62
 135 534 135 534 135 541 c 0,63,64
 135 556 135 556 152 556 c 0,0,1
EndSplineSet
Validated: 1
EndChar

StartChar: uni5C6E
Encoding: 23662 23662 75
Width: 1024
GlyphClass: 2
Flags: W
LayerCount: 2
Fore
SplineSet
468 266 m 1,0,1
 468 310 468 310 469 529 c 1,2,3
 465 711 465 711 432 758 c 0,4,5
 427 765 427 765 427 771 c 0,6,7
 427 781 427 781 441 779 c 1,8,9
 464 779 464 779 510 760 c 0,10,11
 556 740 556 740 556 720 c 0,12,13
 556 716 556 716 553 703 c 0,14,15
 538 650 538 650 534 537 c 2,16,-1
 527 303 l 1,17,-1
 527 270 l 1,18,19
 612 275 612 275 713 280 c 1,20,21
 733 282 733 282 747 283 c 1,22,23
 749 297 749 297 749 309 c 1,24,25
 758 363 758 363 758 493 c 0,26,27
 758 524 758 524 739 537 c 0,28,29
 730 543 730 543 730 557 c 0,30,31
 730 565 730 565 754 565 c 0,32,33
 782 565 782 565 823 541 c 1,34,35
 850 529 850 529 850 513 c 0,36,37
 850 506 850 506 845 495 c 1,38,39
 831 482 831 482 830 465 c 0,40,41
 815 278 815 278 806 218 c 0,42,43
 799 172 799 172 790 155 c 1,44,45
 777 142 777 142 766 142 c 0,46,47
 756 142 756 142 747 165 c 1,48,49
 738 177 738 177 738 203 c 1,50,51
 739 203 739 203 741 221 c 0,52,53
 742 236 742 236 744 248 c 1,54,55
 737 247 737 247 728 245 c 1,56,57
 612 236 612 236 527 226 c 1,58,59
 523 -176 523 -176 488 -176 c 0,60,61
 465 -176 465 -176 465 -30 c 1,62,63
 467 147 467 147 468 219 c 1,64,65
 390 208 390 208 346 195 c 1,66,67
 274 180 274 180 190 135 c 1,68,69
 170 135 170 135 160 153 c 1,70,71
 138 185 138 185 138 203 c 0,72,73
 138 214 138 214 150 220 c 1,74,75
 176 237 176 237 179 248 c 1,76,77
 194 280 194 280 194 358 c 0,78,79
 194 379 194 379 183 451 c 1,80,81
 173 492 173 492 162 515 c 0,82,83
 157 524 157 524 157 533 c 0,84,85
 157 549 157 549 173 549 c 0,86,87
 194 549 194 549 218 543 c 1,88,89
 254 527 254 527 254 511 c 2,90,-1
 247 244 l 1,91,92
 332 256 332 256 468 266 c 1,0,1
EndSplineSet
Validated: 1
EndChar

StartChar: uni4E5A
Encoding: 20058 20058 76
Width: 1024
GlyphClass: 2
Flags: W
LayerCount: 2
Fore
SplineSet
366 652 m 0,0,1
 366 645 366 645 359 620 c 0,2,3
 330 521 330 521 329 384 c 0,4,5
 328 319 328 319 328 295 c 0,6,7
 328 94 328 94 372 50 c 256,8,9
 416 6 416 6 547 -1 c 1,10,11
 669 -1 669 -1 757 20 c 0,12,13
 845 42 845 42 865 108 c 0,14,15
 886 175 886 175 894 263 c 0,16,17
 897 294 897 294 903 294 c 0,18,19
 908 294 908 294 909 264 c 0,20,21
 913 143 913 143 922 117 c 1,22,23
 930 90 930 90 946 54 c 0,24,25
 949 47 949 47 949 41 c 0,26,27
 949 1 949 1 844 -35 c 0,28,29
 738 -71 738 -71 594 -71 c 0,30,31
 391 -71 391 -71 317 21 c 1,32,33
 276 67 276 67 276 200 c 0,34,35
 276 225 276 225 279 346 c 1,36,37
 279 433 279 433 279 486 c 1,38,39
 280 537 280 537 280 560 c 0,40,41
 280 644 280 644 246 696 c 0,42,43
 243 701 243 701 243 706 c 0,44,45
 243 717 243 717 254 717 c 0,46,47
 267 717 267 717 315 692 c 0,48,49
 364 667 364 667 366 652 c 0,0,1
EndSplineSet
Validated: 1
EndChar

StartChar: uni5973
Encoding: 22899 22899 77
Width: 1024
GlyphClass: 2
Flags: W
LayerCount: 2
Fore
SplineSet
406 740 m 1,0,1
 424 740 424 740 467 709 c 0,2,3
 510 679 510 679 510 660 c 0,4,5
 510 658 510 658 509 656 c 0,6,7
 486 611 486 611 444 461 c 0,8,9
 425 393 425 393 418 371 c 1,10,11
 418 371 418 371 612 392 c 1,12,13
 612 444 612 444 601 480 c 0,14,15
 600 481 600 481 600 482 c 0,16,17
 600 498 600 498 614 498 c 0,18,19
 629 498 629 498 664 482 c 0,20,21
 698 466 698 466 698 450 c 0,22,23
 698 439 698 439 690 414 c 0,24,25
 687 404 687 404 686 400 c 1,26,27
 763 409 763 409 834 425 c 0,28,29
 861 431 861 431 869 431 c 0,30,31
 894 431 894 431 933 409 c 0,32,33
 972 388 972 388 972 370 c 0,34,35
 972 357 972 357 937 357 c 0,36,37
 923 357 923 357 887 360 c 0,38,39
 848 363 848 363 829 363 c 0,40,41
 818 363 818 363 805 363 c 0,42,43
 767 363 767 363 679 360 c 1,44,45
 637 197 637 197 600 130 c 1,46,47
 808 30 808 30 808 -76 c 0,48,49
 808 -104 808 -104 790 -104 c 0,50,51
 775 -104 775 -104 711 -31 c 0,52,53
 662 25 662 25 573 88 c 1,54,55
 493 -6 493 -6 343 -59 c 0,56,57
 194 -111 194 -111 109 -111 c 0,58,59
 96 -111 96 -111 96 -107 c 0,60,61
 96 -102 96 -102 115 -96 c 0,62,63
 411 -17 411 -17 519 113 c 1,64,65
 511 119 511 119 299 183 c 1,66,67
 339 291 339 291 347 326 c 1,68,69
 178 304 178 304 125 296 c 0,70,71
 124 295 124 295 123 295 c 0,72,73
 110 295 110 295 88 315 c 1,74,75
 67 336 67 336 67 347 c 0,76,77
 67 352 67 352 73 352 c 0,78,79
 74 352 74 352 74 352 c 1,80,81
 93 351 93 351 116 351 c 0,82,83
 230 351 230 351 361 368 c 1,84,85
 408 548 408 548 408 644 c 0,86,87
 408 674 408 674 396 708 c 0,88,89
 393 718 393 718 393 720 c 0,90,91
 393 741 393 741 406 740 c 1,0,1
407 331 m 1,92,93
 400 310 400 310 376 246 c 0,94,95
 365 215 365 215 360 204 c 1,96,97
 479 183 479 183 545 149 c 1,98,99
 604 247 604 247 609 352 c 1,100,101
 559 346 559 346 407 331 c 1,92,93
EndSplineSet
Validated: 1
EndChar

StartChar: uni7530
Encoding: 30000 30000 78
Width: 1024
GlyphClass: 2
Flags: W
LayerCount: 2
Fore
SplineSet
894 531 m 0,0,1
 894 523 894 523 890 517 c 0,2,3
 854 469 854 469 842 330 c 0,4,5
 808 -54 808 -54 714 -54 c 0,6,7
 706 -54 706 -54 700 -3 c 0,8,9
 690 91 690 91 614 96 c 1,10,11
 569 92 569 92 468 80 c 0,12,13
 351 66 351 66 311 63 c 0,14,15
 309 63 309 63 307 63 c 0,16,17
 303 64 303 64 296 66 c 1,18,19
 292 66 292 66 290 67 c 1,20,21
 290 59 290 59 291 46 c 256,22,23
 292 33 292 33 292 24 c 0,24,25
 292 -15 292 -15 270 -15 c 0,26,27
 236 -15 236 -15 224 143 c 0,28,29
 206 395 206 395 141 532 c 0,30,31
 140 534 140 534 140 536 c 0,32,33
 140 548 140 548 154 548 c 0,34,35
 156 548 156 548 163 547 c 0,36,37
 237 533 237 533 259 533 c 0,38,39
 293 533 293 533 483 563 c 0,40,41
 674 593 674 593 738 609 c 0,42,43
 762 615 762 615 768 615 c 0,44,45
 795 615 795 615 844 580 c 0,46,47
 893 546 893 546 894 531 c 0,0,1
506 527 m 1,48,49
 538 504 538 504 538 481 c 0,50,51
 538 474 538 474 534 446 c 0,52,53
 524 387 524 387 523 353 c 1,54,55
 548 357 548 357 594 374 c 1,56,57
 628 385 628 385 637 385 c 0,58,59
 655 385 655 385 683 369 c 0,60,61
 711 354 711 354 711 338 c 0,62,63
 711 325 711 325 607 321 c 0,64,65
 570 320 570 320 520 311 c 1,66,67
 518 192 518 192 514 130 c 1,68,69
 636 146 636 146 654 146 c 0,70,71
 696 146 696 146 736 83 c 1,72,73
 751 96 751 96 766 219 c 256,74,75
 781 342 781 342 781 453 c 0,76,77
 781 534 781 534 770 545 c 0,78,79
 759 555 759 555 732 555 c 0,80,81
 667 555 667 555 506 527 c 1,48,49
260 493 m 0,82,83
 254 493 254 493 245 494 c 0,84,85
 240 495 240 495 238 495 c 1,86,87
 248 463 248 463 266 297 c 0,88,89
 285 131 285 131 286 94 c 0,90,91
 287 94 287 94 463 123 c 1,92,93
 464 144 464 144 464 208 c 0,94,95
 465 272 465 272 466 302 c 1,96,97
 394 290 394 290 353 279 c 0,98,99
 351 278 351 278 350 278 c 0,100,101
 337 278 337 278 318 297 c 0,102,103
 300 315 300 315 300 325 c 0,104,105
 300 330 300 330 304 330 c 0,106,107
 406 335 406 335 467 346 c 1,108,109
 459 513 459 513 445 519 c 1,110,111
 418 516 418 516 359 507 c 0,112,113
 275 494 275 494 260 493 c 0,82,83
EndSplineSet
Validated: 1
EndChar

StartChar: uni56D7
Encoding: 22231 22231 79
Width: 1024
GlyphClass: 2
Flags: W
LayerCount: 2
Fore
SplineSet
713 691 m 0,0,1
 730 691 730 691 780 660 c 0,2,3
 830 630 830 630 830 612 c 1,4,5
 830 612 830 612 829 609 c 0,6,7
 807 548 807 548 807 441 c 2,8,-1
 807 326 l 2,9,10
 807 280 807 280 812 200 c 0,11,12
 816 127 816 127 816 90 c 0,13,14
 816 -110 816 -110 760 -110 c 0,15,16
 751 -110 751 -110 735 -61 c 1,17,18
 698 61 698 61 630 61 c 0,19,20
 495 61 495 61 299 16 c 0,21,22
 292 15 292 15 286 15 c 0,23,24
 271 15 271 15 248 25 c 1,25,26
 242 -66 242 -66 209 -66 c 0,27,28
 208 -66 208 -66 208 -66 c 1,29,30
 197 -65 197 -65 185 -34 c 0,31,32
 174 -3 174 -3 174 25 c 0,33,34
 174 50 174 50 185 128 c 0,35,36
 199 220 199 220 199 280 c 2,37,-1
 199 519 l 2,38,39
 199 562 199 562 171 627 c 0,40,41
 170 630 170 630 170 632 c 0,42,43
 170 640 170 640 184 640 c 0,44,45
 197 640 197 640 227 631 c 0,46,47
 251 623 251 623 268 619 c 1,48,49
 460 619 460 619 662 679 c 0,50,51
 701 691 701 691 713 691 c 0,0,1
257 579 m 1,52,53
 258 571 258 571 258 474 c 0,54,55
 258 123 258 123 249 57 c 1,56,57
 633 113 633 113 653 113 c 0,58,59
 691 113 691 113 739 79 c 1,60,-1
 739 466 l 2,61,62
 739 625 739 625 696 625 c 0,63,64
 686 625 686 625 535 607 c 1,65,66
 313 579 313 579 257 579 c 1,52,53
EndSplineSet
Validated: 1
EndChar

StartChar: uni535C
Encoding: 21340 21340 80
Width: 1024
GlyphClass: 2
Flags: W
LayerCount: 2
Fore
SplineSet
507 683 m 0,0,1
 507 680 507 680 506 676 c 0,2,3
 484 620 484 620 484 467 c 1,4,5
 483 402 483 402 483 335 c 0,6,7
 483 275 483 275 484 235 c 0,8,9
 485 173 485 173 493 39 c 0,10,11
 494 23 494 23 494 6 c 0,12,13
 494 -158 494 -158 459 -158 c 1,14,15
 444 -157 444 -157 426 -116 c 256,16,17
 408 -75 408 -75 408 -45 c 0,18,19
 408 -40 408 -40 409 -36 c 0,20,21
 430 95 430 95 430 238 c 0,22,23
 430 357 430 357 426 519 c 0,24,25
 424 635 424 635 388 704 c 0,26,27
 379 723 379 723 379 732 c 0,28,29
 379 745 379 745 392 745 c 0,30,31
 412 745 412 745 459 725 c 0,32,33
 506 704 506 704 507 683 c 0,0,1
526 439 m 1,34,35
 542 439 542 439 557 439 c 0,36,37
 699 439 699 439 784 402 c 256,38,39
 869 365 869 365 869 305 c 0,40,41
 869 274 869 274 837 274 c 0,42,43
 814 274 814 274 746 317 c 0,44,45
 690 353 690 353 598 400 c 0,46,47
 549 425 549 425 526 439 c 1,34,35
EndSplineSet
Validated: 1
EndChar

StartChar: uni4EA0
Encoding: 20128 20128 81
Width: 1024
GlyphClass: 2
Flags: W
LayerCount: 2
Fore
SplineSet
580 557 m 0,0,1
 580 507 580 507 544 507 c 0,2,3
 511 507 511 507 456 577 c 0,4,5
 401 648 401 648 386 684 c 1,6,7
 580 669 580 669 580 557 c 0,0,1
144 303 m 0,8,9
 143 303 143 303 142 303 c 0,10,11
 127 303 127 303 98 328 c 0,12,13
 70 352 70 352 70 363 c 0,14,15
 70 369 70 369 76 369 c 0,16,17
 197 370 197 370 505 410 c 0,18,19
 506 410 506 410 506 410 c 1,20,21
 627 425 627 425 756 450 c 1,22,23
 815 460 815 460 831 461 c 1,24,25
 831 461 831 461 833 461 c 0,26,27
 862 461 862 461 912 433 c 0,28,29
 963 405 963 405 963 383 c 0,30,31
 963 369 963 369 922 369 c 0,32,33
 905 369 905 369 860 372 c 0,34,35
 795 375 795 375 760 375 c 0,36,37
 563 375 563 375 144 303 c 0,8,9
EndSplineSet
Validated: 1
EndChar

StartChar: uni8FB6
Encoding: 36790 36790 82
Width: 1024
GlyphClass: 2
Flags: W
LayerCount: 2
Fore
SplineSet
196 656 m 4,0,1
 210 656 210 656 229 651 c 4,2,3
 275 639 275 639 300 622 c 5,4,5
 319 607 319 607 319 576 c 4,6,7
 319 562 319 562 308 546 c 5,8,9
 296 532 296 532 284 532 c 4,10,11
 271 532 271 532 260 546 c 5,12,13
 236 567 236 567 194 638 c 5,14,15
 187 645 187 645 187 649 c 5,16,17
 189 656 189 656 196 656 c 4,0,1
288 433 m 4,18,19
 304 433 304 433 340 421 c 5,20,21
 380 403 380 403 380 381 c 4,22,23
 380 370 380 370 362 359 c 5,24,25
 318 341 318 341 308 323 c 4,26,27
 280 267 280 267 280 249 c 4,28,29
 280 245 280 245 283 233 c 5,30,31
 336 174 336 174 336 129 c 4,32,33
 336 107 336 107 322 80 c 5,34,35
 319 77 319 77 318 76 c 5,36,37
 370 69 370 69 516 19 c 4,38,39
 587 -6 587 -6 678 -21 c 5,40,41
 725 -30 725 -30 976 -35 c 4,42,43
 980 -35 980 -35 980 -43 c 4,44,45
 980 -46 980 -46 971 -49 c 5,46,47
 912 -87 912 -87 843 -108 c 5,48,49
 787 -127 787 -127 760 -127 c 4,50,51
 745 -127 745 -127 738 -123 c 5,52,53
 678 -103 678 -103 632 -82 c 5,54,55
 449 6 449 6 346 36 c 4,56,57
 327 41 327 41 307 41 c 4,58,59
 264 41 264 41 175 27 c 4,60,61
 159 24 159 24 152 24 c 4,62,63
 137 24 137 24 120 37 c 5,64,65
 95 51 95 51 95 64 c 4,66,67
 95 72 95 72 99 72 c 4,68,69
 234 76 234 76 292 77 c 5,70,71
 293 83 293 83 292 89 c 5,72,73
 292 119 292 119 273 152 c 5,74,75
 259 192 259 192 232 218 c 5,76,77
 223 232 223 232 223 249 c 4,78,79
 223 271 223 271 275 347 c 5,80,-1
 275 349 l 6,81,82
 275 352 275 352 267 352 c 5,83,84
 218 337 218 337 187 337 c 4,85,86
 152 337 152 337 129 346 c 4,87,88
 112 352 112 352 112 360 c 260,89,90
 112 368 112 368 124 368 c 4,91,92
 162 368 162 368 202 383 c 5,93,94
 239 394 239 394 269 424 c 5,95,96
 280 433 280 433 288 433 c 4,18,19
EndSplineSet
Validated: 1
EndChar

StartChar: uni9FB7
Encoding: 40887 40887 83
Width: 1024
GlyphClass: 2
Flags: W
LayerCount: 2
Fore
SplineSet
677 455 m 1,0,1
 710 463 710 463 736 472 c 0,2,3
 769 483 769 483 782 483 c 0,4,5
 860 482 860 482 864 460 c 1,6,7
 863 442 863 442 845 433 c 1,8,9
 810 418 810 418 778 413 c 1,10,11
 726 401 726 401 673 390 c 1,12,-1
 652 78 l 1,13,14
 672 80 672 80 682 81 c 0,15,16
 769 87 769 87 822 92 c 0,17,18
 853 95 853 95 871 95 c 0,19,20
 898 95 898 95 933 76 c 1,21,22
 968 55 968 55 972 36 c 1,23,24
 969 13 969 13 928 11 c 1,25,26
 900 11 900 11 839 17 c 1,27,-1
 787 19 l 1,28,29
 658 19 658 19 501 6 c 1,30,31
 337 -6 337 -6 205 -27 c 1,32,33
 155 -36 155 -36 139 -36 c 0,34,35
 122 -36 122 -36 98 -22 c 1,36,37
 69 -1 69 -1 68 4 c 1,38,39
 68 12 68 12 84 15 c 1,40,41
 175 24 175 24 358 44 c 1,42,43
 356 216 356 216 353 338 c 1,44,45
 328 335 328 335 303 332 c 1,46,47
 271 326 271 326 252 326 c 0,48,49
 223 326 223 326 189 339 c 1,50,51
 158 349 158 349 158 359 c 256,52,53
 158 369 158 369 174 371 c 0,54,55
 269 382 269 382 351 394 c 1,56,57
 345 539 345 539 335 597 c 1,58,59
 326 659 326 659 312 679 c 1,60,61
 302 699 302 699 302 706 c 0,62,63
 302 718 302 718 318 718 c 0,64,65
 352 718 352 718 380 712 c 1,66,67
 431 685 431 685 431 665 c 0,68,69
 431 654 431 654 427 635 c 0,70,71
 416 566 416 566 413 486 c 1,72,73
 410 461 410 461 410 403 c 1,74,75
 525 420 525 420 610 439 c 1,76,-1
 616 610 l 1,77,78
 616 655 616 655 595 692 c 1,79,80
 583 727 583 727 583 732 c 0,81,82
 583 746 583 746 594 747 c 1,83,84
 614 747 614 747 651 733 c 0,85,86
 697 715 697 715 697 696 c 1,87,88
 681 578 681 578 680 493 c 1,89,-1
 677 455 l 1,0,1
608 377 m 1,90,91
 511 359 511 359 410 345 c 1,92,93
 411 219 411 219 411 50 c 1,94,95
 531 65 531 65 586 72 c 1,96,97
 594 165 594 165 605 296 c 1,98,-1
 608 377 l 1,90,91
EndSplineSet
Validated: 1
EndChar

StartChar: uniA000
Encoding: 40960 40960 84
Width: 1024
GlyphClass: 2
Flags: W
LayerCount: 2
Fore
SplineSet
164 517 m 0,0,1
 184 517 184 517 214 509 c 1,2,3
 233 501 233 501 240 493 c 1,4,5
 257 494 257 494 283 501 c 1,6,7
 471 526 471 526 596 535 c 1,8,9
 702 547 702 547 763 566 c 0,10,11
 771 568 771 568 775 568 c 0,12,13
 797 568 797 568 836 550 c 1,14,15
 888 517 888 517 888 501 c 0,16,17
 888 492 888 492 879 484 c 1,18,19
 851 446 851 446 845 425 c 1,20,21
 836 399 836 399 835 374 c 0,22,23
 823 180 823 180 812 119 c 1,24,25
 793 28 793 28 772 -5 c 1,26,27
 754 -39 754 -39 727 -39 c 1,28,29
 718 -37 718 -37 713 -25 c 0,30,31
 695 25 695 25 681 74 c 1,32,33
 565 71 565 71 452 58 c 0,34,35
 335 45 335 45 307 45 c 0,36,37
 306 45 306 45 305 45 c 2,38,-1
 307 33 l 1,39,40
 305 -11 305 -11 288 -11 c 0,41,42
 273 -11 273 -11 262 7 c 0,43,44
 252 22 252 22 252 33 c 1,45,46
 230 100 230 100 216 265 c 1,47,48
 203 365 203 365 181 424 c 1,49,50
 168 477 168 477 143 501 c 1,51,52
 143 517 143 517 164 517 c 0,0,1
301 81 m 1,53,54
 358 84 358 84 460 96 c 0,55,56
 466 97 466 97 471 97 c 1,57,58
 473 203 473 203 473 273 c 0,59,60
 472 401 472 401 467 424 c 1,61,62
 458 449 458 449 447 464 c 0,63,64
 439 475 439 475 436 482 c 1,65,66
 359 472 359 472 258 452 c 0,67,68
 254 451 254 451 251 450 c 1,69,-1
 301 81 l 1,53,54
527 104 m 1,70,71
 595 113 595 113 641 124 c 0,72,73
 660 129 660 129 676 129 c 0,74,75
 702 129 702 129 721 113 c 0,76,77
 725 109 725 109 727 107 c 1,78,79
 730 119 730 119 735 142 c 1,80,81
 754 205 754 205 762 297 c 1,82,83
 771 365 771 365 771 480 c 0,84,85
 771 505 771 505 735 505 c 0,86,87
 658 505 658 505 550 495 c 1,88,89
 528 494 528 494 504 491 c 1,90,91
 507 489 507 489 509 488 c 0,92,93
 548 472 548 472 548 456 c 1,94,95
 547 447 547 447 545 436 c 1,96,97
 537 410 537 410 530 278 c 0,98,99
 527 206 527 206 527 104 c 1,70,71
EndSplineSet
Validated: 1
EndChar

StartChar: uniA004
Encoding: 40964 40964 85
Width: 1024
GlyphClass: 2
Flags: W
LayerCount: 2
Fore
SplineSet
288 645 m 0,0,1
 304 645 304 645 329 630 c 0,2,3
 343 622 343 622 345 617 c 1,4,5
 373 619 373 619 394 622 c 1,6,7
 464 636 464 636 562 654 c 0,8,9
 608 663 608 663 630 676 c 1,10,11
 646 681 646 681 656 681 c 0,12,13
 668 681 668 681 703 666 c 1,14,15
 744 645 744 645 744 629 c 0,16,17
 744 623 744 623 741 616 c 1,18,19
 727 562 727 562 727 401 c 0,20,21
 727 369 727 369 739 182 c 0,22,23
 748 39 748 39 748 -11 c 0,24,25
 748 -36 748 -36 738 -78 c 1,26,27
 720 -116 720 -116 703 -119 c 1,28,29
 689 -118 689 -118 677 -97 c 1,30,31
 656 -46 656 -46 655 -18 c 1,32,33
 656 -11 656 -11 663 35 c 1,34,35
 671 107 671 107 671 340 c 0,36,37
 671 436 671 436 660 608 c 1,38,39
 660 624 660 624 635 624 c 0,40,41
 605 624 605 624 527 618 c 1,42,43
 443 608 443 608 340 582 c 1,44,45
 339 559 339 559 339 524 c 0,46,47
 336 172 336 172 328 -20 c 1,48,49
 326 -35 326 -35 316 -53 c 1,50,51
 303 -68 303 -68 295 -68 c 0,52,53
 277 -68 277 -68 266 -30 c 1,54,55
 255 1 255 1 255 16 c 1,56,57
 256 16 256 16 258 32 c 1,58,59
 278 129 278 129 282 185 c 0,60,61
 292 309 292 309 292 496 c 1,62,63
 286 597 286 597 269 624 c 1,64,65
 267 634 267 634 267 637 c 0,66,67
 267 645 267 645 288 645 c 0,0,1
492 388 m 1,68,69
 432 372 432 372 409 372 c 0,70,71
 385 372 385 372 359 379 c 1,72,73
 338 386 338 386 338 393 c 0,74,75
 338 403 338 403 350 404 c 0,76,77
 431 413 431 413 492 431 c 0,78,79
 544 447 544 447 575 452 c 0,80,81
 603 456 603 456 616 456 c 0,82,83
 664 456 664 456 664 428 c 0,84,85
 664 419 664 419 646 416 c 0,86,87
 582 404 582 404 492 388 c 1,68,69
494 194 m 1,88,89
 434 178 434 178 411 178 c 0,90,91
 387 178 387 178 361 185 c 1,92,93
 340 192 340 192 340 199 c 0,94,95
 340 209 340 209 352 210 c 0,96,97
 433 219 433 219 494 237 c 0,98,99
 546 253 546 253 577 258 c 0,100,101
 605 262 605 262 618 262 c 0,102,103
 666 262 666 262 666 234 c 0,104,105
 666 225 666 225 648 222 c 0,106,107
 584 210 584 210 494 194 c 1,88,89
EndSplineSet
EndChar

StartChar: uniA006
Encoding: 40966 40966 86
Width: 1024
GlyphClass: 2
Flags: W
LayerCount: 2
Fore
SplineSet
504 720 m 0,0,1
 524 720 524 720 554 705 c 0,2,3
 592 685 592 685 592 672 c 0,4,5
 592 665 592 665 581 650 c 0,6,7
 564 627 564 627 540 582 c 1,8,9
 509 520 509 520 476 471 c 1,10,11
 477 472 477 472 479 472 c 0,12,13
 594 487 594 487 647 513 c 1,14,15
 672 527 672 527 683 527 c 0,16,17
 713 527 713 527 755 501 c 0,18,19
 800 474 800 474 800 452 c 0,20,21
 800 447 800 447 783 437 c 0,22,23
 742 412 742 412 700 317 c 1,24,25
 601 134 601 134 532 70 c 1,26,27
 419 -46 419 -46 264 -116 c 1,28,29
 170 -162 170 -162 131 -164 c 0,30,31
 120 -164 120 -164 120 -157 c 0,32,33
 120 -152 120 -152 141 -142 c 1,34,35
 390 5 390 5 509 137 c 1,36,37
 590 221 590 221 680 439 c 1,38,39
 680 460 680 460 664 460 c 1,40,41
 518 428 518 428 504 428 c 0,42,43
 484 428 484 428 452 436 c 1,44,45
 419 392 419 392 391 363 c 0,46,47
 382 355 382 355 374 348 c 1,48,49
 379 348 379 348 383 348 c 0,50,51
 406 348 406 348 442 334 c 1,52,53
 485 319 485 319 510 284 c 1,54,55
 530 258 530 258 530 220 c 0,56,57
 530 212 530 212 524 205 c 0,58,59
 519 200 519 200 511 200 c 0,60,61
 494 200 494 200 428 269 c 1,62,63
 372 325 372 325 362 338 c 1,64,65
 236 240 236 240 200 240 c 0,66,67
 183 240 183 240 183 244 c 0,68,69
 183 249 183 249 227 287 c 1,70,71
 357 386 357 386 428 502 c 1,72,73
 487 610 487 610 496 668 c 1,74,75
 496 681 496 681 489 696 c 1,76,77
 487 705 487 705 487 708 c 0,78,79
 487 720 487 720 504 720 c 0,0,1
240 236 m 0,80,81
 249 236 249 236 268 233 c 1,82,83
 302 219 302 219 338 202 c 1,84,85
 382 176 382 176 397 156 c 1,86,87
 408 137 408 137 408 116 c 0,88,89
 408 101 408 101 401 84 c 1,90,91
 394 72 394 72 381 72 c 0,92,93
 369 72 369 72 364 76 c 0,94,95
 349 88 349 88 317 126 c 1,96,97
 273 191 273 191 257 205 c 0,98,99
 236 223 236 223 236 231 c 0,100,101
 236 236 236 236 240 236 c 0,80,81
EndSplineSet
Validated: 1
EndChar

StartChar: uniA009
Encoding: 40969 40969 87
Width: 1024
GlyphClass: 2
Flags: W
LayerCount: 2
Fore
SplineSet
504 720 m 0,0,1
 524 720 524 720 554 705 c 0,2,3
 592 685 592 685 592 672 c 0,4,5
 592 665 592 665 581 650 c 0,6,7
 564 627 564 627 540 582 c 1,8,9
 509 520 509 520 476 471 c 1,10,11
 477 472 477 472 479 472 c 0,12,13
 594 487 594 487 647 513 c 1,14,15
 672 527 672 527 683 527 c 0,16,17
 713 527 713 527 755 501 c 0,18,19
 800 474 800 474 800 452 c 0,20,21
 800 447 800 447 783 437 c 0,22,23
 742 412 742 412 700 317 c 1,24,25
 601 134 601 134 532 70 c 1,26,27
 419 -46 419 -46 264 -116 c 1,28,29
 170 -162 170 -162 131 -164 c 0,30,31
 120 -164 120 -164 120 -157 c 0,32,33
 120 -152 120 -152 141 -142 c 1,34,35
 390 5 390 5 509 137 c 1,36,37
 590 221 590 221 680 439 c 1,38,39
 680 460 680 460 664 460 c 1,40,41
 518 428 518 428 504 428 c 0,42,43
 484 428 484 428 452 436 c 1,44,45
 419 392 419 392 391 363 c 0,46,47
 382 355 382 355 374 348 c 1,48,49
 379 348 379 348 383 348 c 0,50,51
 406 348 406 348 442 334 c 1,52,53
 485 319 485 319 510 284 c 1,54,55
 530 258 530 258 530 220 c 0,56,57
 530 212 530 212 524 205 c 0,58,59
 519 200 519 200 511 200 c 0,60,61
 494 200 494 200 428 269 c 1,62,63
 372 325 372 325 362 338 c 1,64,65
 236 240 236 240 200 240 c 0,66,67
 183 240 183 240 183 244 c 0,68,69
 183 249 183 249 227 287 c 1,70,71
 357 386 357 386 428 502 c 1,72,73
 487 610 487 610 496 668 c 1,74,75
 496 681 496 681 489 696 c 1,76,77
 487 705 487 705 487 708 c 0,78,79
 487 720 487 720 504 720 c 0,0,1
489 181 m 0,80,81
 494 181 494 181 494 176 c 0,82,83
 494 173 494 173 483 167 c 0,84,85
 445 143 445 143 361 97 c 1,86,87
 314 75 314 75 253 35 c 0,88,89
 244 29 244 29 239 29 c 0,90,91
 226 29 226 29 199 52 c 1,92,93
 167 86 167 86 167 96 c 256,94,95
 167 106 167 106 178 106 c 0,96,97
 197 107 197 107 216 114 c 1,98,99
 302 124 302 124 448 171 c 0,100,101
 482 181 482 181 489 181 c 0,80,81
EndSplineSet
Validated: 1
EndChar

StartChar: uniA00C
Encoding: 40972 40972 88
Width: 1024
GlyphClass: 2
Flags: W
LayerCount: 2
Fore
SplineSet
311 681 m 0,0,1
 328 681 328 681 364 661 c 1,2,3
 408 638 408 638 408 622 c 0,4,5
 408 617 408 617 401 604 c 1,6,7
 395 588 395 588 392 503 c 1,8,9
 392 314 392 314 285 205 c 1,10,11
 176 100 176 100 87 97 c 0,12,13
 80 97 80 97 80 105 c 0,14,15
 80 110 80 110 115 132 c 1,16,17
 206 185 206 185 258 270 c 1,18,19
 327 374 327 374 327 488 c 0,20,21
 327 593 327 593 305 649 c 1,22,23
 296 669 296 669 296 670 c 0,24,25
 296 681 296 681 311 681 c 0,0,1
594 703 m 0,26,27
 613 703 613 703 644 689 c 1,28,29
 686 668 686 668 686 648 c 0,30,31
 686 643 686 643 675 614 c 1,32,33
 662 574 662 574 649 466 c 1,34,35
 646 403 646 403 646 321 c 0,36,37
 646 220 646 220 672 189 c 0,38,39
 699 158 699 158 770 158 c 1,40,41
 828 165 828 165 903 177 c 1,42,43
 924 177 924 177 952 170 c 1,44,45
 976 155 976 155 976 143 c 0,46,47
 976 122 976 122 928 107 c 1,48,49
 870 93 870 93 789 90 c 1,50,51
 721 90 721 90 673 118 c 1,52,53
 629 137 629 137 607 175 c 1,54,55
 581 225 581 225 581 321 c 0,56,57
 581 372 581 372 594 563 c 1,58,59
 594 627 594 627 573 680 c 1,60,61
 573 703 573 703 594 703 c 0,26,27
EndSplineSet
Validated: 1
EndChar

StartChar: uniA00F
Encoding: 40975 40975 89
Width: 1024
GlyphClass: 2
Flags: W
LayerCount: 2
Fore
SplineSet
748 382 m 1,0,1
 678 382 678 382 536 368 c 1,2,3
 538 250 538 250 547 154 c 1,4,5
 556 32 556 32 556 12 c 0,6,7
 556 -51 556 -51 525 -107 c 1,8,9
 502 -145 502 -145 484 -145 c 0,10,11
 467 -145 467 -145 452 -118 c 1,12,13
 422 -69 422 -69 353 -3 c 1,14,15
 335 12 335 12 335 16 c 256,16,17
 335 20 335 20 344 20 c 0,18,19
 350 20 350 20 386 8 c 0,20,21
 425 -4 425 -4 455 -4 c 0,22,23
 471 -4 471 -4 477 16 c 1,24,25
 488 44 488 44 488 99 c 0,26,27
 488 286 488 286 484 363 c 1,28,29
 451 360 451 360 418 356 c 0,30,31
 330 346 330 346 208 319 c 1,32,33
 162 305 162 305 147 305 c 0,34,35
 130 305 130 305 108 320 c 0,36,37
 81 337 81 337 80 342 c 1,38,39
 80 350 80 350 95 353 c 1,40,41
 181 363 181 363 333 386 c 1,42,43
 399 397 399 397 482 408 c 1,44,45
 478 548 478 548 472 590 c 0,46,47
 459 673 459 673 423 712 c 0,48,49
 404 734 404 734 404 740 c 0,50,51
 404 752 404 752 432 752 c 0,52,53
 449 752 449 752 502 734 c 1,54,55
 553 710 553 710 556 683 c 0,56,57
 556 681 556 681 545 656 c 1,58,59
 535 614 535 614 535 561 c 2,60,-1
 535 415 l 1,61,62
 656 431 656 431 682 433 c 0,63,64
 733 438 733 438 781 446 c 0,65,66
 810 450 810 450 827 450 c 0,67,68
 853 450 853 450 884 431 c 1,69,70
 916 413 916 413 920 393 c 1,71,72
 918 375 918 375 880 374 c 0,73,74
 853 374 853 374 796 380 c 1,75,-1
 748 382 l 1,0,1
EndSplineSet
Validated: 1
EndChar

StartChar: uniA011
Encoding: 40977 40977 90
Width: 1024
GlyphClass: 2
Flags: W
LayerCount: 2
Fore
SplineSet
359 394 m 1,0,-1
 363 600 l 2,1,2
 363 647 363 647 346 686 c 1,3,4
 325 723 325 723 325 728 c 0,5,6
 325 745 325 745 346 748 c 1,7,8
 363 748 363 748 397 731 c 1,9,10
 441 713 441 713 441 691 c 1,11,12
 422 564 422 564 421 475 c 2,13,-1
 420 405 l 1,14,15
 759 463 759 463 797 483 c 1,16,17
 817 492 817 492 831 492 c 1,18,19
 848 490 848 490 879 467 c 0,20,21
 913 442 913 442 913 429 c 0,22,23
 913 417 913 417 894 399 c 1,24,25
 885 380 885 380 872 353 c 1,26,27
 773 -104 773 -104 749 -125 c 1,28,29
 738 -136 738 -136 722 -137 c 1,30,31
 700 -133 700 -133 695 -98 c 1,32,33
 696 -69 696 -69 703 -32 c 1,34,35
 770 161 770 161 807 425 c 1,36,37
 807 433 807 433 792 433 c 1,38,39
 562 388 562 388 419 360 c 1,40,-1
 412 20 l 2,41,42
 410 -59 410 -59 404 -117 c 1,43,44
 393 -164 393 -164 369 -164 c 0,45,46
 359 -164 359 -164 336 -122 c 0,47,48
 318 -89 318 -89 319 -69 c 1,49,50
 319 -45 319 -45 337 8 c 1,51,52
 354 130 354 130 356 265 c 1,53,-1
 358 348 l 1,54,55
 187 315 187 315 183 315 c 0,56,57
 149 315 149 315 126 327 c 0,58,59
 101 340 101 340 101 350 c 0,60,61
 102 362 102 362 128 365 c 1,62,63
 206 365 206 365 359 394 c 1,0,-1
EndSplineSet
Validated: 33
EndChar

StartChar: uniA015
Encoding: 40981 40981 92
Width: 1024
GlyphClass: 2
Flags: W
LayerCount: 2
Fore
SplineSet
547 652 m 0,0,1
 547 649 547 649 546 645 c 0,2,3
 524 594 524 594 524 455 c 1,4,5
 523 396 523 396 523 335 c 0,6,7
 523 281 523 281 524 244 c 0,8,9
 525 188 525 188 533 66 c 0,10,11
 534 52 534 52 534 36 c 0,12,13
 534 -113 534 -113 499 -113 c 1,14,15
 484 -112 484 -112 466 -75 c 256,16,17
 448 -38 448 -38 448 -10 c 0,18,19
 448 -6 448 -6 449 -2 c 0,20,21
 470 117 470 117 470 247 c 0,22,23
 470 355 470 355 466 503 c 0,24,25
 464 608 464 608 428 671 c 0,26,27
 419 688 419 688 419 696 c 0,28,29
 419 708 419 708 432 708 c 0,30,31
 452 708 452 708 499 690 c 0,32,33
 546 671 546 671 547 652 c 0,0,1
425 311 m 0,34,35
 433 311 433 311 433 303 c 256,36,37
 433 295 433 295 407 269 c 0,38,39
 258 118 258 118 217 64 c 1,40,41
 198 35 198 35 187 35 c 0,42,43
 173 35 173 35 136 76 c 1,44,45
 109 108 109 108 109 119 c 0,46,47
 109 129 109 129 136 133 c 1,48,49
 177 144 177 144 270 205 c 1,50,51
 420 311 420 311 425 311 c 0,34,35
174 534 m 0,52,53
 182 534 182 534 201 529 c 0,54,55
 239 517 239 517 276 500 c 1,56,57
 324 476 324 476 339 456 c 1,58,59
 351 437 351 437 351 416 c 0,60,61
 351 401 351 401 343 384 c 1,62,63
 334 369 334 369 321 369 c 0,64,65
 315 369 315 369 301 378 c 0,66,67
 281 392 281 392 249 435 c 0,68,69
 208 490 208 490 186 509 c 0,70,71
 169 523 169 523 169 530 c 0,72,73
 169 534 169 534 174 534 c 0,52,53
764 582 m 0,74,75
 780 582 780 582 813 565 c 0,76,77
 862 541 862 541 862 524 c 0,78,79
 862 518 862 518 844 510 c 1,80,81
 805 486 805 486 757 450 c 1,82,83
 694 407 694 407 612 383 c 1,84,85
 601 383 601 383 596 391 c 1,86,87
 604 401 604 401 634 421 c 1,88,89
 684 460 684 460 724 508 c 1,90,91
 752 545 752 545 752 563 c 0,92,93
 752 570 752 570 755 576 c 0,94,95
 759 582 759 582 764 582 c 0,74,75
586 316 m 0,96,97
 645 303 645 303 724 272 c 1,98,99
 823 221 823 221 872 167 c 1,100,101
 922 122 922 122 922 74 c 0,102,103
 922 43 922 43 905 43 c 0,104,105
 845 43 845 43 768 123 c 1,106,107
 726 171 726 171 676 223 c 1,108,109
 582 309 582 309 582 312 c 0,110,111
 582 316 582 316 586 316 c 0,96,97
EndSplineSet
Validated: 1
EndChar

StartChar: uniA01B
Encoding: 40987 40987 93
Width: 1024
GlyphClass: 2
Flags: W
LayerCount: 2
Fore
SplineSet
921 227 m 0,0,1
 921 179 921 179 887 179 c 0,2,3
 842 179 842 179 694 440 c 1,4,5
 921 365 921 365 921 227 c 0,0,1
144 126 m 0,6,7
 119 126 119 126 119 185 c 0,8,9
 119 225 119 225 144 255 c 1,10,11
 196 314 196 314 217 400 c 0,12,13
 223 422 223 422 229 436 c 1,14,15
 259 401 259 401 259 368 c 0,16,17
 259 308 259 308 222 217 c 256,18,19
 185 126 185 126 144 126 c 0,6,7
547 652 m 0,20,21
 547 649 547 649 546 645 c 0,22,23
 524 594 524 594 524 455 c 1,24,25
 523 396 523 396 523 335 c 0,26,27
 523 281 523 281 524 244 c 0,28,29
 525 188 525 188 533 66 c 0,30,31
 534 52 534 52 534 36 c 0,32,33
 534 -113 534 -113 499 -113 c 1,34,35
 484 -112 484 -112 466 -75 c 256,36,37
 448 -38 448 -38 448 -10 c 0,38,39
 448 -6 448 -6 449 -2 c 0,40,41
 470 117 470 117 470 247 c 0,42,43
 470 355 470 355 466 503 c 0,44,45
 464 608 464 608 428 671 c 0,46,47
 419 688 419 688 419 696 c 0,48,49
 419 708 419 708 432 708 c 0,50,51
 452 708 452 708 499 690 c 0,52,53
 546 671 546 671 547 652 c 0,20,21
EndSplineSet
Validated: 1
EndChar

StartChar: uniA01C
Encoding: 40988 40988 94
Width: 1024
GlyphClass: 2
Flags: W
LayerCount: 2
Fore
SplineSet
485 733 m 0,0,1
 516 733 516 733 539 716 c 1,2,3
 565 693 565 693 565 689 c 0,4,5
 565 677 565 677 560 665 c 0,6,7
 554 650 554 650 554 633 c 0,8,9
 554 468 554 468 558 312 c 1,10,11
 558 265 558 265 545 254 c 1,12,13
 532 232 532 232 518 232 c 0,14,15
 505 232 505 232 491 262 c 0,16,17
 478 289 478 289 478 341 c 0,18,19
 478 348 478 348 481 365 c 1,20,21
 488 392 488 392 488 400 c 0,22,23
 493 501 493 501 493 624 c 0,24,25
 493 666 493 666 478 686 c 1,26,27
 466 710 466 710 466 721 c 0,28,29
 466 733 466 733 485 733 c 0,0,1
180 567 m 0,30,31
 196 567 196 567 271 509 c 1,32,33
 334 455 334 455 334 390 c 0,34,35
 334 345 334 345 311 345 c 0,36,37
 270 345 270 345 201 497 c 0,38,39
 175 554 175 554 175 562 c 0,40,41
 175 567 175 567 180 567 c 0,30,31
906 585 m 0,42,43
 906 582 906 582 893 561 c 1,44,45
 859 518 859 518 832 483 c 1,46,47
 754 369 754 369 715 344 c 1,48,49
 695 326 695 326 689 334 c 1,50,51
 689 344 689 344 710 376 c 1,52,53
 778 494 778 494 803 585 c 1,54,55
 803 602 803 602 793 626 c 0,56,57
 789 635 789 635 789 638 c 0,58,59
 789 652 789 652 802 652 c 0,60,61
 820 652 820 652 863 626 c 0,62,63
 906 601 906 601 906 585 c 0,42,43
EndSplineSet
Validated: 1
EndChar

StartChar: uniA01D
Encoding: 40989 40989 95
Width: 1024
GlyphClass: 2
Flags: W
LayerCount: 2
Fore
SplineSet
286 126 m 0,0,1
 297 126 297 126 301 98 c 0,2,3
 305 76 305 76 305 56 c 0,4,5
 305 13 305 13 276 -45 c 0,6,7
 232 -131 232 -131 188 -131 c 0,8,9
 168 -131 168 -131 168 -100 c 0,10,11
 168 -64 168 -64 212 -8 c 1,12,13
 260 57 260 57 269 89 c 1,14,15
 278 126 278 126 286 126 c 0,0,1
719 142 m 0,16,17
 743 142 743 142 800 117 c 1,18,19
 864 87 864 87 902 27 c 1,20,21
 934 -18 934 -18 934 -61 c 0,22,23
 934 -96 934 -96 911 -96 c 0,24,25
 883 -96 883 -96 847 -43 c 1,26,27
 793 33 793 33 753 80 c 1,28,29
 711 127 711 127 711 134 c 0,30,31
 711 142 711 142 719 142 c 0,16,17
476 139 m 0,32,33
 490 139 490 139 517 114 c 1,34,35
 552 85 552 85 569 43 c 1,36,37
 586 9 586 9 586 -26 c 0,38,39
 586 -90 586 -90 551 -90 c 0,40,41
 534 -90 534 -90 513 -19 c 1,42,43
 502 25 502 25 481 88 c 0,44,45
 469 126 469 126 469 130 c 0,46,47
 469 139 469 139 476 139 c 0,32,33
EndSplineSet
Validated: 1
EndChar

StartChar: uniA028
Encoding: 41000 41000 96
Width: 1024
GlyphClass: 2
Flags: W
LayerCount: 2
Fore
SplineSet
514 674 m 0,0,1
 514 668 514 668 511 656 c 0,2,3
 500 613 500 613 497 550 c 0,4,5
 492 435 492 435 490 413 c 1,6,7
 667 436 667 436 757 460 c 1,8,9
 783 469 783 469 794 469 c 0,10,11
 820 469 820 469 857 449 c 0,12,13
 894 430 894 430 894 413 c 0,14,15
 894 397 894 397 833 397 c 2,16,-1
 782 397 l 2,17,18
 663 397 663 397 487 370 c 1,19,20
 486 363 486 363 485 348 c 0,21,22
 483 311 483 311 471 248 c 1,23,24
 429 70 429 70 294 -18 c 256,25,26
 159 -106 159 -106 65 -106 c 0,27,28
 57 -106 57 -106 57 -104 c 0,29,30
 57 -99 57 -99 77 -91 c 0,31,32
 409 40 409 40 429 362 c 1,33,34
 415 360 415 360 366 353 c 0,35,36
 214 331 214 331 169 319 c 0,37,38
 167 318 167 318 166 318 c 0,39,40
 151 318 151 318 129 339 c 0,41,42
 108 359 108 359 108 369 c 0,43,44
 108 374 108 374 113 374 c 0,45,46
 310 376 310 376 431 402 c 1,47,48
 432 438 432 438 432 475 c 0,49,50
 432 639 432 639 400 697 c 0,51,52
 394 709 394 709 394 715 c 0,53,54
 394 726 394 726 408 726 c 0,55,56
 427 726 427 726 471 708 c 0,57,58
 515 691 515 691 514 674 c 0,0,1
EndSplineSet
Validated: 33
EndChar

StartChar: uniA02F
Encoding: 41007 41007 97
Width: 1024
GlyphClass: 2
Flags: W
LayerCount: 2
Fore
SplineSet
603 687 m 1,0,1
 603 660 603 660 475 501 c 1,2,3
 485 497 485 497 506 497 c 0,4,5
 610 497 610 497 705 539 c 1,6,7
 730 552 730 552 739 552 c 0,8,9
 755 552 755 552 802 528 c 0,10,11
 849 505 849 505 849 491 c 0,12,13
 849 483 849 483 831 467 c 1,14,15
 802 438 802 438 780 400 c 1,16,17
 647 156 647 156 542 63 c 0,18,19
 436 -30 436 -30 311 -78 c 256,20,21
 186 -126 186 -126 145 -126 c 0,22,23
 140 -126 140 -126 140 -124 c 0,24,25
 140 -120 140 -120 163 -110 c 0,26,27
 371 -13 371 -13 475 77 c 1,28,29
 580 166 580 166 650 293 c 0,30,31
 721 420 721 420 721 464 c 0,32,33
 721 480 721 480 702 480 c 0,34,35
 688 480 688 480 624 472 c 0,36,37
 542 462 542 462 521 462 c 0,38,39
 497 462 497 462 463 487 c 1,40,41
 411 420 411 420 344 368 c 1,42,43
 225 272 225 272 174 272 c 0,44,45
 171 272 171 272 171 274 c 0,46,47
 171 279 171 279 194 295 c 0,48,49
 324 385 324 385 407 498 c 1,50,51
 489 612 489 612 492 687 c 0,52,53
 492 708 492 708 484 727 c 0,54,55
 482 731 482 731 482 735 c 0,56,57
 482 746 482 746 495 746 c 0,58,59
 518 746 518 746 561 725 c 0,60,61
 604 703 604 703 603 687 c 1,0,1
EndSplineSet
Validated: 33
EndChar

StartChar: uniA034
Encoding: 41012 41012 98
Width: 1024
GlyphClass: 2
Flags: W
LayerCount: 2
Fore
SplineSet
281 359 m 1,0,1
 237 291 237 291 179 228 c 1,2,3
 90 136 90 136 59 136 c 0,4,5
 55 136 55 136 55 140 c 0,6,7
 55 148 55 148 90 187 c 1,8,9
 210 329 210 329 276 479 c 1,10,11
 324 598 324 598 324 650 c 0,12,13
 324 667 324 667 319 684 c 1,14,15
 319 702 319 702 332 702 c 0,16,17
 341 702 341 702 379 681 c 1,18,19
 416 656 416 656 416 637 c 0,20,21
 416 632 416 632 407 619 c 0,22,23
 394 602 394 602 350 487 c 1,24,25
 332 445 332 445 309 405 c 1,26,27
 520 421 520 421 797 464 c 1,28,29
 860 478 860 478 864 478 c 0,30,31
 883 478 883 478 914 468 c 1,32,33
 943 455 943 455 943 443 c 0,34,35
 943 429 943 429 917 423 c 1,36,37
 435 368 435 368 281 359 c 1,0,1
EndSplineSet
Validated: 1
EndChar

StartChar: uniA035
Encoding: 41013 41013 99
Width: 1024
GlyphClass: 2
Flags: W
LayerCount: 2
Fore
SplineSet
290 482 m 1,0,1
 297 485 297 485 304 488 c 0,2,3
 517 575 517 575 646 670 c 1,4,5
 689 703 689 703 689 720 c 0,6,7
 689 727 689 727 692 734 c 1,8,9
 696 739 696 739 701 739 c 0,10,11
 719 739 719 739 756 721 c 0,12,13
 810 694 810 694 810 676 c 0,14,15
 810 671 810 671 784 664 c 1,16,17
 730 642 730 642 664 611 c 1,18,19
 525 531 525 531 303 460 c 1,20,21
 294 357 294 357 296 281 c 2,22,-1
 304 0 l 2,23,24
 305 -68 305 -68 301 -116 c 1,25,26
 293 -156 293 -156 273 -156 c 0,27,28
 263 -156 263 -156 241 -123 c 1,29,30
 224 -95 224 -95 224 -79 c 0,31,32
 223 -59 223 -59 237 -15 c 1,33,34
 247 90 247 90 245 204 c 1,35,-1
 239 387 l 2,36,37
 238 427 238 427 220 460 c 1,38,39
 201 492 201 492 201 496 c 0,40,41
 201 509 201 509 217 510 c 0,42,43
 233 510 233 510 262 497 c 0,44,45
 280 490 280 490 290 482 c 1,0,1
EndSplineSet
Validated: 33
EndChar

StartChar: uniA037
Encoding: 41015 41015 100
Width: 1024
GlyphClass: 2
Flags: W
LayerCount: 2
Fore
SplineSet
647 655 m 0,0,1
 664 655 664 655 699 635 c 0,2,3
 731 617 731 617 731 597 c 0,4,5
 731 590 731 590 712 581 c 1,6,7
 670 543 670 543 609 500 c 1,8,9
 492 412 492 412 306 347 c 1,10,11
 294 347 294 347 289 356 c 1,12,13
 297 368 297 368 333 387 c 1,14,15
 481 474 481 474 594 568 c 1,16,17
 634 612 634 612 634 633 c 0,18,19
 634 641 634 641 637 648 c 0,20,21
 641 655 641 655 647 655 c 0,0,1
307 326 m 0,22,23
 319 326 319 326 407 289 c 1,24,25
 737 110 737 110 742 4 c 1,26,27
 742 -47 742 -47 721 -47 c 0,28,29
 706 -47 706 -47 683 -20 c 0,30,31
 567 115 567 115 342 275 c 1,32,33
 291 309 291 309 291 318 c 0,34,35
 291 326 291 326 307 326 c 0,22,23
EndSplineSet
Validated: 1
EndChar

StartChar: uniA039
Encoding: 41017 41017 101
Width: 1024
GlyphClass: 2
Flags: W
LayerCount: 2
Fore
SplineSet
824 56 m 0,0,1
 825 56 825 56 826 56 c 0,2,3
 854 56 854 56 887 38 c 0,4,5
 920 19 920 19 920 2 c 0,6,7
 920 -49 920 -49 659 -49 c 0,8,9
 566 -49 566 -49 516 -27 c 0,10,11
 466 -4 466 -4 442 42 c 0,12,13
 419 88 419 88 419 300 c 1,14,15
 216 256 216 256 133 226 c 0,16,17
 131 225 131 225 129 225 c 0,18,19
 116 225 116 225 91 245 c 0,20,21
 67 264 67 264 67 275 c 0,22,23
 67 279 67 279 73 280 c 0,24,25
 164 290 164 290 270 312 c 0,26,27
 272 312 272 312 278 313 c 0,28,29
 395 338 395 338 419 345 c 1,30,31
 419 352 419 352 419 362 c 0,32,33
 419 601 419 601 383 669 c 0,34,35
 370 694 370 694 370 700 c 0,36,37
 370 711 370 711 383 711 c 0,38,39
 409 711 409 711 452 691 c 0,40,41
 495 670 495 670 495 648 c 0,42,43
 495 642 495 642 489 622 c 1,44,45
 476 564 476 564 476 515 c 2,46,-1
 477 359 l 1,47,48
 650 395 650 395 766 443 c 0,49,50
 810 461 810 461 825 461 c 0,51,52
 859 461 859 461 899 446 c 0,53,54
 939 432 939 432 939 413 c 0,55,56
 939 398 939 398 867 391 c 0,57,58
 785 383 785 383 475 313 c 1,59,60
 475 303 475 303 475 291 c 0,61,62
 475 90 475 90 513 53 c 256,63,64
 551 16 551 16 643 16 c 0,65,66
 724 16 724 16 788 45 c 0,67,68
 813 57 813 57 824 56 c 0,0,1
EndSplineSet
Validated: 33
EndChar

StartChar: uniA03E
Encoding: 41022 41022 102
Width: 1024
GlyphClass: 2
Flags: W
LayerCount: 2
Fore
SplineSet
329 598 m 0,0,1
 329 597 329 597 329 596 c 0,2,3
 302 469 302 469 295 279 c 1,4,5
 411 330 411 330 514 407 c 0,6,7
 617 485 617 485 620 551 c 0,8,9
 621 565 621 565 632 565 c 0,10,11
 649 565 649 565 694 536 c 0,12,13
 739 508 739 508 739 493 c 0,14,15
 739 485 739 485 605 403 c 256,16,17
 471 321 471 321 293 241 c 1,18,19
 293 101 293 101 314 65 c 0,20,21
 336 29 336 29 382 12 c 256,22,23
 428 -5 428 -5 505 -5 c 0,24,25
 584 -5 584 -5 640 7 c 256,26,27
 696 19 696 19 758 45 c 1,28,29
 824 78 824 78 848 56 c 0,30,31
 865 40 865 40 865 22 c 0,32,33
 865 -6 865 -6 766 -41 c 256,34,35
 667 -76 667 -76 535 -76 c 0,36,37
 378 -76 378 -76 310 -26 c 0,38,39
 243 24 243 24 243 164 c 0,40,41
 243 189 243 189 244 222 c 0,42,43
 248 301 248 301 248 419 c 0,44,45
 248 480 248 480 247 525 c 0,46,47
 247 570 247 570 219 622 c 0,48,49
 211 637 211 637 211 641 c 0,50,51
 211 657 211 657 224 657 c 0,52,53
 244 657 244 657 287 636 c 0,54,55
 330 614 330 614 329 598 c 0,0,1
EndSplineSet
Validated: 33
EndChar

StartChar: uniA041
Encoding: 41025 41025 103
Width: 1024
GlyphClass: 2
Flags: W
LayerCount: 2
Fore
SplineSet
651 770 m 0,0,1
 668 770 668 770 701 750 c 1,2,3
 752 721 752 721 752 699 c 0,4,5
 752 686 752 686 713 667 c 1,6,7
 629 610 629 610 528 530 c 1,8,9
 547 515 547 515 572 487 c 1,10,11
 637 421 637 421 669 332 c 0,12,13
 703 240 703 240 703 128 c 0,14,15
 703 18 703 18 652 -79 c 1,16,17
 605 -148 605 -148 567 -148 c 0,18,19
 548 -148 548 -148 531 -114 c 0,20,21
 505 -60 505 -60 452 11 c 1,22,23
 452 16 452 16 456 16 c 1,24,25
 472 10 472 10 501 -8 c 0,26,27
 529 -26 529 -26 555 -26 c 0,28,29
 602 -26 602 -26 624 36 c 1,30,31
 640 99 640 99 640 166 c 0,32,33
 640 205 640 205 632 245 c 1,34,35
 594 388 594 388 544 462 c 1,36,37
 526 491 526 491 507 515 c 1,38,39
 372 421 372 421 204 367 c 1,40,41
 193 367 193 367 187 377 c 1,42,43
 210 398 210 398 297 441 c 1,44,45
 443 524 443 524 558 630 c 1,46,47
 640 708 640 708 640 746 c 0,48,49
 640 756 640 756 642 763 c 1,50,51
 646 770 646 770 651 770 c 0,0,1
EndSplineSet
Validated: 1
EndChar

StartChar: uniA043
Encoding: 41027 41027 104
Width: 1024
GlyphClass: 2
Flags: W
LayerCount: 2
Fore
SplineSet
544 486 m 1,0,-1
 544 275 l 1,1,2
 652 291 652 291 690 295 c 0,3,4
 743 300 743 300 793 307 c 0,5,6
 821 311 821 311 840 311 c 0,7,8
 866 311 866 311 901 292 c 1,9,10
 936 271 936 271 939 252 c 1,11,12
 937 229 937 229 896 227 c 1,13,14
 868 227 868 227 807 233 c 1,15,-1
 756 236 l 1,16,17
 656 236 656 236 544 223 c 1,18,-1
 544 12 l 2,19,20
 544 -42 544 -42 529 -118 c 1,21,22
 514 -184 514 -184 496 -184 c 0,23,24
 483 -184 483 -184 483 -157 c 2,25,-1
 483 217 l 1,26,27
 331 201 331 201 209 173 c 1,28,29
 162 160 162 160 147 160 c 0,30,31
 129 160 129 160 106 175 c 0,32,33
 77 195 77 195 76 200 c 1,34,35
 76 208 76 208 91 212 c 1,36,37
 179 221 179 221 334 246 c 1,38,39
 419 258 419 258 483 267 c 1,40,-1
 483 482 l 1,41,42
 350 466 350 466 286 460 c 0,43,44
 240 455 240 455 214 457 c 256,45,46
 188 459 188 459 159 473 c 0,47,48
 132 485 132 485 133 494 c 0,49,50
 134 501 134 501 145 501 c 0,51,52
 270 507 270 507 483 531 c 1,53,-1
 483 580 l 2,54,55
 483 673 483 673 451 735 c 1,56,57
 439 753 439 753 439 756 c 0,58,59
 439 768 439 768 460 768 c 0,60,61
 475 768 475 768 514 753 c 1,62,63
 567 728 567 728 567 703 c 1,64,65
 565 697 565 697 554 667 c 1,66,67
 545 637 545 637 544 543 c 1,68,-1
 544 538 l 1,69,70
 697 554 697 554 735 563 c 0,71,72
 776 573 776 573 793 572 c 0,73,74
 864 565 864 565 866 543 c 1,75,76
 864 527 864 527 849 520 c 1,77,78
 816 511 816 511 787 509 c 0,79,80
 695 500 695 500 544 486 c 1,0,-1
EndSplineSet
Validated: 33
EndChar

StartChar: uniA047
Encoding: 41031 41031 105
Width: 1024
GlyphClass: 2
Flags: W
LayerCount: 2
Fore
SplineSet
483 531 m 1,1,-1
 483 580 l 2,2,3
 483 673 483 673 451 735 c 1,4,5
 439 753 439 753 439 756 c 0,6,7
 439 768 439 768 460 768 c 0,8,9
 475 768 475 768 514 753 c 1,10,11
 567 728 567 728 567 703 c 1,12,13
 565 697 565 697 554 667 c 1,14,15
 545 637 545 637 544 538 c 1,16,17
 697 557 697 557 735 566 c 0,18,19
 776 576 776 576 793 575 c 1,20,21
 864 565 864 565 866 543 c 1,22,23
 864 527 864 527 849 520 c 1,24,25
 816 511 816 511 787 509 c 0,26,27
 695 500 695 500 544 486 c 1,28,-1
 544 275 l 1,29,30
 652 291 652 291 690 295 c 0,31,32
 743 300 743 300 793 307 c 0,33,34
 821 311 821 311 840 311 c 0,35,36
 866 311 866 311 901 292 c 1,37,38
 936 271 936 271 939 252 c 1,39,40
 937 229 937 229 896 227 c 1,41,42
 868 227 868 227 807 233 c 1,43,-1
 756 236 l 1,44,45
 656 236 656 236 544 223 c 1,46,-1
 544 12 l 2,47,48
 544 -42 544 -42 529 -118 c 1,49,50
 514 -184 514 -184 496 -184 c 0,51,52
 483 -184 483 -184 483 -157 c 2,53,-1
 483 217 l 1,54,55
 296 196 296 196 208 168 c 1,56,57
 168 151 168 151 154 147 c 1,58,59
 136 147 136 147 121 165 c 0,60,61
 102 187 102 187 101 192 c 1,62,63
 101 200 101 200 106 209 c 1,64,65
 114 216 114 216 132 241 c 1,66,67
 155 269 155 269 177 326 c 1,68,69
 210 420 210 420 213 499 c 1,70,71
 213 530 213 530 222 530 c 1,72,73
 243 538 243 538 275 502 c 1,74,75
 293 504 293 504 325 507 c 1,76,0
 392 519 392 519 483 531 c 1,1,-1
199 226 m 1,77,78
 239 232 239 232 299 241 c 0,79,80
 419 258 419 258 483 267 c 1,81,-1
 483 482 l 1,82,83
 374 469 374 469 324 462 c 1,84,85
 305 458 305 458 284 462 c 1,86,87
 278 449 278 449 266 414 c 1,88,89
 234 298 234 298 199 226 c 1,77,78
EndSplineSet
Validated: 33
EndChar

StartChar: uniA049
Encoding: 41033 41033 106
Width: 1024
GlyphClass: 2
Flags: W
LayerCount: 2
Fore
SplineSet
809 629 m 0,0,1
 828 629 828 629 871 590 c 1,2,3
 908 562 908 562 908 545 c 0,4,5
 908 531 908 531 887 512 c 1,6,7
 863 485 863 485 841 344 c 1,8,9
 809 111 809 111 809 88 c 1,10,11
 819 74 819 74 825 66 c 1,12,13
 828 60 828 60 828 55 c 0,14,15
 828 33 828 33 766 33 c 0,16,17
 715 33 715 33 661 28 c 0,18,19
 492 12 492 12 376 -14 c 1,20,21
 304 -34 304 -34 264 -34 c 0,22,23
 227 -34 227 -34 197 -14 c 1,24,25
 171 2 171 2 171 10 c 0,26,27
 171 23 171 23 190 23 c 0,28,29
 326 23 326 23 705 81 c 1,30,31
 741 88 741 88 747 99 c 1,32,-1
 801 545 l 1,33,34
 801 557 801 557 782 557 c 0,35,36
 736 557 736 557 490 513 c 1,37,38
 310 477 310 477 272 477 c 0,39,40
 243 477 243 477 210 499 c 1,41,42
 184 522 184 522 184 533 c 0,43,44
 184 541 184 541 203 541 c 0,45,46
 357 541 357 541 524 569 c 1,47,48
 712 597 712 597 753 613 c 1,49,50
 789 629 789 629 809 629 c 0,0,1
EndSplineSet
Validated: 1
EndChar

StartChar: uniA04B
Encoding: 41035 41035 107
Width: 1024
GlyphClass: 2
Flags: W
LayerCount: 2
Fore
SplineSet
291 404 m 1,0,-1
 293 404 l 1,1,2
 387 413 387 413 554 431 c 1,3,4
 660 447 660 447 692 452 c 0,5,6
 721 456 721 456 734 456 c 0,7,8
 805 456 805 456 805 428 c 0,9,10
 805 419 805 419 786 416 c 0,11,12
 699 404 699 404 554 388 c 1,13,14
 388 372 388 372 365 372 c 0,15,16
 329 372 329 372 302 379 c 0,17,18
 295 381 295 381 291 383 c 1,19,20
 289 288 289 288 288 208 c 1,21,22
 290 210 290 210 295 210 c 0,23,24
 389 219 389 219 556 237 c 1,25,26
 662 253 662 253 694 258 c 0,27,28
 723 262 723 262 737 262 c 0,29,30
 807 262 807 262 807 234 c 0,31,32
 807 225 807 225 788 222 c 0,33,34
 701 210 701 210 556 194 c 1,35,36
 390 178 390 178 367 178 c 0,37,38
 331 178 331 178 304 185 c 1,39,40
 293 189 293 189 287 193 c 1,41,42
 285 69 285 69 281 -20 c 1,43,44
 279 -35 279 -35 268 -53 c 1,45,46
 255 -68 255 -68 246 -68 c 0,47,48
 228 -68 228 -68 216 -30 c 1,49,50
 205 1 205 1 205 16 c 1,51,52
 206 16 206 16 208 32 c 1,53,54
 229 129 229 129 233 185 c 0,55,56
 243 309 243 309 243 496 c 1,57,58
 241 535 241 535 236 563 c 1,59,60
 208 561 208 561 191 561 c 0,61,62
 151 561 151 561 123 596 c 1,63,64
 123 604 123 604 134 604 c 0,65,66
 372 613 372 613 718 676 c 1,67,68
 778 690 778 690 782 690 c 0,69,70
 812 690 812 690 844 678 c 1,71,72
 865 664 865 664 865 651 c 0,73,74
 865 637 865 637 851 631 c 1,75,76
 579 599 579 599 430 582 c 2,77,-1
 359 574 l 2,78,79
 322 570 322 570 292 567 c 1,80,-1
 292 524 l 1,81,82
 291 461 291 461 291 404 c 1,0,-1
EndSplineSet
Validated: 1
EndChar

StartChar: uniA054
Encoding: 41044 41044 108
Width: 1024
GlyphClass: 2
Flags: W
LayerCount: 2
Fore
SplineSet
596 72 m 1,0,1
 604 165 604 165 615 296 c 1,2,-1
 626 610 l 1,3,4
 626 655 626 655 605 692 c 1,5,6
 583 727 583 727 583 732 c 0,7,8
 583 746 583 746 604 747 c 0,9,10
 624 747 624 747 661 733 c 0,11,12
 707 715 707 715 707 696 c 1,13,14
 691 578 691 578 690 493 c 1,15,-1
 662 78 l 1,16,17
 682 80 682 80 692 81 c 0,18,19
 769 87 769 87 822 92 c 0,20,21
 853 95 853 95 871 95 c 0,22,23
 898 95 898 95 933 76 c 1,24,25
 968 55 968 55 972 36 c 1,26,27
 969 13 969 13 928 11 c 1,28,29
 900 11 900 11 839 17 c 1,30,-1
 787 19 l 1,31,32
 658 19 658 19 501 6 c 1,33,34
 337 -6 337 -6 205 -27 c 1,35,36
 155 -36 155 -36 139 -36 c 0,37,38
 122 -36 122 -36 98 -22 c 1,39,40
 69 -1 69 -1 68 4 c 1,41,42
 68 12 68 12 84 15 c 1,43,44
 175 24 175 24 348 44 c 1,45,46
 344 485 344 485 325 597 c 1,47,48
 316 659 316 659 302 679 c 1,49,50
 292 699 292 699 292 706 c 0,51,52
 292 718 292 718 308 718 c 0,53,54
 342 718 342 718 370 712 c 1,55,56
 421 685 421 685 421 665 c 0,57,58
 421 654 421 654 417 635 c 0,59,60
 406 566 406 566 403 486 c 1,61,62
 399 452 399 452 400 357 c 0,63,64
 401 227 401 227 401 50 c 1,65,66
 531 65 531 65 596 72 c 1,0,1
EndSplineSet
Validated: 33
EndChar

StartChar: uniA059
Encoding: 41049 41049 109
Width: 1024
GlyphClass: 2
Flags: W
LayerCount: 2
Fore
SplineSet
376 574 m 0,0,1
 420 574 420 574 452 559 c 0,2,3
 486 544 486 544 553 435 c 1,4,5
 693 220 693 220 743 180 c 1,6,7
 837 99 837 99 963 55 c 1,8,9
 1008 43 1008 43 1008 33 c 1,10,11
 1007 26 1007 26 964 24 c 0,12,13
 905 21 905 21 876 21 c 0,14,15
 750 21 750 21 723 43 c 1,16,17
 694 65 694 65 585 265 c 0,18,19
 459 497 459 497 381 534 c 0,20,21
 347 550 347 550 347 558 c 0,22,23
 347 574 347 574 376 574 c 0,0,1
742 655 m 0,24,25
 759 655 759 655 794 635 c 1,26,27
 846 607 846 607 846 587 c 0,28,29
 846 580 846 580 827 571 c 1,30,31
 785 543 785 543 734 500 c 1,32,33
 667 450 667 450 580 422 c 1,34,35
 568 422 568 422 563 431 c 1,36,37
 571 443 571 443 603 466 c 1,38,39
 656 512 656 512 699 568 c 1,40,41
 729 612 729 612 729 633 c 0,42,43
 729 641 729 641 732 648 c 0,44,45
 736 655 736 655 742 655 c 0,24,25
181 659 m 0,46,47
 199 659 199 659 233 651 c 1,48,49
 270 639 270 639 270 616 c 1,50,51
 246 491 246 491 246 65 c 1,52,53
 465 223 465 223 472 223 c 0,54,55
 480 222 480 222 480 215 c 0,56,57
 480 209 480 209 450 177 c 1,58,59
 292 17 292 17 254 -42 c 1,60,61
 224 -86 224 -86 207 -86 c 0,62,63
 196 -86 196 -86 172 -59 c 1,64,65
 152 -33 152 -33 152 -15 c 0,66,67
 152 -9 152 -9 159 2 c 0,68,69
 185 50 185 50 191 167 c 1,70,-1
 201 534 l 1,71,72
 201 592 201 592 180 632 c 1,73,74
 166 649 166 649 166 655 c 0,75,76
 166 659 166 659 181 659 c 0,46,47
EndSplineSet
Validated: 1
EndChar

StartChar: uniA05B
Encoding: 41051 41051 110
Width: 1024
GlyphClass: 2
Flags: W
LayerCount: 2
Fore
SplineSet
715 706 m 0,0,1
 719 708 719 708 723 708 c 0,2,3
 735 708 735 708 785 682 c 0,4,5
 835 655 835 655 835 645 c 256,6,7
 835 635 835 635 826 622 c 0,8,9
 798 583 798 583 792 378 c 0,10,11
 788 248 788 248 778 154 c 1,12,-1
 781 154 l 2,13,14
 788 154 788 154 808 156 c 0,15,16
 833 158 833 158 846 158 c 0,17,18
 877 158 877 158 907 132 c 0,19,20
 937 105 937 105 937 86 c 0,21,22
 937 75 937 75 921 75 c 256,23,24
 905 75 905 75 834 93 c 0,25,26
 819 96 819 96 789 101 c 0,27,28
 776 103 776 103 771 104 c 1,29,30
 761 7 761 7 720 -66 c 0,31,32
 679 -138 679 -138 647 -138 c 0,33,34
 638 -138 638 -138 628 -112 c 0,35,36
 609 -65 609 -65 545 0 c 0,37,38
 540 4 540 4 540 7 c 256,39,40
 540 10 540 10 546 10 c 0,41,42
 550 10 550 10 584 -1 c 0,43,44
 636 -18 636 -18 646 -18 c 0,45,46
 688 -18 688 -18 709 107 c 1,47,48
 624 111 624 111 554 111 c 0,49,50
 222 111 222 111 160 68 c 0,51,52
 145 57 145 57 138 57 c 0,53,54
 132 57 132 57 121 76 c 0,55,56
 111 94 111 94 111 104 c 0,57,58
 111 119 111 119 134 136 c 1,59,60
 175 170 175 170 209 351 c 1,61,62
 231 450 231 450 231 545 c 0,63,64
 231 603 231 603 217 653 c 1,65,-1
 217 655 l 2,66,67
 217 666 217 666 227 666 c 2,68,-1
 228 666 l 1,69,70
 292 656 292 656 308 656 c 0,71,72
 331 656 331 656 517 674 c 0,73,74
 683 691 683 691 715 706 c 0,0,1
733 490 m 0,76,77
 733 611 733 611 721 631 c 1,78,79
 708 650 708 650 686 650 c 0,80,81
 657 650 657 650 501 635 c 1,82,83
 330 620 330 620 298 620 c 1,84,-1
 298 610 l 2,85,86
 298 577 298 577 287 491 c 0,87,88
 277 405 277 405 264 353 c 1,89,90
 222 168 222 168 205 138 c 1,91,92
 341 151 341 151 639 151 c 2,93,-1
 717 151 l 1,94,95
 729 266 729 266 731 373 c 0,96,75
 733 452 733 452 733 490 c 0,76,77
EndSplineSet
Validated: 1
EndChar

StartChar: uni31C0
Encoding: 12736 12736 111
Width: 1024
GlyphClass: 2
Flags: W
LayerCount: 2
Fore
SplineSet
810 457 m 0,0,1
 823 457 823 457 823 447 c 0,2,3
 823 441 823 441 801 432 c 1,4,5
 721 387 721 387 553 310 c 0,6,7
 461 268 461 268 287 201 c 1,8,9
 271 188 271 188 258 188 c 0,10,11
 236 188 236 188 213 219 c 0,12,13
 191 248 191 248 191 261 c 0,14,15
 191 276 191 276 210 276 c 0,16,17
 251 278 251 278 289 291 c 1,18,19
 439 331 439 331 730 434 c 0,20,21
 795 457 795 457 810 457 c 0,0,1
EndSplineSet
Validated: 1
EndChar

StartChar: uni31C1
Encoding: 12737 12737 112
Width: 1024
GlyphClass: 2
Flags: W
LayerCount: 2
Fore
SplineSet
531 519 m 1,0,1
 471 603 471 603 415 640 c 1,2,3
 380 659 380 659 380 665 c 0,4,5
 380 673 380 673 388 673 c 0,6,7
 415 673 415 673 462 644 c 1,8,9
 519 611 519 611 579 530 c 0,10,11
 638 451 638 451 669 360 c 0,12,13
 703 263 703 263 703 144 c 0,14,15
 703 28 703 28 652 -75 c 1,16,17
 605 -148 605 -148 567 -148 c 0,18,19
 548 -148 548 -148 531 -112 c 0,20,21
 505 -55 505 -55 452 20 c 1,22,23
 452 26 452 26 456 26 c 1,24,25
 472 19 472 19 501 0 c 0,26,27
 529 -19 529 -19 555 -19 c 0,28,29
 602 -19 602 -19 624 47 c 1,30,31
 640 113 640 113 640 184 c 0,32,33
 640 225 640 225 632 268 c 1,34,35
 594 419 594 419 531 519 c 1,0,1
EndSplineSet
Validated: 1
EndChar

StartChar: uni31C2
Encoding: 12738 12738 113
Width: 1024
GlyphClass: 2
Flags: W
LayerCount: 2
Fore
SplineSet
424 250 m 1,1,2
 471 154 471 154 547 80 c 1,3,4
 602 25 602 25 668 -13 c 1,5,6
 746 -51 746 -51 772 -51 c 0,7,8
 777 -51 777 -51 783 -40 c 1,9,10
 817 11 817 11 840 82 c 0,11,12
 843 89 843 89 847 89 c 0,13,14
 862 89 862 89 862 68 c 0,15,16
 859 -74 859 -74 880 -104 c 1,17,18
 892 -116 892 -116 892 -127 c 0,19,20
 892 -160 892 -160 863 -160 c 0,21,22
 817 -160 817 -160 743 -139 c 1,23,24
 679 -119 679 -119 616 -78 c 1,25,26
 543 -27 543 -27 494 28 c 1,27,28
 422 106 422 106 383 199 c 1,29,30
 343 275 343 275 303 439 c 1,31,32
 285 505 285 505 277 550 c 256,33,34
 269 595 269 595 260 622 c 1,35,36
 253 661 253 661 238 688 c 1,37,38
 228 696 228 696 228 706 c 0,39,40
 228 718 228 718 241 718 c 0,41,42
 268 718 268 718 314 700 c 0,43,44
 349 686 349 686 349 666 c 0,45,46
 349 654 349 654 343 647 c 0,47,48
 333 635 333 635 333 619 c 0,49,50
 334 539 334 539 356 452 c 1,51,0
 382 326 382 326 424 250 c 1,1,2
EndSplineSet
Validated: 33
EndChar

StartChar: uni31C6
Encoding: 12742 12742 114
Width: 1024
GlyphClass: 2
Flags: W
LayerCount: 2
Fore
SplineSet
668 712 m 1,0,1
 692 712 692 712 744 680 c 0,2,3
 796 649 796 649 796 636 c 0,4,5
 796 632 796 632 787 608 c 0,6,7
 771 563 771 563 771 541 c 0,8,9
 771 517 771 517 775 437 c 0,10,11
 778 357 778 357 775 217 c 256,12,13
 772 77 772 77 772 36 c 0,14,15
 772 -23 772 -23 755 -72 c 1,16,17
 739 -123 739 -123 714 -144 c 1,18,19
 694 -164 694 -164 675 -164 c 1,20,21
 658 -162 658 -162 637 -129 c 0,22,23
 615 -93 615 -93 567 -50 c 1,24,25
 534 -26 534 -26 532 -20 c 1,26,27
 532 -12 532 -12 535 -12 c 0,28,29
 548 -12 548 -12 585 -23 c 0,30,31
 639 -40 639 -40 660 -40 c 0,32,33
 675 -40 675 -40 686 5 c 1,34,35
 700 75 700 75 703 151 c 1,36,37
 717 368 717 368 708 568 c 1,38,39
 705 611 705 611 690 628 c 0,40,41
 680 640 680 640 659 640 c 0,42,43
 637 640 637 640 568 631 c 1,44,45
 462 612 462 612 300 585 c 0,46,47
 238 574 238 574 226 574 c 0,48,49
 208 574 208 574 188 586 c 1,50,51
 174 599 174 599 174 606 c 0,52,53
 174 615 174 615 202 615 c 0,54,55
 248 615 248 615 459 655 c 1,56,57
 575 682 575 682 613 694 c 1,58,59
 655 711 655 711 668 712 c 1,0,1
EndSplineSet
Validated: 33
EndChar

StartChar: uni31CF
Encoding: 12751 12751 115
Width: 1024
GlyphClass: 2
Flags: W
LayerCount: 2
Fore
SplineSet
191 655 m 0,0,1
 235 655 235 655 267 640 c 0,2,3
 301 625 301 625 368 516 c 1,4,5
 583 190 583 190 633 150 c 1,6,7
 727 69 727 69 853 25 c 1,8,9
 898 13 898 13 898 3 c 1,10,11
 897 -4 897 -4 854 -6 c 0,12,13
 795 -9 795 -9 766 -9 c 0,14,15
 640 -9 640 -9 613 13 c 1,16,17
 584 35 584 35 475 235 c 1,18,19
 274 578 274 578 196 615 c 0,20,21
 162 631 162 631 162 639 c 0,22,23
 162 655 162 655 191 655 c 0,0,1
EndSplineSet
Validated: 1
EndChar

StartChar: uni31D2
Encoding: 12754 12754 116
Width: 1024
GlyphClass: 2
Flags: W
LayerCount: 2
Fore
SplineSet
750 665 m 0,0,1
 779 665 779 665 814 641 c 1,2,3
 846 624 846 624 846 602 c 0,4,5
 846 594 846 594 836 582 c 1,6,7
 804 518 804 518 776 453 c 1,8,9
 690 262 690 262 504 104 c 1,10,11
 404 22 404 22 254 -28 c 1,12,13
 183 -56 183 -56 160 -56 c 0,14,15
 156 -56 156 -56 156 -52 c 1,16,17
 325 40 325 40 432 126 c 1,18,19
 617 280 617 280 696 465 c 1,20,21
 741 558 741 558 741 617 c 1,22,-1
 733 654 l 1,23,24
 733 665 733 665 750 665 c 0,0,1
EndSplineSet
Validated: 1
EndChar

StartChar: uni31D5
Encoding: 12757 12757 117
Width: 1024
GlyphClass: 2
Flags: W
LayerCount: 2
Fore
SplineSet
668 712 m 1,0,1
 692 712 692 712 744 680 c 0,2,3
 796 649 796 649 796 636 c 0,4,5
 796 632 796 632 787 608 c 0,6,7
 771 563 771 563 771 541 c 0,8,9
 771 517 771 517 778 357 c 0,10,11
 792 77 792 77 792 36 c 0,12,13
 792 -23 792 -23 775 -72 c 1,14,15
 767 -100 767 -100 751 -121 c 1,16,17
 736 -139 736 -139 717 -123 c 1,18,19
 695 -96 695 -96 706 5 c 1,20,21
 716 75 716 75 718 251 c 1,22,23
 717 368 717 368 708 568 c 1,24,25
 705 611 705 611 690 628 c 0,26,27
 680 640 680 640 659 640 c 0,28,29
 637 640 637 640 568 631 c 1,30,31
 462 612 462 612 300 585 c 0,32,33
 238 574 238 574 226 574 c 0,34,35
 208 574 208 574 188 586 c 1,36,37
 174 599 174 599 174 606 c 0,38,39
 174 615 174 615 202 615 c 0,40,41
 248 615 248 615 459 655 c 1,42,43
 575 682 575 682 613 694 c 1,44,45
 655 711 655 711 668 712 c 1,0,1
EndSplineSet
Validated: 33
EndChar

StartChar: uni31D7
Encoding: 12759 12759 118
Width: 1024
GlyphClass: 2
Flags: W
LayerCount: 2
Fore
SplineSet
275 583 m 1,1,-1
 273 568 l 1,2,3
 268 553 268 553 256 72 c 0,4,5
 256 35 256 35 271 24 c 1,6,7
 304 24 304 24 488 33 c 0,8,9
 689 42 689 42 763 48 c 0,10,11
 779 49 779 49 792 49 c 0,12,13
 811 49 811 49 837 29 c 1,14,15
 871 9 871 9 871 -11 c 0,16,17
 871 -35 871 -35 848 -35 c 1,18,19
 760 -20 760 -20 659 -20 c 0,20,21
 551 -20 551 -20 458 -25 c 0,22,23
 357 -30 357 -30 302 -37 c 0,24,25
 271 -41 271 -41 229 -52 c 1,26,27
 219 -56 219 -56 219 -56 c 1,28,29
 208 -56 208 -56 185 -33 c 0,30,31
 168 -15 168 -15 168 -3 c 0,32,33
 168 7 168 7 179 19 c 1,34,35
 198 51 198 51 201 94 c 1,36,37
 215 231 215 231 215 404 c 0,38,39
 215 507 215 507 206 548 c 0,40,41
 199 582 199 582 182 605 c 1,42,43
 179 611 179 611 179 612 c 0,44,45
 179 633 179 633 200 633 c 0,46,47
 226 633 226 633 245 622 c 0,48,49
 258 614 258 614 263 609 c 0,50,0
 278 592 278 592 275 583 c 1,1,-1
EndSplineSet
Validated: 1
EndChar

StartChar: uni31D9
Encoding: 12761 12761 119
Width: 1024
GlyphClass: 2
Flags: W
LayerCount: 2
Fore
SplineSet
421 659 m 0,0,1
 439 659 439 659 473 651 c 1,2,3
 510 639 510 639 510 616 c 1,4,5
 486 491 486 491 486 65 c 1,6,7
 740 246 740 246 747 246 c 0,8,9
 755 245 755 245 755 238 c 0,10,11
 755 232 755 232 725 200 c 1,12,13
 532 17 532 17 494 -42 c 1,14,15
 464 -86 464 -86 447 -86 c 0,16,17
 436 -86 436 -86 412 -59 c 1,18,19
 392 -33 392 -33 392 -15 c 0,20,21
 392 -9 392 -9 399 2 c 0,22,23
 425 50 425 50 431 167 c 1,24,-1
 441 534 l 1,25,26
 441 592 441 592 420 632 c 1,27,28
 406 649 406 649 406 655 c 0,29,30
 406 659 406 659 421 659 c 0,0,1
EndSplineSet
Validated: 1
EndChar

StartChar: uniA03B
Encoding: 41019 41019 120
Width: 1024
VWidth: 0
LayerCount: 2
Fore
SplineSet
432 693 m 1,0,-1
 432 691 l 1,1,2
 429 670 429 670 429 653 c 0,3,4
 429 566 429 566 465 429 c 1,5,6
 649 464 649 464 734 497 c 0,7,8
 761 507 761 507 772 507 c 0,9,10
 802 507 802 507 841 489 c 0,11,12
 880 472 880 472 880 454 c 0,13,14
 880 441 880 441 820 438 c 0,15,16
 683 430 683 430 476 385 c 1,17,18
 477 381 477 381 482 367 c 0,19,20
 537 198 537 198 633 92 c 0,21,22
 729 -15 729 -15 801 -15 c 0,23,24
 828 -15 828 -15 887 176 c 0,25,26
 891 190 891 190 895 190 c 0,27,28
 898 190 898 190 898 179 c 2,29,-1
 898 173 l 1,30,31
 886 39 886 39 886 7 c 2,32,-1
 886 6 l 2,33,34
 886 -9 886 -9 906 -96 c 0,35,36
 907 -101 907 -101 907 -104 c 0,37,38
 907 -125 907 -125 876 -125 c 0,39,40
 812 -125 812 -125 724 -74 c 128,-1,41
 636 -23 636 -23 556 90 c 128,-1,42
 476 203 476 203 424 374 c 1,43,44
 158 313 158 313 146 310 c 0,45,46
 144 309 144 309 141 309 c 0,47,48
 125 309 125 309 99 331 c 0,49,50
 74 352 74 352 74 363 c 0,51,52
 74 367 74 367 79 367 c 0,53,54
 261 379 261 379 411 418 c 1,55,56
 397 461 397 461 380 552 c 1,57,58
 357 666 357 666 321 706 c 0,59,60
 306 723 306 723 306 730 c 0,61,62
 306 742 306 742 323 742 c 0,63,64
 347 742 347 742 389 728 c 128,-1,65
 431 714 431 714 432 693 c 1,0,-1
EndSplineSet
Validated: 1
EndChar

StartChar: uniA04D
Encoding: 41037 41037 121
Width: 1024
VWidth: 0
LayerCount: 2
Fore
SplineSet
346 478 m 1,0,1
 423 486 423 486 543 501 c 1,2,3
 636 517 636 517 665 522 c 0,4,5
 690 526 690 526 702 526 c 0,6,7
 764 526 764 526 764 498 c 0,8,9
 764 489 764 489 748 486 c 0,10,11
 671 474 671 474 543 458 c 1,12,13
 397 442 397 442 376 442 c 0,14,15
 360 442 360 442 346 444 c 1,16,-1
 346 183 l 1,17,18
 424 192 424 192 545 207 c 1,19,20
 638 223 638 223 666 228 c 0,21,22
 692 232 692 232 704 232 c 0,23,24
 766 232 766 232 766 204 c 0,25,26
 766 195 766 195 750 192 c 0,27,28
 673 180 673 180 545 164 c 1,29,30
 399 148 399 148 378 148 c 0,31,32
 361 148 361 148 346 150 c 1,33,-1
 346 20 l 1,34,35
 345 -59 345 -59 339 -117 c 1,36,37
 329 -164 329 -164 306 -164 c 0,38,39
 295 -164 295 -164 272 -122 c 0,40,41
 253 -89 253 -89 253 -69 c 0,42,43
 253 -45 253 -45 271 8 c 1,44,45
 285 130 285 130 285 265 c 2,46,-1
 285 600 l 2,47,48
 285 647 285 647 267 686 c 1,49,50
 245 723 245 723 245 728 c 0,51,52
 245 745 245 745 266 748 c 1,53,54
 283 748 283 748 317 731 c 1,55,56
 362 713 362 713 362 691 c 1,57,58
 346 566 346 566 346 478 c 1,0,1
EndSplineSet
Validated: 1
EndChar

StartChar: uniA05E
Encoding: 41054 41054 122
Width: 1024
VWidth: 0
LayerCount: 2
Fore
SplineSet
526 716 m 1,0,1
 519 668 519 668 519 638 c 0,2,3
 519 441 519 441 579 282 c 1,4,5
 612 290 612 290 663 310 c 0,6,7
 689 321 689 321 697 322 c 1,8,-1
 698 322 l 2,9,10
 715 322 715 322 741 308 c 0,11,12
 768 294 768 294 768 283 c 0,13,14
 768 277 768 277 667 260 c 0,15,16
 612 250 612 250 587 245 c 1,17,18
 609 176 609 176 655 94 c 1,19,20
 711 155 711 155 711 205 c 2,21,-1
 711 213 l 1,22,23
 710 214 710 214 710 216 c 0,24,25
 710 226 710 226 723 226 c 0,26,27
 734 226 734 226 762 208 c 0,28,29
 790 189 790 189 790 178 c 0,30,31
 790 176 790 176 788 174 c 0,32,33
 778 163 778 163 768 148 c 1,34,35
 738 109 738 109 684 55 c 1,36,37
 694 34 694 34 752 -13 c 0,38,39
 809 -59 809 -59 827 -59 c 0,40,41
 852 -59 852 -59 892 92 c 0,42,43
 895 105 895 105 897 105 c 128,-1,44
 899 105 899 105 899 96 c 2,45,-1
 899 91 l 1,46,47
 897 61 897 61 897 24 c 0,48,49
 897 1 897 1 898 -28 c 0,50,51
 898 -32 898 -32 914 -129 c 1,52,-1
 914 -133 l 2,53,54
 914 -159 914 -159 886 -159 c 0,55,56
 781 -159 781 -159 645 21 c 1,57,58
 537 -57 537 -57 438 -57 c 0,59,60
 417 -57 417 -57 417 -53 c 0,61,62
 417 -50 417 -50 432 -45 c 0,63,64
 511 -20 511 -20 620 59 c 1,65,66
 588 117 588 117 562 176 c 0,67,68
 537 235 537 235 539 235 c 2,69,-1
 538 235 l 1,70,71
 418 212 418 212 332 196 c 0,72,73
 236 179 236 179 137 155 c 1,74,-1
 134 155 l 2,75,76
 123 155 123 155 103 171 c 0,77,78
 84 186 84 186 84 193 c 0,79,80
 84 196 84 196 87 196 c 0,81,82
 174 203 174 203 394 242 c 0,83,84
 457 253 457 253 530 270 c 1,85,86
 510 304 510 304 478 517 c 0,87,88
 468 586 468 586 460 630 c 0,89,90
 456 655 456 655 452 681 c 0,91,92
 447 710 447 710 419 745 c 0,93,94
 417 747 417 747 417 751 c 0,95,96
 417 762 417 762 428 762 c 0,97,98
 450 762 450 762 486 746 c 1,99,100
 523 731 523 731 523 717 c 1,101,-1
 526 716 l 1,0,1
649 727 m 1,102,103
 712 706 712 706 712 687 c 0,104,105
 712 677 712 677 613 557 c 1,106,107
 650 558 650 558 703 560 c 1,108,109
 732 595 732 595 732 619 c 2,110,-1
 732 620 l 1,111,-1
 732 625 l 2,112,113
 732 641 732 641 740 641 c 0,114,115
 749 641 749 641 774 625 c 1,116,117
 800 610 800 610 800 600 c 0,118,119
 800 596 800 596 797 594 c 0,120,121
 745 541 745 541 638 425 c 1,122,-1
 637 424 l 1,123,124
 664 427 664 427 711 435 c 0,125,126
 736 439 736 439 749 441 c 1,127,128
 729 479 729 479 729 496 c 1,129,130
 757 491 757 491 783 468 c 0,131,132
 810 444 810 444 810 421 c 0,133,134
 810 388 810 388 785 388 c 2,135,-1
 782 388 l 1,136,-1
 753 420 l 1,137,138
 739 416 739 416 717 408 c 1,139,140
 670 395 670 395 641 376 c 0,141,142
 615 358 615 358 608 358 c 128,-1,143
 601 358 601 358 592 378 c 0,144,145
 583 397 583 397 583 412 c 2,146,-1
 583 414 l 2,147,148
 583 426 583 426 598 436 c 0,149,150
 641 466 641 466 687 534 c 1,151,152
 632 528 632 528 607 513 c 0,153,154
 594 505 594 505 589 505 c 2,155,-1
 588 505 l 2,156,157
 565 505 565 505 565 546 c 0,158,159
 565 554 565 554 583 571 c 1,160,161
 641 634 641 634 641 682 c 0,162,163
 641 699 641 699 636 715 c 0,164,165
 635 717 635 717 635 719 c 0,166,167
 635 727 635 727 649 727 c 1,102,103
266 522 m 2,168,-1
 242 492 l 1,169,170
 270 493 270 493 337 495 c 1,171,172
 364 529 364 529 367 570 c 0,173,174
 368 581 368 581 376 581 c 0,175,176
 383 581 383 581 409 562 c 1,177,178
 434 542 434 542 434 532 c 0,179,180
 434 528 434 528 432 526 c 0,181,182
 421 515 421 515 257 349 c 1,183,-1
 395 375 l 1,184,185
 379 414 379 414 379 425 c 1,186,187
 465 406 465 406 465 353 c 0,188,189
 465 319 465 319 440 319 c 0,190,191
 427 319 427 319 401 355 c 1,192,193
 294 328 294 328 246 289 c 0,194,195
 226 272 226 272 219 272 c 0,196,197
 189 272 189 272 189 322 c 0,198,199
 189 336 189 336 212 350 c 0,200,201
 258 379 258 379 321 471 c 1,202,203
 252 458 252 458 217 438 c 0,204,205
 201 429 201 429 197 429 c 0,206,207
 178 429 178 429 178 467 c 0,208,209
 178 476 178 476 197 491 c 1,210,211
 232 522 232 522 257 571 c 128,-1,212
 282 620 282 620 282 646 c 0,213,214
 282 658 282 658 275 673 c 0,215,216
 274 675 274 675 274 677 c 0,217,218
 274 682 274 682 283 682 c 0,219,220
 297 682 297 682 326 667 c 0,221,222
 354 653 354 653 354 641 c 0,223,224
 354 633 354 633 266 522 c 2,168,-1
816 358 m 1,225,226
 895 340 895 340 895 295 c 0,227,228
 895 266 895 266 867 266 c 0,229,230
 856 266 856 266 824 301 c 0,231,232
 793 336 793 336 786 357 c 1,233,-1
 816 358 l 1,225,226
EndSplineSet
Validated: 33
EndChar

StartChar: uniA061
Encoding: 41057 41057 123
Width: 1024
VWidth: 0
LayerCount: 2
Fore
SplineSet
705 629 m 1,0,1
 718 629 718 629 756 615 c 0,2,3
 794 602 794 602 794 594 c 0,4,5
 794 576 794 576 555 502 c 1,6,-1
 555 333 l 1,7,8
 657 348 657 348 749 374 c 0,9,10
 779 382 779 382 787 382 c 0,11,12
 804 382 804 382 844 356 c 0,13,14
 884 331 884 331 884 317 c 0,15,16
 884 312 884 312 876 304 c 0,17,18
 845 274 845 274 831 151 c 1,19,20
 792 -7 792 -7 727 -7 c 0,21,22
 716 -7 716 -7 711 16 c 1,23,24
 696 72 696 72 639 115 c 0,25,26
 632 121 632 121 632 124 c 0,27,28
 632 126 632 126 635 126 c 128,-1,29
 638 126 638 126 641 125 c 0,30,31
 731 98 731 98 735 98 c 0,32,33
 753 98 753 98 771 146 c 1,34,35
 790 264 790 264 790 296 c 0,36,37
 790 323 790 323 757 323 c 0,38,39
 733 323 733 323 644 311 c 0,40,41
 555 300 555 300 555 299 c 2,42,-1
 555 298 l 1,43,44
 559 58 559 58 559 -59 c 0,45,46
 559 -161 559 -161 526 -161 c 0,47,48
 516 -161 516 -161 506 -137 c 0,49,50
 496 -114 496 -114 496 -93 c 0,51,52
 496 -79 496 -79 499 -44 c 0,53,54
 508 47 508 47 508 139 c 2,55,-1
 508 268 l 1,56,57
 430 96 430 96 292 13 c 128,-1,58
 154 -70 154 -70 91 -70 c 0,59,60
 83 -70 83 -70 83 -68 c 0,61,62
 83 -64 83 -64 98 -58 c 0,63,64
 187 -22 187 -22 296 60 c 0,65,66
 404 142 404 142 461 286 c 1,67,68
 328 262 328 262 278 219 c 0,69,70
 264 208 264 208 259 208 c 0,71,72
 250 208 250 208 234 227 c 1,73,74
 219 247 219 247 219 258 c 0,75,76
 219 263 219 263 227 269 c 0,77,78
 258 290 258 290 258 353 c 0,79,80
 258 442 258 442 243 474 c 0,81,82
 242 476 242 476 242 478 c 0,83,84
 242 489 242 489 253 489 c 0,85,86
 256 489 256 489 260 488 c 0,87,88
 297 471 297 471 315 471 c 0,89,90
 366 471 366 471 503 533 c 1,91,92
 493 711 493 711 472 741 c 0,93,94
 469 745 469 745 469 748 c 0,95,96
 469 761 469 761 481 761 c 0,97,98
 501 761 501 761 531 749 c 1,99,100
 562 738 562 738 562 726 c 2,101,-1
 562 725 l 1,102,103
 557 700 557 700 555 547 c 1,104,105
 633 588 633 588 678 618 c 1,106,107
 697 632 697 632 705 629 c 1,0,1
506 492 m 1,108,109
 360 440 360 440 312 432 c 1,110,-1
 312 427 l 2,111,112
 312 353 312 353 306 294 c 1,113,-1
 305 287 l 1,114,115
 318 289 318 289 359 298 c 0,116,117
 470 320 470 320 507 326 c 1,118,119
 507 343 507 343 506 384 c 1,120,-1
 506 492 l 1,108,109
EndSplineSet
Validated: 1
EndChar

StartChar: uniA0D4
Encoding: 41172 41172 124
Width: 1024
VWidth: 0
LayerCount: 2
Fore
SplineSet
418 583 m 1,0,1
 420 563 420 563 429 507 c 1,2,3
 552 526 552 526 557 534 c 0,4,5
 562 541 562 541 568 563 c 0,6,7
 574 584 574 584 577 599 c 1,8,9
 556 597 556 597 478 589 c 0,10,11
 419 583 419 583 418 583 c 1,0,1
472 383 m 1,12,13
 459 382 459 382 408 375 c 0,14,15
 340 367 340 367 335 367 c 1,16,17
 358 303 358 303 360 295 c 1,18,19
 365 296 365 296 396 300 c 0,20,21
 453 307 453 307 473 311 c 1,22,-1
 473 321 l 1,23,24
 472 370 472 370 472 383 c 1,12,13
523 389 m 1,25,26
 524 381 524 381 524 353 c 0,27,28
 524 326 524 326 523 317 c 1,29,30
 637 322 637 322 648 336 c 1,31,32
 652 343 652 343 656 358 c 0,33,34
 660 372 660 372 662 384 c 1,35,36
 662 400 662 400 642 400 c 0,37,38
 631 400 631 400 558 392 c 0,39,40
 531 390 531 390 523 389 c 1,25,26
474 281 m 1,41,42
 374 269 374 269 365 258 c 0,43,44
 354 243 354 243 341 243 c 0,45,46
 335 243 335 243 321 274 c 0,47,48
 291 339 291 339 260 370 c 0,49,50
 243 387 243 387 243 394 c 0,51,52
 243 402 243 402 262 402 c 0,53,54
 269 402 269 402 288 401 c 0,55,56
 308 400 308 400 318 400 c 0,57,58
 373 400 373 400 471 414 c 1,59,60
 472 418 472 418 472 423 c 0,61,62
 472 448 472 448 461 485 c 1,63,64
 455 484 455 484 432 480 c 0,65,66
 430 479 430 479 429 479 c 0,67,68
 427 479 427 479 423 474 c 0,69,70
 415 465 415 465 407 465 c 0,71,72
 393 465 393 465 366 578 c 1,73,74
 228 560 228 560 170 546 c 1,75,-1
 167 546 l 2,76,77
 153 546 153 546 131 565 c 0,78,79
 110 583 110 583 110 593 c 0,80,81
 110 597 110 597 115 597 c 0,82,83
 252 597 252 597 361 611 c 1,84,85
 353 661 353 661 324 687 c 0,86,87
 315 694 315 694 315 700 c 0,88,89
 315 709 315 709 333 709 c 0,90,91
 414 709 414 709 414 686 c 0,92,93
 414 634 414 634 415 618 c 1,94,-1
 585 636 l 1,95,96
 595 677 595 677 595 706 c 0,97,98
 595 724 595 724 583 747 c 0,99,100
 582 749 582 749 582 751 c 0,101,102
 582 760 582 760 593 760 c 128,-1,103
 604 760 604 760 641 744 c 0,104,105
 678 729 678 729 679 715 c 1,106,-1
 679 712 l 1,107,108
 673 702 673 702 646 640 c 1,109,110
 699 646 699 646 757 657 c 0,111,112
 788 663 788 663 801 663 c 0,113,114
 822 663 822 663 853 646 c 1,115,116
 884 627 884 627 884 613 c 0,117,118
 884 604 884 604 823 604 c 0,119,120
 806 604 806 604 765 605 c 1,121,-1
 763 605 l 2,122,123
 745 605 745 605 635 601 c 1,124,125
 632 593 632 593 624 576 c 0,126,127
 613 550 613 550 606 533 c 1,128,-1
 606 532 l 2,129,130
 606 529 606 529 616 524 c 1,131,132
 634 517 634 517 634 509 c 0,133,134
 634 499 634 499 590 497 c 0,135,136
 572 496 572 496 567 495 c 0,137,138
 511 488 511 488 482 486 c 1,139,140
 529 466 529 466 531 449 c 0,141,142
 531 448 531 448 529 442 c 0,143,144
 526 426 526 426 525 417 c 1,145,146
 594 425 594 425 656 446 c 0,147,148
 671 451 671 451 672 451 c 2,149,-1
 674 451 l 2,150,151
 692 451 692 451 731 432 c 0,152,153
 770 414 770 414 770 401 c 0,154,155
 770 396 770 396 754 386 c 1,156,157
 706 360 706 360 706 331 c 0,158,159
 706 330 706 330 712 327 c 0,160,161
 725 318 725 318 725 311 c 0,162,163
 725 294 725 294 521 286 c 1,164,165
 521 245 521 245 520 217 c 1,166,167
 606 227 606 227 676 240 c 0,168,169
 703 245 703 245 712 245 c 0,170,171
 731 245 731 245 758 228 c 0,172,173
 784 212 784 212 784 200 c 0,174,175
 784 190 784 190 762 190 c 0,176,177
 755 190 755 190 736 191 c 0,178,179
 701 193 701 193 677 193 c 0,180,181
 624 193 624 193 519 183 c 1,182,183
 517 153 517 153 515 118 c 1,184,185
 654 127 654 127 697.5 134 c 128,-1,186
 741 141 741 141 781 141 c 128,-1,187
 821 141 821 141 844 126 c 128,-1,188
 867 111 867 111 867 101 c 0,189,190
 867 86 867 86 833 86 c 0,191,192
 823 86 823 86 807 88 c 128,-1,193
 791 90 791 90 732 90 c 0,194,195
 672 90 672 90 539 92 c 1,196,197
 627 27 627 27 704.5 -11 c 128,-1,198
 782 -49 782 -49 915 -73 c 0,199,200
 951 -79 951 -79 951 -87 c 0,201,202
 951 -91 951 -91 941.5 -95 c 128,-1,203
 932 -99 932 -99 868 -105 c 128,-1,204
 804 -111 804 -111 770 -111 c 0,205,206
 735 -111 735 -111 716 -102 c 128,-1,207
 697 -93 697 -93 674 -69 c 1,208,209
 602 1 602 1 509 80 c 1,210,211
 487 16 487 16 427.5 -23.5 c 128,-1,212
 368 -63 368 -63 288.5 -82 c 128,-1,213
 209 -101 209 -101 186 -101 c 128,-1,214
 163 -101 163 -101 163 -92 c 0,215,216
 163 -85 163 -85 190 -78 c 0,217,218
 296 -52 296 -52 365.5 -9 c 128,-1,219
 435 34 435 34 456 85 c 1,220,221
 394 77 394 77 312 61.5 c 128,-1,222
 230 46 230 46 215 46 c 0,223,224
 191 46 191 46 166 58.5 c 128,-1,225
 141 71 141 71 141 77 c 128,-1,226
 141 83 141 83 146.5 85 c 128,-1,227
 152 87 152 87 161 87 c 2,228,-1
 178 87 l 2,229,230
 229 87 229 87 462 114 c 1,231,232
 467 140 467 140 471 179 c 1,233,234
 367 172 367 172 295 158 c 1,235,-1
 293 158 l 2,236,237
 281 158 281 158 261 174 c 0,238,239
 242 190 242 190 242 200 c 0,240,241
 242 203 242 203 246 203 c 0,242,243
 338 203 338 203 473 212 c 1,244,245
 474 245 474 245 474 281 c 1,41,42
EndSplineSet
Validated: 1
EndChar

StartChar: uni5344
Encoding: 21316 21316 125
Width: 1024
VWidth: 0
LayerCount: 2
Fore
SplineSet
852 411 m 0,0,1
 859 411 859 411 908 394 c 1,2,3
 948 374 948 374 948 356 c 0,4,5
 948 340 948 340 892 340 c 2,6,-1
 731 340 l 1,7,-1
 689 340 l 1,8,-1
 687 138 l 2,9,10
 686 12 686 12 672 -80 c 1,11,12
 658 -136 658 -136 648 -136 c 0,13,14
 635 -136 635 -136 628 -96 c 1,15,16
 624 -21 624 -21 625 103 c 1,17,-1
 625 338 l 1,18,19
 558 335 558 335 476 328 c 1,20,21
 433 326 433 326 388 321 c 1,22,-1
 388 -3 l 2,23,24
 388 -35 388 -35 377 -57 c 0,25,26
 367 -78 367 -78 352 -78 c 0,27,28
 338 -78 338 -78 325 -50 c 1,29,30
 316 -26 316 -26 316 -10 c 0,31,32
 316 47 316 47 328 120 c 1,33,34
 332 170 332 170 334 315 c 1,35,36
 287 308 287 308 237 299 c 0,37,38
 201 292 201 292 193 292 c 0,39,40
 174 292 174 292 138 306 c 1,41,42
 100 322 100 322 100 332 c 0,43,44
 100 346 100 346 124 348 c 1,45,46
 263 350 263 350 329 360 c 2,47,-1
 335 361 l 1,48,49
 336 467 336 467 336 554 c 1,50,51
 331 637 331 637 322 666 c 1,52,53
 312 689 312 689 311 689 c 1,54,55
 311 702 311 702 323 702 c 0,56,57
 344 702 344 702 373 691 c 1,58,59
 403 678 403 678 403 662 c 0,60,61
 403 649 403 649 394 608 c 1,62,63
 388 555 388 555 388 474 c 2,64,-1
 388 366 l 1,65,66
 486 376 486 376 599 383 c 1,67,-1
 625 385 l 1,68,-1
 624 644 l 2,69,70
 624 691 624 691 616 722 c 0,71,72
 612 735 612 735 612 740 c 0,73,74
 612 752 612 752 628 755 c 1,75,76
 640 755 640 755 674 742 c 1,77,78
 708 726 708 726 708 707 c 0,79,80
 708 704 708 704 701 680 c 1,81,82
 693 634 693 634 691 578 c 1,83,-1
 690 390 l 1,84,85
 765 398 765 398 812 406 c 0,86,87
 844 411 844 411 852 411 c 0,0,1
EndSplineSet
Validated: 33
EndChar

StartChar: uniA062
Encoding: 41058 41058 126
Width: 1024
VWidth: 0
LayerCount: 2
Fore
SplineSet
897 684 m 0,0,1
 897 680 897 680 894 666 c 0,2,3
 882 596 882 596 882 389 c 0,4,5
 882 197 882 197 889 -20 c 0,6,7
 890 -22 890 -22 890 -23 c 0,8,9
 890 -54 890 -54 876 -93 c 0,10,11
 861 -132 861 -132 849 -132 c 0,12,13
 842 -132 842 -132 827 -100 c 1,14,15
 813 -67 813 -67 813 -42 c 0,16,17
 813 -25 813 -25 818 25 c 0,18,19
 827 103 827 103 827 208 c 2,20,-1
 827 230 l 1,21,22
 714 218 714 218 668 201 c 1,23,24
 670 84 670 84 676 36 c 1,25,-1
 676 31 l 2,26,27
 676 -26 676 -26 647 -26 c 0,28,29
 639 -26 639 -26 624 -7 c 0,30,31
 610 11 610 11 610 31 c 0,32,33
 610 40 610 40 613 70 c 0,34,35
 619 127 619 127 619 160 c 0,36,37
 619 196 619 196 605 222 c 1,38,39
 599 236 599 236 599 243 c 0,40,41
 599 244 599 244 600 246 c 128,-1,42
 601 248 601 248 613 248 c 0,43,44
 619 248 619 248 637 246 c 0,45,46
 657 244 657 244 666 244 c 0,47,48
 696 244 696 244 772 263 c 1,49,50
 794 267 794 267 805 267 c 128,-1,51
 816 267 816 267 829 264 c 1,52,-1
 828 492 l 1,53,54
 723 481 723 481 655 451 c 0,55,56
 652 450 652 450 650 450 c 0,57,58
 639 450 639 450 626 467 c 0,59,60
 614 484 614 484 614 497 c 2,61,-1
 614 499 l 1,62,-1
 618 511 l 2,63,64
 632 550 632 550 632 592 c 0,65,66
 632 620 632 620 618 644 c 0,67,68
 612 655 612 655 612 662 c 0,69,70
 612 665 612 665 613 669 c 128,-1,71
 614 673 614 673 622 673 c 0,72,73
 642 673 642 673 668 654 c 1,74,75
 695 636 695 636 695 621 c 0,76,77
 695 604 695 604 686 568 c 0,78,79
 676 530 676 530 673 505 c 1,80,81
 736 516 736 516 809 526 c 1,82,83
 819 526 819 526 826 525 c 1,84,85
 827 536 827 536 827 561 c 0,86,87
 827 672 827 672 799 716 c 0,88,89
 791 728 791 728 791 737 c 128,-1,90
 791 746 791 746 803 746 c 0,91,92
 821 746 821 746 857 726 c 0,93,94
 893 705 893 705 897 684 c 0,0,1
417 673 m 0,95,96
 431 673 431 673 464 657 c 0,97,98
 496 641 496 641 496 624 c 0,99,100
 496 619 496 619 491 600 c 0,101,102
 476 538 476 538 476 498 c 0,103,104
 476 488 476 488 487 484 c 0,105,106
 500 478 500 478 500 469 c 0,107,108
 500 456 500 456 434 443 c 1,109,-1
 433 443 l 1,110,111
 416 440 416 440 364 425 c 1,112,-1
 313 414 l 1,113,114
 312 310 312 310 302 205 c 1,115,-1
 304 205 l 2,116,117
 330 205 330 205 393 231 c 1,118,119
 415 242 415 242 428 242 c 0,120,121
 442 242 442 242 462 231 c 0,122,123
 483 220 483 220 483 210 c 0,124,125
 483 209 483 209 481 204 c 0,126,127
 470 174 470 174 470 127 c 0,128,129
 470 97 470 97 474 60 c 1,130,-1
 474 57 l 2,131,132
 474 -6 474 -6 438 -6 c 0,133,134
 431 -6 431 -6 420 12 c 0,135,136
 410 29 410 29 410 49 c 0,137,138
 410 58 410 58 414 94 c 0,139,140
 420 154 420 154 420 180 c 2,141,-1
 420 194 l 1,142,143
 389 188 389 188 321 178 c 1,144,145
 309 178 309 178 299 179 c 1,146,147
 284 76 284 76 206 -8 c 128,-1,148
 128 -92 128 -92 88 -92 c 0,149,150
 86 -92 86 -92 86 -91 c 0,151,152
 86 -87 86 -87 101 -72 c 0,153,154
 185 16 185 16 219 109 c 0,155,156
 254 203 254 203 254 400 c 0,157,158
 254 529 254 529 231 591 c 0,159,160
 228 598 228 598 228 602 c 0,161,162
 228 610 228 610 239 610 c 0,163,164
 256 610 256 610 287 593 c 0,165,166
 318 575 318 575 318 563 c 2,167,-1
 318 550 l 2,168,169
 318 529 318 529 316 498 c 0,170,171
 314 470 314 470 314 451 c 1,172,173
 385 476 385 476 423 484 c 1,174,175
 429 522 429 522 429 550 c 0,176,177
 429 621 429 621 407 648 c 0,178,179
 401 655 401 655 401 660 c 0,180,181
 401 674 401 674 417 673 c 0,95,96
669 393 m 2,182,-1
 670 393 l 2,183,184
 687 393 687 393 714 379 c 0,185,186
 740 366 740 366 741 356 c 1,187,-1
 741 355 l 2,188,189
 741 341 741 341 674 338 c 1,190,191
 535 326 535 326 457 303 c 0,192,193
 453 302 453 302 448 302 c 0,194,195
 432 302 432 302 413 314 c 0,196,197
 395 326 395 326 395 336 c 0,198,199
 395 341 395 341 402 342 c 0,200,201
 501 348 501 348 635 384 c 1,202,203
 659 393 659 393 669 393 c 2,182,-1
EndSplineSet
Validated: 1
EndChar

StartChar: uniA02E
Encoding: 41006 41006 127
Width: 1024
VWidth: 0
LayerCount: 2
Fore
SplineSet
753 595 m 0,0,1
 768 595 768 595 806 563 c 1,2,3
 841 529 841 529 841 515 c 0,4,5
 841 499 841 499 818 486 c 1,6,7
 796 464 796 464 750 370 c 1,8,9
 693 249 693 249 646 188 c 1,10,11
 612 133 612 133 552 71 c 0,12,13
 490 8 490 8 391 -31 c 1,14,15
 498 69 498 69 565 164 c 1,16,17
 616 233 616 233 670 336 c 1,18,19
 737 486 737 486 737 515 c 0,20,21
 737 531 737 531 709 531 c 0,22,23
 648 531 648 531 485 496 c 1,24,25
 301 459 301 459 254 459 c 0,26,27
 213 459 213 459 187 480 c 1,28,29
 166 500 166 500 166 511 c 0,30,31
 166 518 166 518 174 518 c 0,32,33
 178 518 178 518 186 516 c 1,34,35
 199 515 199 515 237 515 c 0,36,37
 338 515 338 515 519 542 c 0,38,39
 679 565 679 565 720 584 c 0,40,41
 742 595 742 595 753 595 c 0,0,1
EndSplineSet
Validated: 1
EndChar

StartChar: uniA030
Encoding: 41008 41008 128
Width: 1024
VWidth: 0
LayerCount: 2
Fore
SplineSet
447 540 m 1,0,1
 418 461 418 461 371 394 c 1,2,3
 327 326 327 326 269 263 c 1,4,5
 180 171 180 171 149 171 c 0,6,7
 145 171 145 171 145 175 c 0,8,9
 145 183 145 183 180 222 c 1,10,11
 300 364 300 364 366 514 c 1,12,13
 414 633 414 633 414 685 c 0,14,15
 414 702 414 702 409 719 c 1,16,17
 409 737 409 737 422 737 c 0,18,19
 431 737 431 737 469 716 c 1,20,21
 506 691 506 691 506 672 c 0,22,23
 506 667 506 667 497 654 c 0,24,25
 487 641 487 641 458 568 c 1,26,27
 467 566 467 566 477 566 c 0,28,29
 510 566 510 566 773 612 c 1,30,31
 823 623 823 623 827 623 c 0,32,33
 842 623 842 623 872 592 c 1,34,35
 903 562 903 562 903 548 c 0,36,37
 903 544 903 544 893 531 c 0,38,39
 871 500 871 500 845 388 c 0,40,41
 808 228 808 228 759 187 c 128,-1,42
 710 146 710 146 676 146 c 0,43,44
 668 146 668 146 660 181 c 0,45,46
 650 230 650 230 598 297 c 0,47,48
 590 308 590 308 590 311 c 0,49,50
 590 313 590 313 593 313 c 0,51,52
 597 313 597 313 605 309 c 0,53,54
 697 261 697 261 716 261 c 2,55,-1
 717 261 l 1,56,57
 743 262 743 262 777 359 c 128,-1,58
 811 456 811 456 811 522 c 0,59,60
 811 563 811 563 769 563 c 0,61,62
 748 563 748 563 620 548 c 0,63,64
 495 533 495 533 477 533 c 0,65,66
 454 533 454 533 447 540 c 1,0,1
EndSplineSet
Validated: 1
EndChar

StartChar: uniA03C
Encoding: 41020 41020 129
Width: 1024
VWidth: 0
LayerCount: 2
Fore
SplineSet
467 143 m 1,0,1
 461 139 461 139 456 134 c 0,2,3
 373 54 373 54 224 -6 c 1,4,5
 134 -34 134 -34 111 -34 c 0,6,7
 107 -34 107 -34 107 -30 c 1,8,9
 309 73 309 73 432 191 c 1,10,-1
 439 198 l 1,11,12
 408 267 408 267 383 349 c 0,13,14
 356 436 356 436 339 527 c 1,15,16
 316 641 316 641 280 681 c 0,17,18
 265 698 265 698 265 705 c 0,19,20
 265 717 265 717 282 717 c 0,21,22
 306 717 306 717 348 703 c 128,-1,23
 390 689 390 689 391 668 c 1,24,-1
 391 666 l 1,25,26
 388 645 388 645 388 628 c 0,27,28
 388 541 388 541 424 404 c 0,29,30
 436 356 436 356 441 342 c 0,31,32
 459 287 459 287 481 239 c 1,33,34
 608 369 608 369 657 467 c 1,35,36
 702 550 702 550 702 609 c 1,37,-1
 694 646 l 1,38,39
 694 657 694 657 711 657 c 0,40,41
 740 657 740 657 775 633 c 1,42,43
 807 616 807 616 807 594 c 0,44,45
 807 586 807 586 797 574 c 1,46,47
 765 510 765 510 737 455 c 0,48,49
 673 333 673 333 510 182 c 1,50,51
 546 117 546 117 592 67 c 0,52,53
 688 -40 688 -40 760 -40 c 0,54,55
 787 -40 787 -40 846 151 c 0,56,57
 850 165 850 165 854 165 c 0,58,59
 857 165 857 165 857 154 c 2,60,-1
 857 148 l 1,61,62
 845 14 845 14 845 -18 c 2,63,-1
 845 -19 l 2,64,65
 845 -34 845 -34 865 -121 c 0,66,67
 866 -126 866 -126 866 -129 c 0,68,69
 866 -150 866 -150 835 -150 c 0,70,71
 771 -150 771 -150 683 -99 c 128,-1,72
 595 -48 595 -48 515 65 c 0,73,74
 489 101 489 101 467 143 c 1,0,1
EndSplineSet
Validated: 1
EndChar

StartChar: uniA045
Encoding: 41029 41029 130
Width: 1024
VWidth: 0
LayerCount: 2
Fore
SplineSet
487 535 m 1,0,1
 613 557 613 557 664 573 c 0,2,3
 696 583 696 583 704 583 c 0,4,5
 726 583 726 583 758 566 c 0,6,7
 791 548 791 548 791 531 c 0,8,9
 791 519 791 519 732 519 c 2,10,-1
 722 519 l 2,11,12
 642 519 642 519 480 493 c 1,13,14
 462 391 462 391 436 310 c 1,15,16
 453 312 453 312 468 315 c 1,17,18
 583 327 583 327 686 351 c 0,19,20
 723 359 723 359 733 359 c 0,21,22
 759 359 759 359 794 340 c 0,23,24
 828 321 828 321 828 300 c 0,25,26
 828 293 828 293 685 291 c 0,27,28
 650 290 650 290 463 275 c 1,29,30
 442 272 442 272 422 269 c 1,31,32
 411 239 411 239 399 212 c 0,33,34
 345 94 345 94 253 12.5 c 128,-1,35
 161 -69 161 -69 126 -75 c 0,36,37
 116 -76 116 -76 116 -68 c 0,38,39
 116 -61 116 -61 138 -41 c 1,40,41
 290 83 290 83 364 260 c 1,42,43
 231 239 231 239 174 226 c 1,44,-1
 172 226 l 2,45,46
 160 226 160 226 137 247 c 0,47,48
 115 267 115 267 115 279 c 0,49,50
 115 284 115 284 121 284 c 0,51,52
 271 289 271 289 380 302 c 1,53,54
 397 352 397 352 409 406 c 1,55,56
 417 447 417 447 423 484 c 1,57,58
 326 469 326 469 204 447 c 1,59,-1
 202 447 l 2,60,61
 191 447 191 447 170 467 c 1,62,63
 148 486 148 486 148 495 c 0,64,65
 148 501 148 501 156 501 c 0,66,67
 346 512 346 512 430 526 c 1,68,69
 450 659 450 659 438 710 c 1,70,71
 437 727 437 727 434 738 c 1,72,73
 431 769 431 769 473 748 c 0,74,75
 521 725 521 725 523 697 c 1,76,77
 525 684 525 684 515 663 c 0,78,79
 506 644 506 644 487 535 c 1,0,1
EndSplineSet
Validated: 33
EndChar

StartChar: uni3125
Encoding: 12581 12581 131
Width: 1024
VWidth: 0
LayerCount: 2
Fore
SplineSet
220 8 m 1,0,1
 186 -9 186 -9 169 -9 c 0,2,3
 146 -9 146 -9 143 31 c 0,4,5
 142 40 142 40 142 55 c 0,6,7
 142 85 142 85 169 97 c 0,8,9
 218 117 218 117 297 221 c 0,10,11
 389 341 389 341 445 485 c 0,12,13
 470 550 470 550 470 583 c 0,14,15
 470 590 470 590 469 592 c 0,16,17
 466 605 466 605 466 613 c 0,18,19
 466 629 466 629 479 629 c 0,20,21
 495 629 495 629 526 611 c 0,22,23
 573 582 573 582 573 560 c 0,24,25
 573 546 573 546 556 527 c 0,26,27
 521 486 521 486 492 439 c 1,28,29
 401 281 401 281 235 79 c 1,30,31
 329 89 329 89 490 97 c 0,32,33
 691 106 691 106 765 112 c 0,34,35
 781 113 781 113 794 113 c 0,36,37
 813 113 813 113 839 93 c 1,38,39
 873 73 873 73 873 53 c 0,40,41
 873 29 873 29 850 29 c 1,42,43
 762 44 762 44 661 44 c 0,44,45
 553 44 553 44 460 39 c 0,46,47
 359 34 359 34 304 27 c 0,48,49
 273 23 273 23 221 8 c 1,50,-1
 220 8 l 1,0,1
EndSplineSet
Validated: 1
EndChar

StartChar: uniA036
Encoding: 41014 41014 132
Width: 1024
VWidth: 0
LayerCount: 2
Fore
SplineSet
652 92 m 1,0,1
 766 31 766 31 901 8 c 1,2,3
 987 -3 987 -3 987 -12 c 0,4,5
 987 -27 987 -27 894 -34 c 1,6,7
 796 -44 796 -44 754 -44 c 0,8,9
 717 -44 717 -44 686 -31 c 0,10,11
 614 -1 614 -1 460 155 c 1,12,13
 198 394 198 394 135 419 c 0,14,15
 107 430 107 430 107 435 c 0,16,17
 107 447 107 447 144 447 c 0,18,19
 164 447 164 447 197 437 c 1,20,21
 230 423 230 423 330 335 c 1,22,23
 406 278 406 278 494 199 c 1,24,25
 573 132 573 132 652 92 c 1,0,1
657 655 m 0,26,27
 674 655 674 655 709 635 c 1,28,29
 761 607 761 607 761 587 c 0,30,31
 761 580 761 580 742 571 c 1,32,33
 700 543 700 543 639 500 c 1,34,35
 522 412 522 412 336 347 c 1,36,37
 324 347 324 347 319 356 c 1,38,39
 327 368 327 368 363 387 c 1,40,41
 511 474 511 474 604 568 c 1,42,43
 644 612 644 612 644 633 c 0,44,45
 644 641 644 641 647 648 c 0,46,47
 651 655 651 655 657 655 c 0,26,27
EndSplineSet
EndChar

StartChar: uni2E9C
Encoding: 11932 11932 133
Width: 1024
VWidth: 0
LayerCount: 2
Fore
SplineSet
142 606 m 0,0,1
 164 606 164 606 180 601 c 0,2,3
 189 598 189 598 195 595 c 1,4,5
 327 604 327 604 533 631 c 128,-1,6
 739 658 739 658 773 664 c 0,7,8
 800 669 800 669 812 669 c 0,9,10
 828 669 828 669 874 643 c 1,11,12
 902 626 902 626 902 619 c 0,13,14
 902 608 902 608 893 596 c 1,15,16
 887 584 887 584 880 559 c 1,17,18
 846 352 846 352 816 280 c 0,19,20
 804 253 804 253 781 253 c 0,21,22
 772 253 772 253 765 267 c 1,23,24
 757 280 757 280 763 314 c 1,25,26
 775 368 775 368 785 449 c 1,27,28
 796 559 796 559 796 599 c 0,29,30
 796 619 796 619 769 619 c 128,-1,31
 742 619 742 619 534 598 c 1,32,33
 314 574 314 574 260 567 c 1,34,35
 232 562 232 562 216 561 c 1,36,37
 217 544 217 544 218 528 c 0,38,39
 233 393 233 393 238 261 c 0,40,41
 238 244 238 244 233 234 c 0,42,43
 228 222 228 222 223 222 c 0,44,45
 213 222 213 222 205 235 c 1,46,47
 192 253 192 253 191 273 c 1,48,-1
 176 398 l 2,49,50
 164 504 164 504 157 531 c 1,51,52
 152 559 152 559 133 583 c 1,53,54
 127 588 127 588 127 591 c 0,55,56
 127 606 127 606 142 606 c 0,0,1
642 273 m 0,57,58
 593 264 593 264 549 258 c 128,-1,59
 505 252 505 252 450 246 c 0,60,61
 423 243 423 243 399 243 c 2,62,-1
 388 243 l 1,63,64
 368 244 368 244 341 248 c 1,65,66
 319 253 319 253 319 261 c 2,67,-1
 319 263 l 1,68,69
 322 272 322 272 346 274 c 0,70,71
 380 277 380 277 418.5 284 c 128,-1,72
 457 291 457 291 508 303 c 0,73,74
 568 317 568 317 597 320 c 0,75,76
 609 321 609 321 620 321 c 0,77,78
 634 321 634 321 646 319 c 0,79,80
 658 316 658 316 665 309.5 c 128,-1,81
 672 303 672 303 672 296 c 0,82,83
 672 288 672 288 665 282 c 128,-1,84
 658 276 658 276 642 273 c 0,57,58
642 438 m 0,85,86
 593 429 593 429 549 423 c 128,-1,87
 505 417 505 417 450 411 c 0,88,89
 423 408 423 408 399 408 c 2,90,-1
 388 408 l 1,91,92
 368 409 368 409 341 413 c 1,93,94
 319 418 319 418 319 426 c 2,95,-1
 319 428 l 1,96,97
 322 437 322 437 346 439 c 0,98,99
 380 442 380 442 418.5 449 c 128,-1,100
 457 456 457 456 508 468 c 0,101,102
 568 482 568 482 597 485 c 0,103,104
 609 486 609 486 620 486 c 0,105,106
 634 486 634 486 646 484 c 0,107,108
 658 481 658 481 665 474.5 c 128,-1,109
 672 468 672 468 672 461 c 0,110,111
 672 453 672 453 665 447 c 128,-1,112
 658 441 658 441 642 438 c 0,85,86
EndSplineSet
EndChar

StartChar: uni31CD
Encoding: 12749 12749 134
Width: 1024
VWidth: 0
LayerCount: 2
Fore
SplineSet
491 490 m 1,0,1
 491 548 491 548 484 591 c 1,2,3
 476 613 476 613 450 603 c 1,4,-1
 270 573 l 1,5,6
 233 568 233 568 209 573 c 0,7,8
 185 579 185 579 180 591 c 1,9,10
 178 606 178 606 203 609 c 0,11,12
 357 623 357 623 468 663 c 1,13,14
 496 677 496 677 535 660 c 1,15,16
 570 647 570 647 578 634 c 0,17,18
 584 625 584 625 567 596 c 0,19,20
 546 559 546 559 540 498 c 0,21,22
 535 445 535 445 534 394 c 1,23,24
 530 314 530 314 528 251 c 0,25,26
 527 201 527 201 527 179 c 0,27,28
 527 118 527 118 542 78 c 1,29,30
 563 31 563 31 603 9 c 1,31,32
 651 -8 651 -8 708 -8 c 0,33,34
 748 -8 748 -8 797 13 c 1,35,36
 832 22 832 22 849 15 c 1,37,38
 892 4 892 4 892 -19 c 0,39,40
 892 -49 892 -49 837 -57 c 1,41,42
 784 -73 784 -73 724 -73 c 0,43,44
 643 -73 643 -73 575 -42 c 1,45,46
 515 -12 515 -12 492 48 c 0,47,48
 472 101 472 101 472 179 c 0,49,50
 472 283 472 283 491 490 c 1,0,1
EndSplineSet
EndChar

StartChar: uniA031
Encoding: 41009 41009 135
Width: 1024
VWidth: 0
LayerCount: 2
Fore
SplineSet
529 643 m 1,0,1
 645 441 645 441 704 362 c 128,-1,2
 763 283 763 283 816.5 245 c 128,-1,3
 870 207 870 207 977 169 c 0,4,5
 1002 160 1002 160 1002 150 c 0,6,7
 1002 144 1002 144 996 142 c 128,-1,8
 990 140 990 140 939.5 138 c 128,-1,9
 889 136 889 136 848 136 c 128,-1,10
 807 136 807 136 783.5 145 c 128,-1,11
 760 154 760 154 737 189.5 c 128,-1,12
 714 225 714 225 646 345 c 1,13,-1
 504 600 l 1,14,15
 429 414 429 414 330.5 302.5 c 128,-1,16
 232 191 232 191 153 147.5 c 128,-1,17
 74 104 74 104 53 104 c 0,18,19
 44 104 44 104 44 111 c 128,-1,20
 44 118 44 118 61 129 c 0,21,22
 158 198 158 198 236.5 288.5 c 128,-1,23
 315 379 315 379 369.5 469.5 c 128,-1,24
 424 560 424 560 439.5 612.5 c 128,-1,25
 455 665 455 665 455 687 c 0,26,27
 455 710 455 710 451 719 c 128,-1,28
 447 728 447 728 447 735 c 0,29,30
 447 750 447 750 464 750 c 128,-1,31
 481 750 481 750 517.5 721 c 128,-1,32
 554 692 554 692 554 683 c 0,33,34
 554 673 554 673 544.5 663 c 128,-1,35
 535 653 535 653 529 643 c 1,0,1
EndSplineSet
EndChar
